<svg xmlns="http://www.w3.org/2000/svg" xmlns:xlink="http://www.w3.org/1999/xlink" x="0" y="0" width="661.7777709960938" height="394.27777099609375" style="
        width:661.7777709960938px;
        height:394.27777099609375px;
        background: transparent;
        fill: none;
">
        
        
        <svg xmlns="http://www.w3.org/2000/svg" class="role-diagram-draw-area"><g class="shapes-region" style="stroke: black; fill: none;"><g class="grouped-shape"><g class="composite-shape"><path class="real" d=" M188.33,146 L223.33,181 L188.33,216 L153.33,181 Z" style="stroke-width: 1; stroke: rgb(0, 0, 0); fill: none; fill-opacity: 1;"/></g><g class="composite-shape"><path class="real" d=" M153.33,181 L188.33,216 L153.33,251 L118.33,216 Z" style="stroke-width: 1; stroke: rgb(0, 0, 0); fill: none; fill-opacity: 1;"/></g><g class="composite-shape"><path class="real" d=" M223.33,181 L258.33,216 L223.33,251 L188.33,216 Z" style="stroke-width: 1; stroke: rgb(0, 0, 0); fill: none; fill-opacity: 1;"/></g><g class="composite-shape"><path class="real" d=" M188.33,216 L223.33,251 L188.33,286 L153.33,251 Z" style="stroke-width: 1; stroke: rgb(0, 0, 0); fill: none; fill-opacity: 1;"/></g><g class="composite-shape"><path class="real" d=" M118.33,216 L153.33,251 L118.33,286 L83.33,251 Z" style="stroke-width: 1; stroke: rgb(0, 0, 0); fill: none; fill-opacity: 1;"/></g><g class="composite-shape"><path class="real" d=" M258.33,216 L293.33,251 L258.33,286 L223.33,251 Z" style="stroke-width: 1; stroke: rgb(0, 0, 0); fill: none; fill-opacity: 1;"/></g><g class="composite-shape"><path class="real" d=" M153.33,251 L188.33,286 L153.33,321 L118.33,286 Z" style="stroke-width: 1; stroke: rgb(0, 0, 0); fill: none; fill-opacity: 1;"/></g><g class="composite-shape"><path class="real" d=" M223.33,251 L258.33,286 L223.33,321 L188.33,286 Z" style="stroke-width: 1; stroke: rgb(0, 0, 0); fill: none; fill-opacity: 1;"/></g><g class="composite-shape"><path class="real" d=" M83.33,251 L118.33,286 L83.33,321 L48.33,286 Z" style="stroke-width: 1; stroke: rgb(0, 0, 0); fill: none; fill-opacity: 1;"/></g><g class="composite-shape"><path class="real" d=" M293.33,251 L328.33,286 L293.33,321 L258.33,286 Z" style="stroke-width: 1; stroke: rgb(0, 0, 0); fill: none; fill-opacity: 1;"/></g><g class="arrow-line"><path class="connection real" stroke-dasharray="" d="  M188.33,146 L153.33,181" style="stroke: rgb(255, 0, 0); stroke-opacity: 1; stroke-width: 2; fill: none; fill-opacity: 1;"/></g><g class="arrow-line"><path class="connection real" stroke-dasharray="" d="  M188.33,216 L153.33,181" style="stroke: rgb(255, 0, 0); stroke-opacity: 1; stroke-width: 2; fill: none; fill-opacity: 1;"/></g><g class="arrow-line"><path class="connection real" stroke-dasharray="" d="  M153.33,251 L188.33,216" style="stroke: rgb(255, 0, 0); stroke-opacity: 1; stroke-width: 2; fill: none; fill-opacity: 1;"/></g><g class="arrow-line"><path class="connection real" stroke-dasharray="" d="  M188.33,286 L153.33,321" style="stroke: rgb(255, 0, 0); stroke-opacity: 1; stroke-width: 2; fill: none; fill-opacity: 1;"/></g><g class="arrow-line"><path class="connection real" stroke-dasharray="" d="  M188.33,286 L153.33,251" style="stroke: rgb(255, 0, 0); stroke-opacity: 1; stroke-width: 2; fill: none; fill-opacity: 1;"/></g><g class="grouped-shape"><g class="composite-shape"><path class="real" d=" M185.19,125.21 C185.19,123.56 186.53,122.22 188.18,122.22 C189.83,122.22 191.16,123.56 191.16,125.21 C191.16,126.86 189.83,128.2 188.18,128.2 C186.53,128.2 185.19,126.86 185.19,125.21 Z" style="stroke-width: 1; stroke: rgb(255, 0, 0); stroke-opacity: 1; fill: rgb(254, 0, 0); fill-opacity: 1;"/></g><g class="arrow-line"><path class="connection real" stroke-dasharray="" d="  M188.18,128.2 L187.92,139.39" style="stroke: rgb(255, 0, 0); stroke-opacity: 1; stroke-width: 1; fill: rgb(254, 0, 0); fill-opacity: 1;"/></g><g class="arrow-line"><path class="connection real" stroke-dasharray="" d="  M187.92,139.39 L191.61,143.33" style="stroke: rgb(255, 0, 0); stroke-opacity: 1; stroke-width: 1; fill: rgb(254, 0, 0); fill-opacity: 1;"/></g><g class="arrow-line"><path class="connection real" stroke-dasharray="" d="  M187.92,139.39 L183.86,143.33" style="stroke: rgb(255, 0, 0); stroke-opacity: 1; stroke-width: 1; fill: rgb(254, 0, 0); fill-opacity: 1;"/></g><g class="arrow-line"><path class="connection real" stroke-dasharray="" d="  M188.04,131.39 L194.11,135.24" style="stroke: rgb(255, 0, 0); stroke-opacity: 1; stroke-width: 1; fill: rgb(254, 0, 0); fill-opacity: 1;"/></g><g class="arrow-line"><path class="connection real" stroke-dasharray="" d="  M188.04,131.39 L182.61,135.21" style="stroke: rgb(255, 0, 0); stroke-opacity: 1; stroke-width: 1; fill: rgb(254, 0, 0); fill-opacity: 1;"/></g></g><g class="grouped-shape"><g class="composite-shape"><path class="real" d=" M144.76,159.93 C144.76,158.28 146.1,156.94 147.75,156.94 C149.4,156.94 150.74,158.28 150.74,159.93 C150.74,161.58 149.4,162.91 147.75,162.91 C146.1,162.91 144.76,161.58 144.76,159.93 Z" style="stroke-width: 1; stroke: rgb(255, 0, 0); stroke-opacity: 1; fill: rgb(254, 0, 0); fill-opacity: 1;"/></g><g class="arrow-line"><path class="connection real" stroke-dasharray="" d="  M147.75,162.91 L147.49,174.11" style="stroke: rgb(255, 0, 0); stroke-opacity: 1; stroke-width: 1; fill: rgb(254, 0, 0); fill-opacity: 1;"/></g><g class="arrow-line"><path class="connection real" stroke-dasharray="" d="  M147.49,174.11 L151.18,178.04" style="stroke: rgb(255, 0, 0); stroke-opacity: 1; stroke-width: 1; fill: rgb(254, 0, 0); fill-opacity: 1;"/></g><g class="arrow-line"><path class="connection real" stroke-dasharray="" d="  M147.49,174.11 L143.43,178.04" style="stroke: rgb(255, 0, 0); stroke-opacity: 1; stroke-width: 1; fill: rgb(254, 0, 0); fill-opacity: 1;"/></g><g class="arrow-line"><path class="connection real" stroke-dasharray="" d="  M147.62,166.11 L153.68,169.95" style="stroke: rgb(255, 0, 0); stroke-opacity: 1; stroke-width: 1; fill: rgb(254, 0, 0); fill-opacity: 1;"/></g><g class="arrow-line"><path class="connection real" stroke-dasharray="" d="  M147.62,166.11 L142.18,169.92" style="stroke: rgb(255, 0, 0); stroke-opacity: 1; stroke-width: 1; fill: rgb(254, 0, 0); fill-opacity: 1;"/></g></g><g class="grouped-shape"><g class="composite-shape"><path class="real" d=" M185.9,189.07 C185.9,187.42 187.24,186.08 188.89,186.08 C190.54,186.08 191.88,187.42 191.88,189.07 C191.88,190.72 190.54,192.06 188.89,192.06 C187.24,192.06 185.9,190.72 185.9,189.07 Z" style="stroke-width: 1; stroke: rgb(255, 0, 0); stroke-opacity: 1; fill: rgb(254, 0, 0); fill-opacity: 1;"/></g><g class="arrow-line"><path class="connection real" stroke-dasharray="" d="  M188.89,192.06 L188.63,203.25" style="stroke: rgb(255, 0, 0); stroke-opacity: 1; stroke-width: 1; fill: rgb(254, 0, 0); fill-opacity: 1;"/></g><g class="arrow-line"><path class="connection real" stroke-dasharray="" d="  M188.63,203.25 L192.32,207.19" style="stroke: rgb(255, 0, 0); stroke-opacity: 1; stroke-width: 1; fill: rgb(254, 0, 0); fill-opacity: 1;"/></g><g class="arrow-line"><path class="connection real" stroke-dasharray="" d="  M188.63,203.25 L184.57,207.19" style="stroke: rgb(255, 0, 0); stroke-opacity: 1; stroke-width: 1; fill: rgb(254, 0, 0); fill-opacity: 1;"/></g><g class="arrow-line"><path class="connection real" stroke-dasharray="" d="  M188.76,195.25 L194.82,199.09" style="stroke: rgb(255, 0, 0); stroke-opacity: 1; stroke-width: 1; fill: rgb(254, 0, 0); fill-opacity: 1;"/></g><g class="arrow-line"><path class="connection real" stroke-dasharray="" d="  M188.76,195.25 L183.32,199.06" style="stroke: rgb(255, 0, 0); stroke-opacity: 1; stroke-width: 1; fill: rgb(254, 0, 0); fill-opacity: 1;"/></g></g><g class="grouped-shape"><g class="composite-shape"><path class="real" d=" M149.9,223.35 C149.9,221.7 151.24,220.37 152.89,220.37 C154.54,220.37 155.88,221.7 155.88,223.35 C155.88,225 154.54,226.34 152.89,226.34 C151.24,226.34 149.9,225 149.9,223.35 Z" style="stroke-width: 1; stroke: rgb(255, 0, 0); stroke-opacity: 1; fill: rgb(254, 0, 0); fill-opacity: 1;"/></g><g class="arrow-line"><path class="connection real" stroke-dasharray="" d="  M152.89,226.34 L152.63,237.54" style="stroke: rgb(255, 0, 0); stroke-opacity: 1; stroke-width: 1; fill: rgb(254, 0, 0); fill-opacity: 1;"/></g><g class="arrow-line"><path class="connection real" stroke-dasharray="" d="  M152.63,237.54 L156.32,241.47" style="stroke: rgb(255, 0, 0); stroke-opacity: 1; stroke-width: 1; fill: rgb(254, 0, 0); fill-opacity: 1;"/></g><g class="arrow-line"><path class="connection real" stroke-dasharray="" d="  M152.63,237.54 L148.57,241.47" style="stroke: rgb(255, 0, 0); stroke-opacity: 1; stroke-width: 1; fill: rgb(254, 0, 0); fill-opacity: 1;"/></g><g class="arrow-line"><path class="connection real" stroke-dasharray="" d="  M152.76,229.54 L158.82,233.38" style="stroke: rgb(255, 0, 0); stroke-opacity: 1; stroke-width: 1; fill: rgb(254, 0, 0); fill-opacity: 1;"/></g><g class="arrow-line"><path class="connection real" stroke-dasharray="" d="  M152.76,229.54 L147.32,233.35" style="stroke: rgb(255, 0, 0); stroke-opacity: 1; stroke-width: 1; fill: rgb(254, 0, 0); fill-opacity: 1;"/></g></g><g class="grouped-shape"><g class="composite-shape"><path class="real" d=" M185.9,258.78 C185.9,257.13 187.24,255.8 188.89,255.8 C190.54,255.8 191.88,257.13 191.88,258.78 C191.88,260.43 190.54,261.77 188.89,261.77 C187.24,261.77 185.9,260.43 185.9,258.78 Z" style="stroke-width: 1; stroke: rgb(255, 0, 0); stroke-opacity: 1; fill: rgb(254, 0, 0); fill-opacity: 1;"/></g><g class="arrow-line"><path class="connection real" stroke-dasharray="" d="  M188.89,261.77 L188.63,272.96" style="stroke: rgb(255, 0, 0); stroke-opacity: 1; stroke-width: 1; fill: rgb(254, 0, 0); fill-opacity: 1;"/></g><g class="arrow-line"><path class="connection real" stroke-dasharray="" d="  M188.63,272.96 L192.32,276.9" style="stroke: rgb(255, 0, 0); stroke-opacity: 1; stroke-width: 1; fill: rgb(254, 0, 0); fill-opacity: 1;"/></g><g class="arrow-line"><path class="connection real" stroke-dasharray="" d="  M188.63,272.96 L184.57,276.9" style="stroke: rgb(255, 0, 0); stroke-opacity: 1; stroke-width: 1; fill: rgb(254, 0, 0); fill-opacity: 1;"/></g><g class="arrow-line"><path class="connection real" stroke-dasharray="" d="  M188.76,264.96 L194.82,268.81" style="stroke: rgb(255, 0, 0); stroke-opacity: 1; stroke-width: 1; fill: rgb(254, 0, 0); fill-opacity: 1;"/></g><g class="arrow-line"><path class="connection real" stroke-dasharray="" d="  M188.76,264.96 L183.32,268.78" style="stroke: rgb(255, 0, 0); stroke-opacity: 1; stroke-width: 1; fill: rgb(254, 0, 0); fill-opacity: 1;"/></g></g><g class="grouped-shape"><g class="composite-shape"><path class="real" d=" M150.19,293.64 C150.19,291.99 151.53,290.65 153.18,290.65 C154.83,290.65 156.16,291.99 156.16,293.64 C156.16,295.29 154.83,296.63 153.18,296.63 C151.53,296.63 150.19,295.29 150.19,293.64 Z" style="stroke-width: 1; stroke: rgb(255, 0, 0); stroke-opacity: 1; fill: rgb(254, 0, 0); fill-opacity: 1;"/></g><g class="arrow-line"><path class="connection real" stroke-dasharray="" d="  M153.18,296.63 L152.92,307.82" style="stroke: rgb(255, 0, 0); stroke-opacity: 1; stroke-width: 1; fill: rgb(254, 0, 0); fill-opacity: 1;"/></g><g class="arrow-line"><path class="connection real" stroke-dasharray="" d="  M152.92,307.82 L156.61,311.76" style="stroke: rgb(255, 0, 0); stroke-opacity: 1; stroke-width: 1; fill: rgb(254, 0, 0); fill-opacity: 1;"/></g><g class="arrow-line"><path class="connection real" stroke-dasharray="" d="  M152.92,307.82 L148.86,311.76" style="stroke: rgb(255, 0, 0); stroke-opacity: 1; stroke-width: 1; fill: rgb(254, 0, 0); fill-opacity: 1;"/></g><g class="arrow-line"><path class="connection real" stroke-dasharray="" d="  M153.04,299.82 L159.11,303.67" style="stroke: rgb(255, 0, 0); stroke-opacity: 1; stroke-width: 1; fill: rgb(254, 0, 0); fill-opacity: 1;"/></g><g class="arrow-line"><path class="connection real" stroke-dasharray="" d="  M153.04,299.82 L147.61,303.63" style="stroke: rgb(255, 0, 0); stroke-opacity: 1; stroke-width: 1; fill: rgb(254, 0, 0); fill-opacity: 1;"/></g></g></g><g class="grouped-shape"><g class="composite-shape"><path class="real" d=" M500,147.76 L535,182.76 L500,217.76 L465,182.76 Z" style="stroke-width: 1; stroke: rgb(0, 0, 0); fill: none; fill-opacity: 1;"/></g><g class="composite-shape"><path class="real" d=" M465,182.76 L500,217.76 L465,252.76 L430,217.76 Z" style="stroke-width: 1; stroke: rgb(0, 0, 0); fill: none; fill-opacity: 1;"/></g><g class="composite-shape"><path class="real" d=" M535,182.76 L570,217.76 L535,252.76 L500,217.76 Z" style="stroke-width: 1; stroke: rgb(0, 0, 0); fill: none; fill-opacity: 1;"/></g><g class="composite-shape"><path class="real" d=" M500,217.76 L535,252.76 L500,287.76 L465,252.76 Z" style="stroke-width: 1; stroke: rgb(0, 0, 0); fill: none; fill-opacity: 1;"/></g><g class="composite-shape"><path class="real" d=" M430,217.76 L465,252.76 L430,287.76 L395,252.76 Z" style="stroke-width: 1; stroke: rgb(0, 0, 0); fill: none; fill-opacity: 1;"/></g><g class="composite-shape"><path class="real" d=" M570,217.76 L605,252.76 L570,287.76 L535,252.76 Z" style="stroke-width: 1; stroke: rgb(0, 0, 0); fill: none; fill-opacity: 1;"/></g><g class="composite-shape"><path class="real" d=" M465,252.76 L500,287.76 L465,322.76 L430,287.76 Z" style="stroke-width: 1; stroke: rgb(0, 0, 0); fill: none; fill-opacity: 1;"/></g><g class="composite-shape"><path class="real" d=" M535,252.76 L570,287.76 L535,322.76 L500,287.76 Z" style="stroke-width: 1; stroke: rgb(0, 0, 0); fill: none; fill-opacity: 1;"/></g><g class="composite-shape"><path class="real" d=" M395,252.76 L430,287.76 L395,322.76 L360,287.76 Z" style="stroke-width: 1; stroke: rgb(0, 0, 0); fill: none; fill-opacity: 1;"/></g><g class="composite-shape"><path class="real" d=" M605,252.76 L640,287.76 L605,322.76 L570,287.76 Z" style="stroke-width: 1; stroke: rgb(0, 0, 0); fill: none; fill-opacity: 1;"/></g><g class="grouped-shape"><g class="composite-shape"><path class="real" d=" M497.52,127.21 C497.52,125.56 498.86,124.22 500.51,124.22 C502.16,124.22 503.5,125.56 503.5,127.21 C503.5,128.86 502.16,130.2 500.51,130.2 C498.86,130.2 497.52,128.86 497.52,127.21 Z" style="stroke-width: 1; stroke: rgb(255, 0, 0); stroke-opacity: 1; fill: rgb(254, 0, 0); fill-opacity: 1;"/></g><g class="arrow-line"><path class="connection real" stroke-dasharray="" d="  M500.51,130.2 L500.25,141.39" style="stroke: rgb(255, 0, 0); stroke-opacity: 1; stroke-width: 1; fill: rgb(254, 0, 0); fill-opacity: 1;"/></g><g class="arrow-line"><path class="connection real" stroke-dasharray="" d="  M500.25,141.39 L503.94,145.33" style="stroke: rgb(255, 0, 0); stroke-opacity: 1; stroke-width: 1; fill: rgb(254, 0, 0); fill-opacity: 1;"/></g><g class="arrow-line"><path class="connection real" stroke-dasharray="" d="  M500.25,141.39 L496.19,145.33" style="stroke: rgb(255, 0, 0); stroke-opacity: 1; stroke-width: 1; fill: rgb(254, 0, 0); fill-opacity: 1;"/></g><g class="arrow-line"><path class="connection real" stroke-dasharray="" d="  M500.38,133.39 L506.44,137.24" style="stroke: rgb(255, 0, 0); stroke-opacity: 1; stroke-width: 1; fill: rgb(254, 0, 0); fill-opacity: 1;"/></g><g class="arrow-line"><path class="connection real" stroke-dasharray="" d="  M500.38,133.39 L494.94,137.21" style="stroke: rgb(255, 0, 0); stroke-opacity: 1; stroke-width: 1; fill: rgb(254, 0, 0); fill-opacity: 1;"/></g></g><g class="grouped-shape"><g class="composite-shape"><path class="real" d=" M457.19,160.54 C457.19,158.9 458.53,157.56 460.18,157.56 C461.83,157.56 463.16,158.9 463.16,160.54 C463.16,162.19 461.83,163.53 460.18,163.53 C458.53,163.53 457.19,162.19 457.19,160.54 Z" style="stroke-width: 1; stroke: rgb(252, 31, 31); stroke-opacity: 1; fill: rgb(252, 31, 31); fill-opacity: 1;"/></g><g class="arrow-line"><path class="connection real" stroke-dasharray="" d="  M460.18,163.53 L459.92,174.73" style="stroke: rgb(252, 31, 31); stroke-opacity: 1; stroke-width: 1; fill: rgb(252, 31, 31); fill-opacity: 1;"/></g><g class="arrow-line"><path class="connection real" stroke-dasharray="" d="  M459.92,174.73 L463.61,178.66" style="stroke: rgb(252, 31, 31); stroke-opacity: 1; stroke-width: 1; fill: rgb(252, 31, 31); fill-opacity: 1;"/></g><g class="arrow-line"><path class="connection real" stroke-dasharray="" d="  M459.92,174.73 L455.86,178.66" style="stroke: rgb(252, 31, 31); stroke-opacity: 1; stroke-width: 1; fill: rgb(252, 31, 31); fill-opacity: 1;"/></g><g class="arrow-line"><path class="connection real" stroke-dasharray="" d="  M460.04,166.73 L466.11,170.57" style="stroke: rgb(252, 31, 31); stroke-opacity: 1; stroke-width: 1; fill: rgb(252, 31, 31); fill-opacity: 1;"/></g><g class="arrow-line"><path class="connection real" stroke-dasharray="" d="  M460.04,166.73 L454.61,170.54" style="stroke: rgb(252, 31, 31); stroke-opacity: 1; stroke-width: 1; fill: rgb(252, 31, 31); fill-opacity: 1;"/></g></g><g class="grouped-shape"><g class="composite-shape"><path class="real" d=" M535.86,159.88 C535.86,158.23 537.19,156.89 538.84,156.89 C540.49,156.89 541.83,158.23 541.83,159.88 C541.83,161.53 540.49,162.87 538.84,162.87 C537.19,162.87 535.86,161.53 535.86,159.88 Z" style="stroke-width: 1; stroke: rgb(252, 31, 31); stroke-opacity: 1; fill: rgb(252, 31, 31); fill-opacity: 1;"/></g><g class="arrow-line"><path class="connection real" stroke-dasharray="" d="  M538.84,162.87 L538.59,174.06" style="stroke: rgb(252, 31, 31); stroke-opacity: 1; stroke-width: 1; fill: rgb(252, 31, 31); fill-opacity: 1;"/></g><g class="arrow-line"><path class="connection real" stroke-dasharray="" d="  M538.59,174.06 L542.27,178" style="stroke: rgb(252, 31, 31); stroke-opacity: 1; stroke-width: 1; fill: rgb(252, 31, 31); fill-opacity: 1;"/></g><g class="arrow-line"><path class="connection real" stroke-dasharray="" d="  M538.59,174.06 L534.52,178" style="stroke: rgb(252, 31, 31); stroke-opacity: 1; stroke-width: 1; fill: rgb(252, 31, 31); fill-opacity: 1;"/></g><g class="arrow-line"><path class="connection real" stroke-dasharray="" d="  M538.71,166.06 L544.77,169.9" style="stroke: rgb(252, 31, 31); stroke-opacity: 1; stroke-width: 1; fill: rgb(252, 31, 31); fill-opacity: 1;"/></g><g class="arrow-line"><path class="connection real" stroke-dasharray="" d="  M538.71,166.06 L533.27,169.87" style="stroke: rgb(252, 31, 31); stroke-opacity: 1; stroke-width: 1; fill: rgb(252, 31, 31); fill-opacity: 1;"/></g></g><g class="grouped-shape"><g class="composite-shape"><path class="real" d=" M497.86,189.54 C497.86,187.9 499.19,186.56 500.84,186.56 C502.49,186.56 503.83,187.9 503.83,189.54 C503.83,191.19 502.49,192.53 500.84,192.53 C499.19,192.53 497.86,191.19 497.86,189.54 Z" style="stroke-width: 1; stroke: rgb(250, 38, 38); stroke-opacity: 1; fill: rgb(250, 38, 38); fill-opacity: 1;"/></g><g class="arrow-line"><path class="connection real" stroke-dasharray="" d="  M500.84,192.53 L500.59,203.73" style="stroke: rgb(250, 38, 38); stroke-opacity: 1; stroke-width: 1; fill: rgb(250, 38, 38); fill-opacity: 1;"/></g><g class="arrow-line"><path class="connection real" stroke-dasharray="" d="  M500.59,203.73 L504.27,207.66" style="stroke: rgb(250, 38, 38); stroke-opacity: 1; stroke-width: 1; fill: rgb(250, 38, 38); fill-opacity: 1;"/></g><g class="arrow-line"><path class="connection real" stroke-dasharray="" d="  M500.59,203.73 L496.52,207.66" style="stroke: rgb(250, 38, 38); stroke-opacity: 1; stroke-width: 1; fill: rgb(250, 38, 38); fill-opacity: 1;"/></g><g class="arrow-line"><path class="connection real" stroke-dasharray="" d="  M500.71,195.73 L506.77,199.57" style="stroke: rgb(250, 38, 38); stroke-opacity: 1; stroke-width: 1; fill: rgb(250, 38, 38); fill-opacity: 1;"/></g><g class="arrow-line"><path class="connection real" stroke-dasharray="" d="  M500.71,195.73 L495.27,199.54" style="stroke: rgb(250, 38, 38); stroke-opacity: 1; stroke-width: 1; fill: rgb(250, 38, 38); fill-opacity: 1;"/></g></g><g class="grouped-shape"><g class="composite-shape"><path class="real" d=" M423.19,193.88 C423.19,192.23 424.53,190.89 426.18,190.89 C427.83,190.89 429.16,192.23 429.16,193.88 C429.16,195.53 427.83,196.87 426.18,196.87 C424.53,196.87 423.19,195.53 423.19,193.88 Z" style="stroke-width: 1; stroke: rgb(252, 61, 61); stroke-opacity: 1; fill: rgb(252, 61, 61); fill-opacity: 1;"/></g><g class="arrow-line"><path class="connection real" stroke-dasharray="" d="  M426.18,196.87 L425.92,208.06" style="stroke: rgb(252, 61, 61); stroke-opacity: 1; stroke-width: 1; fill: rgb(252, 61, 61); fill-opacity: 1;"/></g><g class="arrow-line"><path class="connection real" stroke-dasharray="" d="  M425.92,208.06 L429.61,212" style="stroke: rgb(252, 61, 61); stroke-opacity: 1; stroke-width: 1; fill: rgb(252, 61, 61); fill-opacity: 1;"/></g><g class="arrow-line"><path class="connection real" stroke-dasharray="" d="  M425.92,208.06 L421.86,212" style="stroke: rgb(252, 61, 61); stroke-opacity: 1; stroke-width: 1; fill: rgb(252, 61, 61); fill-opacity: 1;"/></g><g class="arrow-line"><path class="connection real" stroke-dasharray="" d="  M426.04,200.06 L432.11,203.9" style="stroke: rgb(252, 61, 61); stroke-opacity: 1; stroke-width: 1; fill: rgb(252, 61, 61); fill-opacity: 1;"/></g><g class="arrow-line"><path class="connection real" stroke-dasharray="" d="  M426.04,200.06 L420.61,203.87" style="stroke: rgb(252, 61, 61); stroke-opacity: 1; stroke-width: 1; fill: rgb(252, 61, 61); fill-opacity: 1;"/></g></g><g class="grouped-shape"><g class="composite-shape"><path class="real" d=" M462.19,224.88 C462.19,223.23 463.53,221.89 465.18,221.89 C466.83,221.89 468.16,223.23 468.16,224.88 C468.16,226.53 466.83,227.87 465.18,227.87 C463.53,227.87 462.19,226.53 462.19,224.88 Z" style="stroke-width: 1; stroke: rgb(255, 87, 87); stroke-opacity: 1; fill: rgb(255, 87, 87); fill-opacity: 1;"/></g><g class="arrow-line"><path class="connection real" stroke-dasharray="" d="  M465.18,227.87 L464.92,239.06" style="stroke: rgb(255, 87, 87); stroke-opacity: 1; stroke-width: 1; fill: rgb(255, 87, 87); fill-opacity: 1;"/></g><g class="arrow-line"><path class="connection real" stroke-dasharray="" d="  M464.92,239.06 L468.61,243" style="stroke: rgb(255, 87, 87); stroke-opacity: 1; stroke-width: 1; fill: rgb(255, 87, 87); fill-opacity: 1;"/></g><g class="arrow-line"><path class="connection real" stroke-dasharray="" d="  M464.92,239.06 L460.86,243" style="stroke: rgb(255, 87, 87); stroke-opacity: 1; stroke-width: 1; fill: rgb(255, 87, 87); fill-opacity: 1;"/></g><g class="arrow-line"><path class="connection real" stroke-dasharray="" d="  M465.04,231.06 L471.11,234.9" style="stroke: rgb(255, 87, 87); stroke-opacity: 1; stroke-width: 1; fill: rgb(255, 87, 87); fill-opacity: 1;"/></g><g class="arrow-line"><path class="connection real" stroke-dasharray="" d="  M465.04,231.06 L459.61,234.87" style="stroke: rgb(255, 87, 87); stroke-opacity: 1; stroke-width: 1; fill: rgb(255, 87, 87); fill-opacity: 1;"/></g></g><g class="grouped-shape"><g class="composite-shape"><path class="real" d=" M531.86,224.54 C531.86,222.9 533.19,221.56 534.84,221.56 C536.49,221.56 537.83,222.9 537.83,224.54 C537.83,226.19 536.49,227.53 534.84,227.53 C533.19,227.53 531.86,226.19 531.86,224.54 Z" style="stroke-width: 1; stroke: rgb(255, 87, 87); stroke-opacity: 1; fill: rgb(255, 87, 87); fill-opacity: 1;"/></g><g class="arrow-line"><path class="connection real" stroke-dasharray="" d="  M534.84,227.53 L534.59,238.73" style="stroke: rgb(255, 87, 87); stroke-opacity: 1; stroke-width: 1; fill: rgb(255, 87, 87); fill-opacity: 1;"/></g><g class="arrow-line"><path class="connection real" stroke-dasharray="" d="  M534.59,238.73 L538.27,242.66" style="stroke: rgb(255, 87, 87); stroke-opacity: 1; stroke-width: 1; fill: rgb(255, 87, 87); fill-opacity: 1;"/></g><g class="arrow-line"><path class="connection real" stroke-dasharray="" d="  M534.59,238.73 L530.52,242.66" style="stroke: rgb(255, 87, 87); stroke-opacity: 1; stroke-width: 1; fill: rgb(255, 87, 87); fill-opacity: 1;"/></g><g class="arrow-line"><path class="connection real" stroke-dasharray="" d="  M534.71,230.73 L540.77,234.57" style="stroke: rgb(255, 87, 87); stroke-opacity: 1; stroke-width: 1; fill: rgb(255, 87, 87); fill-opacity: 1;"/></g><g class="arrow-line"><path class="connection real" stroke-dasharray="" d="  M534.71,230.73 L529.27,234.54" style="stroke: rgb(255, 87, 87); stroke-opacity: 1; stroke-width: 1; fill: rgb(255, 87, 87); fill-opacity: 1;"/></g></g><g class="grouped-shape"><g class="composite-shape"><path class="real" d=" M571.19,194.54 C571.19,192.9 572.53,191.56 574.18,191.56 C575.83,191.56 577.16,192.9 577.16,194.54 C577.16,196.19 575.83,197.53 574.18,197.53 C572.53,197.53 571.19,196.19 571.19,194.54 Z" style="stroke-width: 1; stroke: rgb(252, 61, 61); stroke-opacity: 1; fill: rgb(252, 61, 61); fill-opacity: 1;"/></g><g class="arrow-line"><path class="connection real" stroke-dasharray="" d="  M574.18,197.53 L573.92,208.73" style="stroke: rgb(252, 61, 61); stroke-opacity: 1; stroke-width: 1; fill: rgb(252, 61, 61); fill-opacity: 1;"/></g><g class="arrow-line"><path class="connection real" stroke-dasharray="" d="  M573.92,208.73 L577.61,212.66" style="stroke: rgb(252, 61, 61); stroke-opacity: 1; stroke-width: 1; fill: rgb(252, 61, 61); fill-opacity: 1;"/></g><g class="arrow-line"><path class="connection real" stroke-dasharray="" d="  M573.92,208.73 L569.86,212.66" style="stroke: rgb(252, 61, 61); stroke-opacity: 1; stroke-width: 1; fill: rgb(252, 61, 61); fill-opacity: 1;"/></g><g class="arrow-line"><path class="connection real" stroke-dasharray="" d="  M574.04,200.73 L580.11,204.57" style="stroke: rgb(252, 61, 61); stroke-opacity: 1; stroke-width: 1; fill: rgb(252, 61, 61); fill-opacity: 1;"/></g><g class="arrow-line"><path class="connection real" stroke-dasharray="" d="  M574.04,200.73 L568.61,204.54" style="stroke: rgb(252, 61, 61); stroke-opacity: 1; stroke-width: 1; fill: rgb(252, 61, 61); fill-opacity: 1;"/></g></g><g class="grouped-shape"><g class="composite-shape"><path class="real" d=" M496.52,260.21 C496.52,258.56 497.86,257.22 499.51,257.22 C501.16,257.22 502.5,258.56 502.5,260.21 C502.5,261.86 501.16,263.2 499.51,263.2 C497.86,263.2 496.52,261.86 496.52,260.21 Z" style="stroke-width: 1; stroke: rgb(255, 135, 135); stroke-opacity: 1; fill: rgb(255, 135, 135); fill-opacity: 1;"/></g><g class="arrow-line"><path class="connection real" stroke-dasharray="" d="  M499.51,263.2 L499.25,274.39" style="stroke: rgb(255, 135, 135); stroke-opacity: 1; stroke-width: 1; fill: rgb(255, 135, 135); fill-opacity: 1;"/></g><g class="arrow-line"><path class="connection real" stroke-dasharray="" d="  M499.25,274.39 L502.94,278.33" style="stroke: rgb(255, 135, 135); stroke-opacity: 1; stroke-width: 1; fill: rgb(255, 135, 135); fill-opacity: 1;"/></g><g class="arrow-line"><path class="connection real" stroke-dasharray="" d="  M499.25,274.39 L495.19,278.33" style="stroke: rgb(255, 135, 135); stroke-opacity: 1; stroke-width: 1; fill: rgb(255, 135, 135); fill-opacity: 1;"/></g><g class="arrow-line"><path class="connection real" stroke-dasharray="" d="  M499.38,266.39 L505.44,270.24" style="stroke: rgb(255, 135, 135); stroke-opacity: 1; stroke-width: 1; fill: rgb(255, 135, 135); fill-opacity: 1;"/></g><g class="arrow-line"><path class="connection real" stroke-dasharray="" d="  M499.38,266.39 L493.94,270.21" style="stroke: rgb(255, 135, 135); stroke-opacity: 1; stroke-width: 1; fill: rgb(255, 135, 135); fill-opacity: 1;"/></g></g><g class="grouped-shape"><g class="composite-shape"><path class="real" d=" M389.19,228.54 C389.19,226.9 390.53,225.56 392.18,225.56 C393.83,225.56 395.16,226.9 395.16,228.54 C395.16,230.19 393.83,231.53 392.18,231.53 C390.53,231.53 389.19,230.19 389.19,228.54 Z" style="stroke-width: 1; stroke: rgb(250, 102, 102); stroke-opacity: 1; fill: rgb(250, 102, 102); fill-opacity: 1;"/></g><g class="arrow-line"><path class="connection real" stroke-dasharray="" d="  M392.18,231.53 L391.92,242.73" style="stroke: rgb(250, 102, 102); stroke-opacity: 1; stroke-width: 1; fill: rgb(250, 102, 102); fill-opacity: 1;"/></g><g class="arrow-line"><path class="connection real" stroke-dasharray="" d="  M391.92,242.73 L395.61,246.66" style="stroke: rgb(250, 102, 102); stroke-opacity: 1; stroke-width: 1; fill: rgb(250, 102, 102); fill-opacity: 1;"/></g><g class="arrow-line"><path class="connection real" stroke-dasharray="" d="  M391.92,242.73 L387.86,246.66" style="stroke: rgb(250, 102, 102); stroke-opacity: 1; stroke-width: 1; fill: rgb(250, 102, 102); fill-opacity: 1;"/></g><g class="arrow-line"><path class="connection real" stroke-dasharray="" d="  M392.04,234.73 L398.11,238.57" style="stroke: rgb(250, 102, 102); stroke-opacity: 1; stroke-width: 1; fill: rgb(250, 102, 102); fill-opacity: 1;"/></g><g class="arrow-line"><path class="connection real" stroke-dasharray="" d="  M392.04,234.73 L386.61,238.54" style="stroke: rgb(250, 102, 102); stroke-opacity: 1; stroke-width: 1; fill: rgb(250, 102, 102); fill-opacity: 1;"/></g></g><g class="grouped-shape"><g class="composite-shape"><path class="real" d=" M427.19,259.88 C427.19,258.23 428.53,256.89 430.18,256.89 C431.83,256.89 433.16,258.23 433.16,259.88 C433.16,261.53 431.83,262.87 430.18,262.87 C428.53,262.87 427.19,261.53 427.19,259.88 Z" style="stroke-width: 1; stroke: rgb(250, 100, 100); stroke-opacity: 1; fill: rgb(250, 100, 100); fill-opacity: 1;"/></g><g class="arrow-line"><path class="connection real" stroke-dasharray="" d="  M430.18,262.87 L429.92,274.06" style="stroke: rgb(250, 100, 100); stroke-opacity: 1; stroke-width: 1; fill: rgb(250, 100, 100); fill-opacity: 1;"/></g><g class="arrow-line"><path class="connection real" stroke-dasharray="" d="  M429.92,274.06 L433.61,278" style="stroke: rgb(250, 100, 100); stroke-opacity: 1; stroke-width: 1; fill: rgb(250, 100, 100); fill-opacity: 1;"/></g><g class="arrow-line"><path class="connection real" stroke-dasharray="" d="  M429.92,274.06 L425.86,278" style="stroke: rgb(250, 100, 100); stroke-opacity: 1; stroke-width: 1; fill: rgb(250, 100, 100); fill-opacity: 1;"/></g><g class="arrow-line"><path class="connection real" stroke-dasharray="" d="  M430.04,266.06 L436.11,269.9" style="stroke: rgb(250, 100, 100); stroke-opacity: 1; stroke-width: 1; fill: rgb(250, 100, 100); fill-opacity: 1;"/></g><g class="arrow-line"><path class="connection real" stroke-dasharray="" d="  M430.04,266.06 L424.61,269.87" style="stroke: rgb(250, 100, 100); stroke-opacity: 1; stroke-width: 1; fill: rgb(250, 100, 100); fill-opacity: 1;"/></g></g><g class="grouped-shape"><g class="composite-shape"><path class="real" d=" M462.52,295.21 C462.52,293.56 463.86,292.22 465.51,292.22 C467.16,292.22 468.5,293.56 468.5,295.21 C468.5,296.86 467.16,298.2 465.51,298.2 C463.86,298.2 462.52,296.86 462.52,295.21 Z" style="stroke-width: 1; stroke: rgb(252, 205, 205); stroke-opacity: 1; fill: rgb(252, 205, 205); fill-opacity: 1;"/></g><g class="arrow-line"><path class="connection real" stroke-dasharray="" d="  M465.51,298.2 L465.25,309.39" style="stroke: rgb(252, 205, 205); stroke-opacity: 1; stroke-width: 1; fill: rgb(252, 205, 205); fill-opacity: 1;"/></g><g class="arrow-line"><path class="connection real" stroke-dasharray="" d="  M465.25,309.39 L468.94,313.33" style="stroke: rgb(252, 205, 205); stroke-opacity: 1; stroke-width: 1; fill: rgb(252, 205, 205); fill-opacity: 1;"/></g><g class="arrow-line"><path class="connection real" stroke-dasharray="" d="  M465.25,309.39 L461.19,313.33" style="stroke: rgb(252, 205, 205); stroke-opacity: 1; stroke-width: 1; fill: rgb(252, 205, 205); fill-opacity: 1;"/></g><g class="arrow-line"><path class="connection real" stroke-dasharray="" d="  M465.38,301.39 L471.44,305.24" style="stroke: rgb(252, 205, 205); stroke-opacity: 1; stroke-width: 1; fill: rgb(252, 205, 205); fill-opacity: 1;"/></g><g class="arrow-line"><path class="connection real" stroke-dasharray="" d="  M465.38,301.39 L459.94,305.21" style="stroke: rgb(252, 205, 205); stroke-opacity: 1; stroke-width: 1; fill: rgb(252, 205, 205); fill-opacity: 1;"/></g></g><g class="grouped-shape"><g class="composite-shape"><path class="real" d=" M532.52,295.21 C532.52,293.56 533.86,292.22 535.51,292.22 C537.16,292.22 538.5,293.56 538.5,295.21 C538.5,296.86 537.16,298.2 535.51,298.2 C533.86,298.2 532.52,296.86 532.52,295.21 Z" style="stroke-width: 1; stroke: rgb(252, 205, 205); stroke-opacity: 1; fill: rgb(252, 205, 205); fill-opacity: 1;"/></g><g class="arrow-line"><path class="connection real" stroke-dasharray="" d="  M535.51,298.2 L535.25,309.39" style="stroke: rgb(252, 205, 205); stroke-opacity: 1; stroke-width: 1; fill: rgb(252, 205, 205); fill-opacity: 1;"/></g><g class="arrow-line"><path class="connection real" stroke-dasharray="" d="  M535.25,309.39 L538.94,313.33" style="stroke: rgb(252, 205, 205); stroke-opacity: 1; stroke-width: 1; fill: rgb(252, 205, 205); fill-opacity: 1;"/></g><g class="arrow-line"><path class="connection real" stroke-dasharray="" d="  M535.25,309.39 L531.19,313.33" style="stroke: rgb(252, 205, 205); stroke-opacity: 1; stroke-width: 1; fill: rgb(252, 205, 205); fill-opacity: 1;"/></g><g class="arrow-line"><path class="connection real" stroke-dasharray="" d="  M535.38,301.39 L541.44,305.24" style="stroke: rgb(252, 205, 205); stroke-opacity: 1; stroke-width: 1; fill: rgb(252, 205, 205); fill-opacity: 1;"/></g><g class="arrow-line"><path class="connection real" stroke-dasharray="" d="  M535.38,301.39 L529.94,305.21" style="stroke: rgb(252, 205, 205); stroke-opacity: 1; stroke-width: 1; fill: rgb(252, 205, 205); fill-opacity: 1;"/></g></g><g class="grouped-shape"><g class="composite-shape"><path class="real" d=" M566.52,259.88 C566.52,258.23 567.86,256.89 569.51,256.89 C571.16,256.89 572.5,258.23 572.5,259.88 C572.5,261.53 571.16,262.87 569.51,262.87 C567.86,262.87 566.52,261.53 566.52,259.88 Z" style="stroke-width: 1; stroke: rgb(250, 100, 100); stroke-opacity: 1; fill: rgb(250, 100, 100); fill-opacity: 1;"/></g><g class="arrow-line"><path class="connection real" stroke-dasharray="" d="  M569.51,262.87 L569.25,274.06" style="stroke: rgb(250, 100, 100); stroke-opacity: 1; stroke-width: 1; fill: rgb(250, 100, 100); fill-opacity: 1;"/></g><g class="arrow-line"><path class="connection real" stroke-dasharray="" d="  M569.25,274.06 L572.94,278" style="stroke: rgb(250, 100, 100); stroke-opacity: 1; stroke-width: 1; fill: rgb(250, 100, 100); fill-opacity: 1;"/></g><g class="arrow-line"><path class="connection real" stroke-dasharray="" d="  M569.25,274.06 L565.19,278" style="stroke: rgb(250, 100, 100); stroke-opacity: 1; stroke-width: 1; fill: rgb(250, 100, 100); fill-opacity: 1;"/></g><g class="arrow-line"><path class="connection real" stroke-dasharray="" d="  M569.38,266.06 L575.44,269.9" style="stroke: rgb(250, 100, 100); stroke-opacity: 1; stroke-width: 1; fill: rgb(250, 100, 100); fill-opacity: 1;"/></g><g class="arrow-line"><path class="connection real" stroke-dasharray="" d="  M569.38,266.06 L563.94,269.87" style="stroke: rgb(250, 100, 100); stroke-opacity: 1; stroke-width: 1; fill: rgb(250, 100, 100); fill-opacity: 1;"/></g></g><g class="grouped-shape"><g class="composite-shape"><path class="real" d=" M355.52,262.21 C355.52,260.56 356.86,259.22 358.51,259.22 C360.16,259.22 361.5,260.56 361.5,262.21 C361.5,263.86 360.16,265.2 358.51,265.2 C356.86,265.2 355.52,263.86 355.52,262.21 Z" style="stroke-width: 1; stroke: rgb(255, 135, 135); stroke-opacity: 1; fill: rgb(255, 135, 135); fill-opacity: 1;"/></g><g class="arrow-line"><path class="connection real" stroke-dasharray="" d="  M358.51,265.2 L358.25,276.39" style="stroke: rgb(255, 135, 135); stroke-opacity: 1; stroke-width: 1; fill: rgb(255, 135, 135); fill-opacity: 1;"/></g><g class="arrow-line"><path class="connection real" stroke-dasharray="" d="  M358.25,276.39 L361.94,280.33" style="stroke: rgb(255, 135, 135); stroke-opacity: 1; stroke-width: 1; fill: rgb(255, 135, 135); fill-opacity: 1;"/></g><g class="arrow-line"><path class="connection real" stroke-dasharray="" d="  M358.25,276.39 L354.19,280.33" style="stroke: rgb(255, 135, 135); stroke-opacity: 1; stroke-width: 1; fill: rgb(255, 135, 135); fill-opacity: 1;"/></g><g class="arrow-line"><path class="connection real" stroke-dasharray="" d="  M358.38,268.39 L364.44,272.24" style="stroke: rgb(255, 135, 135); stroke-opacity: 1; stroke-width: 1; fill: rgb(255, 135, 135); fill-opacity: 1;"/></g><g class="arrow-line"><path class="connection real" stroke-dasharray="" d="  M358.38,268.39 L352.94,272.21" style="stroke: rgb(255, 135, 135); stroke-opacity: 1; stroke-width: 1; fill: rgb(255, 135, 135); fill-opacity: 1;"/></g></g><g class="grouped-shape"><g class="composite-shape"><path class="real" d=" M392.52,294.21 C392.52,292.56 393.86,291.22 395.51,291.22 C397.16,291.22 398.5,292.56 398.5,294.21 C398.5,295.86 397.16,297.2 395.51,297.2 C393.86,297.2 392.52,295.86 392.52,294.21 Z" style="stroke-width: 1; stroke: rgb(250, 157, 157); stroke-opacity: 1; fill: rgb(250, 157, 157); fill-opacity: 1;"/></g><g class="arrow-line"><path class="connection real" stroke-dasharray="" d="  M395.51,297.2 L395.25,308.39" style="stroke: rgb(250, 157, 157); stroke-opacity: 1; stroke-width: 1; fill: rgb(250, 157, 157); fill-opacity: 1;"/></g><g class="arrow-line"><path class="connection real" stroke-dasharray="" d="  M395.25,308.39 L398.94,312.33" style="stroke: rgb(250, 157, 157); stroke-opacity: 1; stroke-width: 1; fill: rgb(250, 157, 157); fill-opacity: 1;"/></g><g class="arrow-line"><path class="connection real" stroke-dasharray="" d="  M395.25,308.39 L391.19,312.33" style="stroke: rgb(250, 157, 157); stroke-opacity: 1; stroke-width: 1; fill: rgb(250, 157, 157); fill-opacity: 1;"/></g><g class="arrow-line"><path class="connection real" stroke-dasharray="" d="  M395.38,300.39 L401.44,304.24" style="stroke: rgb(250, 157, 157); stroke-opacity: 1; stroke-width: 1; fill: rgb(250, 157, 157); fill-opacity: 1;"/></g><g class="arrow-line"><path class="connection real" stroke-dasharray="" d="  M395.38,300.39 L389.94,304.21" style="stroke: rgb(250, 157, 157); stroke-opacity: 1; stroke-width: 1; fill: rgb(250, 157, 157); fill-opacity: 1;"/></g></g><g class="grouped-shape"><g class="composite-shape"><path class="real" d=" M603.19,294.54 C603.19,292.9 604.53,291.56 606.18,291.56 C607.83,291.56 609.16,292.9 609.16,294.54 C609.16,296.19 607.83,297.53 606.18,297.53 C604.53,297.53 603.19,296.19 603.19,294.54 Z" style="stroke-width: 1; stroke: rgb(250, 157, 157); stroke-opacity: 1; fill: rgb(250, 157, 157); fill-opacity: 1;"/></g><g class="arrow-line"><path class="connection real" stroke-dasharray="" d="  M606.18,297.53 L605.92,308.73" style="stroke: rgb(250, 157, 157); stroke-opacity: 1; stroke-width: 1; fill: rgb(250, 157, 157); fill-opacity: 1;"/></g><g class="arrow-line"><path class="connection real" stroke-dasharray="" d="  M605.92,308.73 L609.61,312.66" style="stroke: rgb(250, 157, 157); stroke-opacity: 1; stroke-width: 1; fill: rgb(250, 157, 157); fill-opacity: 1;"/></g><g class="arrow-line"><path class="connection real" stroke-dasharray="" d="  M605.92,308.73 L601.86,312.66" style="stroke: rgb(250, 157, 157); stroke-opacity: 1; stroke-width: 1; fill: rgb(250, 157, 157); fill-opacity: 1;"/></g><g class="arrow-line"><path class="connection real" stroke-dasharray="" d="  M606.04,300.73 L612.11,304.57" style="stroke: rgb(250, 157, 157); stroke-opacity: 1; stroke-width: 1; fill: rgb(250, 157, 157); fill-opacity: 1;"/></g><g class="arrow-line"><path class="connection real" stroke-dasharray="" d="  M606.04,300.73 L600.61,304.54" style="stroke: rgb(250, 157, 157); stroke-opacity: 1; stroke-width: 1; fill: rgb(250, 157, 157); fill-opacity: 1;"/></g></g><g class="grouped-shape"><g class="composite-shape"><path class="real" d=" M607.86,229.88 C607.86,228.23 609.19,226.89 610.84,226.89 C612.49,226.89 613.83,228.23 613.83,229.88 C613.83,231.53 612.49,232.87 610.84,232.87 C609.19,232.87 607.86,231.53 607.86,229.88 Z" style="stroke-width: 1; stroke: rgb(250, 102, 102); stroke-opacity: 1; fill: rgb(250, 102, 102); fill-opacity: 1;"/></g><g class="arrow-line"><path class="connection real" stroke-dasharray="" d="  M610.84,232.87 L610.59,244.06" style="stroke: rgb(250, 102, 102); stroke-opacity: 1; stroke-width: 1; fill: rgb(250, 102, 102); fill-opacity: 1;"/></g><g class="arrow-line"><path class="connection real" stroke-dasharray="" d="  M610.59,244.06 L614.27,248" style="stroke: rgb(250, 102, 102); stroke-opacity: 1; stroke-width: 1; fill: rgb(250, 102, 102); fill-opacity: 1;"/></g><g class="arrow-line"><path class="connection real" stroke-dasharray="" d="  M610.59,244.06 L606.52,248" style="stroke: rgb(250, 102, 102); stroke-opacity: 1; stroke-width: 1; fill: rgb(250, 102, 102); fill-opacity: 1;"/></g><g class="arrow-line"><path class="connection real" stroke-dasharray="" d="  M610.71,236.06 L616.77,239.9" style="stroke: rgb(250, 102, 102); stroke-opacity: 1; stroke-width: 1; fill: rgb(250, 102, 102); fill-opacity: 1;"/></g><g class="arrow-line"><path class="connection real" stroke-dasharray="" d="  M610.71,236.06 L605.27,239.87" style="stroke: rgb(250, 102, 102); stroke-opacity: 1; stroke-width: 1; fill: rgb(250, 102, 102); fill-opacity: 1;"/></g></g><g class="grouped-shape"><g class="composite-shape"><path class="real" d=" M640.86,265.21 C640.86,263.56 642.19,262.22 643.84,262.22 C645.49,262.22 646.83,263.56 646.83,265.21 C646.83,266.86 645.49,268.2 643.84,268.2 C642.19,268.2 640.86,266.86 640.86,265.21 Z" style="stroke-width: 1; stroke: rgb(255, 135, 135); stroke-opacity: 1; fill: rgb(255, 135, 135); fill-opacity: 1;"/></g><g class="arrow-line"><path class="connection real" stroke-dasharray="" d="  M643.84,268.2 L643.59,279.39" style="stroke: rgb(255, 135, 135); stroke-opacity: 1; stroke-width: 1; fill: rgb(255, 135, 135); fill-opacity: 1;"/></g><g class="arrow-line"><path class="connection real" stroke-dasharray="" d="  M643.59,279.39 L647.27,283.33" style="stroke: rgb(255, 135, 135); stroke-opacity: 1; stroke-width: 1; fill: rgb(255, 135, 135); fill-opacity: 1;"/></g><g class="arrow-line"><path class="connection real" stroke-dasharray="" d="  M643.59,279.39 L639.52,283.33" style="stroke: rgb(255, 135, 135); stroke-opacity: 1; stroke-width: 1; fill: rgb(255, 135, 135); fill-opacity: 1;"/></g><g class="arrow-line"><path class="connection real" stroke-dasharray="" d="  M643.71,271.39 L649.77,275.24" style="stroke: rgb(255, 135, 135); stroke-opacity: 1; stroke-width: 1; fill: rgb(255, 135, 135); fill-opacity: 1;"/></g><g class="arrow-line"><path class="connection real" stroke-dasharray="" d="  M643.71,271.39 L638.27,275.21" style="stroke: rgb(255, 135, 135); stroke-opacity: 1; stroke-width: 1; fill: rgb(255, 135, 135); fill-opacity: 1;"/></g></g></g><g class="grouped-shape"><g class="arrow-line"><path class="connection real" stroke-dasharray="" d="  M35.91,117.74 L34.6,307.41" style="stroke: rgb(0, 0, 0); stroke-width: 1; fill: none; fill-opacity: 1;"/><g stroke="none" fill="#000" transform="matrix(0.006981260297960934,-0.9999756307053947,0.9999756307053947,0.006981260297960934,34.577779134114564,310.4111124674479)" style="stroke: none; fill: rgb(0, 0, 0); stroke-width: 1;"><path d=" M10.72,-5.15 L0,0 L10.72,5.15 L7.12,0 Z"/></g></g></g><g class="arrow-line"><path class="connection real" stroke-dasharray="6 6" d="  M342.24,47.24 L342.24,343.91" style="stroke: rgb(0, 0, 0); stroke-width: 1; fill: none; fill-opacity: 1;"/></g><g/></g><g/><g/><g/></svg>
        <svg xmlns="http://www.w3.org/2000/svg" xmlns:xlink="http://www.w3.org/1999/xlink" width="660" height="392.5" style="width:660px;height:392.5px;font-family:Asana-Math, Asana;background:transparent;"><g transform="matrix(-0.0036651832230568167,0.999993283193413,-0.999993283193413,-0.0036651832230568167,235.0650342444001,191.90606356736401)"><g><g><text x="-0.576416015625" y="204.3333282470703" style="white-space:pre;stroke:none;fill:rgb(0,0,0);fill-opacity:1;font-size:15px;font-family:Arial, Helvetica, sans-serif;font-weight:400;font-style:normal;dominant-baseline:text-before-edge;text-decoration:none solid rgb(0, 0, 0);">Tempo</text></g></g></g><g><g><g><text x="159.88885498046875" y="55.666656494140625" style="white-space:pre;stroke:none;fill:rgb(0,0,0);fill-opacity:1;font-size:15px;font-family:Arial, Helvetica, sans-serif;font-weight:400;font-style:normal;dominant-baseline:text-before-edge;text-decoration:none solid rgb(0, 0, 0);">Clássico</text></g></g></g><g><g><g><text x="469.888916015625" y="55" style="white-space:pre;stroke:none;fill:rgb(0,0,0);fill-opacity:1;font-size:15px;font-family:Arial, Helvetica, sans-serif;font-weight:400;font-style:normal;dominant-baseline:text-before-edge;text-decoration:none solid rgb(0, 0, 0);">Quântico</text></g></g></g></svg>
</svg>
