<svg xmlns="http://www.w3.org/2000/svg" xmlns:xlink="http://www.w3.org/1999/xlink" x="0" y="0" width="581.7777709960938" height="358.5416564941406" style="
        width:581.7777709960938px;
        height:358.5416564941406px;
        background: transparent;
        fill: none;
">
        
        
        <svg xmlns="http://www.w3.org/2000/svg" class="role-diagram-draw-area"><g class="shapes-region" style="stroke: black; fill: none;"><g class="arrow-line"><path class="connection real" stroke-dasharray="" d="  M81.01,268.25 L148.24,267.45" style="stroke: rgb(0, 0, 0); stroke-width: 1; fill: none; fill-opacity: 1;"/><g stroke="none" fill="#000" transform="matrix(-0.9999274866995999,0.012042480750311954,-0.012042480750311954,-0.9999274866995999,151.24444580078122,267.41111246744794)" style="stroke: none; fill: rgb(0, 0, 0); stroke-width: 1;"><path d=" M8.93,-4.29 L0,0 L8.93,4.29 Z"/></g></g><g class="arrow-line"><path class="connection real" stroke-dasharray="" d="  M218.63,250.63 L260.92,221.05" style="stroke: rgb(0, 0, 0); stroke-width: 1; fill: none; fill-opacity: 1;"/><g stroke="none" fill="#000" transform="matrix(-0.819452255907465,0.5731474507386094,-0.5731474507386094,-0.819452255907465,263.375,219.33333333333331)" style="stroke: none; fill: rgb(0, 0, 0); stroke-width: 1;"><path d=" M8.93,-4.29 L0,0 L8.93,4.29 Z"/></g></g><g class="arrow-line"><path class="connection real" stroke-dasharray="" d="  M220.63,283.63 L263.89,302.91" style="stroke: rgb(0, 0, 0); stroke-width: 1; fill: none; fill-opacity: 1;"/><g stroke="none" fill="#000" transform="matrix(-0.9134034241169089,-0.40705550581156164,0.40705550581156164,-0.9134034241169089,266.62890625,304.12890625)" style="stroke: none; fill: rgb(0, 0, 0); stroke-width: 1;"><path d=" M8.93,-4.29 L0,0 L8.93,4.29 Z"/></g></g><g class="arrow-line"><path class="connection real" stroke-dasharray="" d="  M343.63,184.13 L404.1,170.73" style="stroke: rgb(0, 0, 0); stroke-width: 1; fill: none; fill-opacity: 1;"/><g stroke="none" fill="#000" transform="matrix(-0.9762960071199331,0.21643961393810385,-0.21643961393810385,-0.9762960071199331,407.0284667968751,170.07777913411456)" style="stroke: none; fill: rgb(0, 0, 0); stroke-width: 1;"><path d=" M8.93,-4.29 L0,0 L8.93,4.29 Z"/></g></g><g class="arrow-line"><path class="connection real" stroke-dasharray="" d="  M394.58,262.41 L439.58,261.16" style="stroke: rgb(0, 0, 0); stroke-width: 1; fill: none; fill-opacity: 1;"/><g stroke="none" fill="#000" transform="matrix(-0.9996149730606798,0.02774717342174635,-0.02774717342174635,-0.9996149730606798,442.57777913411456,261.0777791341146)" style="stroke: none; fill: rgb(0, 0, 0); stroke-width: 1;"><path d=" M8.93,-4.29 L0,0 L8.93,4.29 Z"/></g></g><g class="arrow-line"><path class="connection real" stroke-dasharray="" d="  M346.38,201.33 L394.58,201.33" style="stroke: rgb(0, 0, 0); stroke-width: 1; fill: none; fill-opacity: 1;"/></g><g class="arrow-line"><path class="connection real" stroke-dasharray="" d="  M394.58,201.33 L394.58,243.41" style="stroke: rgb(0, 0, 0); stroke-width: 1; fill: none; fill-opacity: 1;"/></g><g class="arrow-line"><path class="connection real" stroke-dasharray="" d="  M352.04,316.75 L394.58,316.75" style="stroke: rgb(0, 0, 0); stroke-width: 1; fill: none; fill-opacity: 1;"/></g><g class="arrow-line"><path class="connection real" stroke-dasharray="" d="  M394.58,243.41 L394.58,316.75" style="stroke: rgb(0, 0, 0); stroke-width: 1; fill: none; fill-opacity: 1;"/></g><g class="composite-shape"><path class="real" d=" M11,255 C11,250.58 14.58,247 19,247 L73,247 C77.42,247 81,250.58 81,255 L81,279 C81,283.42 77.42,287 73,287 L19,287 C14.58,287 11,283.42 11,279 Z" style="stroke-width: 1; stroke: rgb(147, 112, 219); stroke-opacity: 1; fill: rgb(236, 236, 255); fill-opacity: 1;"/></g><g class="composite-shape"><path class="real" d=" M151,256 C151,251.58 154.58,248 159,248 L213,248 C217.42,248 221,251.58 221,256 L221,280 C221,284.42 217.42,288 213,288 L159,288 C154.58,288 151,284.42 151,280 Z" style="stroke-width: 1; stroke: rgb(147, 112, 219); stroke-opacity: 1; fill: rgb(236, 236, 255); fill-opacity: 1;"/></g><g class="composite-shape"><path class="real" d=" M261,189.13 C261,184.91 264.41,181.5 268.63,181.5 L339,181.5 C343.21,181.5 346.63,184.91 346.63,189.13 L346.63,212 C346.63,216.21 343.21,219.63 339,219.63 L268.63,219.63 C264.41,219.63 261,216.21 261,212 Z" style="stroke-width: 1; stroke: rgb(147, 112, 219); stroke-opacity: 1; fill: rgb(236, 236, 255); fill-opacity: 1;"/></g><g class="composite-shape"><path class="real" d=" M266,306.63 C266,302.41 269.41,299 273.63,299 L344,299 C348.21,299 351.63,302.41 351.63,306.63 L351.63,329.5 C351.63,333.71 348.21,337.13 344,337.13 L273.63,337.13 C269.41,337.13 266,333.71 266,329.5 Z" style="stroke-width: 1; stroke: rgb(147, 112, 219); stroke-opacity: 1; fill: rgb(236, 236, 255); fill-opacity: 1;"/></g><g class="composite-shape"><path class="real" d=" M401.01,136.1 C401.01,132.77 403.7,130.08 407.03,130.08 L425.09,130.08 C428.42,130.08 431.11,132.77 431.11,136.1 L431.11,164.06 C431.11,167.38 428.42,170.08 425.09,170.08 L407.03,170.08 C403.7,170.08 401.01,167.38 401.01,164.06 Z" style="stroke-width: 1; stroke: rgb(147, 112, 219); stroke-opacity: 1; fill: rgb(236, 236, 255); fill-opacity: 1;"/></g><g class="composite-shape"><path class="real" d=" M444,249.3 C444,245.06 447.44,241.63 451.67,241.63 L560.45,241.63 C564.69,241.63 568.13,245.06 568.13,249.3 L568.13,272.33 C568.13,276.56 564.69,280 560.45,280 L451.67,280 C447.44,280 444,276.56 444,272.33 Z" style="stroke-width: 1; stroke: rgb(147, 112, 219); stroke-opacity: 1; fill: rgb(236, 236, 255); fill-opacity: 1;"/></g><g class="grouped-shape"><g class="composite-shape"><path class="real" d=" M249,61.13 C249,56.91 252.41,53.5 256.63,53.5 L327,53.5 C331.21,53.5 334.63,56.91 334.63,61.13 L334.63,84 C334.63,88.21 331.21,91.63 327,91.63 L256.63,91.63 C252.41,91.63 249,88.21 249,84 Z" style="stroke-width: 1; stroke: rgb(147, 112, 219); stroke-opacity: 1; fill: rgb(236, 236, 255); fill-opacity: 1;"/></g></g><g class="composite-shape"><path class="real" d=" M416.11,56.99 C416.11,51.66 420.44,47.33 425.77,47.33 L558.45,47.33 C563.79,47.33 568.11,51.66 568.11,56.99 L568.11,85.97 C568.11,91.3 563.79,95.63 558.45,95.63 L425.77,95.63 C420.44,95.63 416.11,91.3 416.11,85.97 Z" style="stroke-width: 1; stroke: rgb(147, 112, 219); stroke-opacity: 1; fill: rgb(236, 236, 255); fill-opacity: 1;"/></g><g class="arrow-line"><path class="connection real" stroke-dasharray="" d="  M334.63,72.13 L413.11,72.33" style="stroke: rgb(0, 0, 0); stroke-width: 1; fill: none; fill-opacity: 1;"/><g stroke="none" fill="#000" transform="matrix(-0.9999970147507714,-0.0024434585213446614,0.0024434585213446614,-0.9999970147507714,416.111083984375,72.33332824707031)" style="stroke: none; fill: rgb(0, 0, 0); stroke-width: 1;"><path d=" M8.93,-4.29 L0,0 L8.93,4.29 Z"/></g></g><g/></g><g/><g/><g/></svg>
        <svg xmlns="http://www.w3.org/2000/svg" xmlns:xlink="http://www.w3.org/1999/xlink" width="580" height="356.7638854980469" style="width:580px;height:356.7638854980469px;font-family:Asana-Math, Asana;background:transparent;"><g><g><g><text x="26.44439697265625" y="259.2777862548828" style="white-space:pre;stroke:none;fill:rgb(0,0,0);fill-opacity:1;font-size:15px;font-family:Arial, Helvetica, sans-serif;font-weight:400;font-style:normal;dominant-baseline:text-before-edge;text-decoration:none solid rgb(0, 0, 0);">Rede</text></g></g></g><g><g><g><text x="159.1875" y="260.05555725097656" style="white-space:pre;stroke:none;fill:rgb(0,0,0);fill-opacity:1;font-size:15px;font-family:Arial, Helvetica, sans-serif;font-weight:400;font-style:normal;dominant-baseline:text-before-edge;text-decoration:none solid rgb(0, 0, 0);">Matriz </text></g><g><g><g><g><g transform="matrix(1,0,0,1,204.1875,273.49998474121094)"><path transform="matrix(0.017,0,0,-0.017,0,0)" d="M565 0C572 43 576 75 586 172L554 172C548 143 526 62 520 57C511 49 424 44 331 44C292 44 252 45 216 47L216 569C216 648 221 656 267 659L315 662L315 692C242 689 220 689 168 689C118 689 94 690 22 692L22 662L70 659C116 656 121 648 121 569L121 95C121 66 112 44 96 36L65 20L65 -3C131 0 138 0 164 0C187 0 304 -3 397 -3C429 -3 429 -3 565 0Z" stroke="rgb(0,0,0)" stroke-opacity="1" stroke-width="24" fill="rgb(0,0,0)" fill-opacity="1"></path></g></g></g></g></g></g></g><g><g><g><text x="265.27777099609375" y="192.48609924316406" style="white-space:pre;stroke:none;fill:rgb(0,0,0);fill-opacity:1;font-size:15px;font-family:Arial, Helvetica, sans-serif;font-weight:400;font-style:normal;dominant-baseline:text-before-edge;text-decoration:none solid rgb(0, 0, 0);">Autovalores</text></g></g></g><g><g><g><text x="268.52777099609375" y="310.1527862548828" style="white-space:pre;stroke:none;fill:rgb(0,0,0);fill-opacity:1;font-size:15px;font-family:Arial, Helvetica, sans-serif;font-weight:400;font-style:normal;dominant-baseline:text-before-edge;text-decoration:none solid rgb(0, 0, 0);">Autovetores</text></g></g></g><g><g><g><g><g><g><g><g><g><g transform="matrix(1,0,0,1,410.9305419921875,154.65359924316405)"><path transform="matrix(0.024480000000000002,0,0,-0.024480000000000002,0,0)" d="M176 -11C232 -11 347 62 390 125C431 186 465 296 465 371C465 438 442 482 406 482C364 482 311 456 259 409C218 374 198 348 162 289L186 408C189 425 191 440 191 452C191 471 183 482 169 482C148 482 110 461 36 408L8 388L15 368L47 389C75 407 86 412 95 412C105 412 112 403 112 389C112 381 110 361 108 351L50 8C40 -52 21 -143 1 -233L-7 -270L0 -276C21 -269 41 -264 73 -259L115 3C136 -4 158 -11 176 -11ZM143 165C165 293 272 424 355 424C381 424 393 402 393 356C393 275 353 156 300 80C280 51 248 36 207 36C176 36 151 43 125 59Z" stroke="rgb(0,0,0)" stroke-opacity="1" stroke-width="0" fill="rgb(0,0,0)" fill-opacity="1"></path></g></g></g></g><svg xmlns="http://www.w3.org/2000/svg" x="410.9305419921875" y="135.04859924316406" height="8" width="12.236111640930176"><defs><clipPath id="ccp0.06160414541101278"><rect x="-0.5" y="-0.5" width="12.736111640930176" height="8.5"></rect></clipPath></defs><g clip-path="url(#ccp0.06160414541101278)"><svg xmlns="http://www.w3.org/2000/svg" x="0" y="0" height="29.375" width="24.48611068725586"><defs><clipPath id="ccp0.4262391792152762"><rect x="-0.5" y="-0.5" width="24.98611068725586" height="29.875"></rect></clipPath></defs><g clip-path="url(#ccp0.4262391792152762)"><g><g transform="matrix(1,0,0,1,0,24.48)"><path transform="matrix(0.024480000000000002,0,0,-0.024480000000000002,0,0)" d="M-877 790L1877 790L1877 850L-877 850Z" stroke="rgb(0,0,0)" stroke-opacity="1" stroke-width="0" fill="rgb(0,0,0)" fill-opacity="1"></path></g></g></g></svg></g></svg></g></g></g></g><g><text x="424.388916015625" y="135.50694274902344" style="white-space:pre;stroke:none;fill:rgb(0,0,0);fill-opacity:1;font-size:21.6px;font-family:Arial, Helvetica, sans-serif;font-weight:400;font-style:normal;dominant-baseline:text-before-edge;text-decoration:none solid rgb(0, 0, 0);"> </text></g></g></g><g><g><g><text x="452.75" y="249.69444274902344" style="white-space:pre;stroke:none;fill:rgb(0,0,0);fill-opacity:1;font-size:21.6px;font-family:Arial, Helvetica, sans-serif;font-weight:400;font-style:normal;dominant-baseline:text-before-edge;text-decoration:none solid rgb(0, 0, 0);"> </text></g><g><g><g><g><g><g><g><g transform="matrix(1,0,0,1,459.986083984375,268.8410992431641)"><path transform="matrix(0.024480000000000002,0,0,-0.024480000000000002,0,0)" d="M525 42C469 42 464 125 465 166C466 251 494 333 537 405L599 418C602 435 608 452 613 467C459 461 300 463 145 466C80 467 66 389 47 340C46 332 59 331 63 328L63 332C106 395 130 405 205 405L228 405C188 266 161 129 98 -2L98 -12C118 -6 153 1 170 13C211 141 240 274 268 405L495 405C438 318 397 213 395 108C395 59 410 -15 471 -15C512 -15 568 25 598 51L598 66L586 66L586 67C568 56 548 42 525 42Z" stroke="rgb(0,0,0)" stroke-opacity="1" stroke-width="0" fill="rgb(0,0,0)" fill-opacity="1"></path></g></g></g></g><svg xmlns="http://www.w3.org/2000/svg" x="459.986083984375" y="249.23609924316406" height="8" width="15.986111640930176"><defs><clipPath id="ccp0.6592330918931983"><rect x="-0.5" y="-0.5" width="16.486111640930176" height="8.5"></rect></clipPath></defs><g clip-path="url(#ccp0.6592330918931983)"><svg xmlns="http://www.w3.org/2000/svg" x="0" y="0" height="29.375" width="24.48611068725586"><defs><clipPath id="ccp0.14897462595812594"><rect x="-0.5" y="-0.5" width="24.98611068725586" height="29.875"></rect></clipPath></defs><g clip-path="url(#ccp0.14897462595812594)"><g><g transform="matrix(1,0,0,1,0,24.48)"><path transform="matrix(0.024480000000000002,0,0,-0.024480000000000002,0,0)" d="M-877 790L1877 790L1877 850L-877 850Z" stroke="rgb(0,0,0)" stroke-opacity="1" stroke-width="0" fill="rgb(0,0,0)" fill-opacity="1"></path></g></g></g></svg></g></svg></g></g></g></g><g><text x="477.1944580078125" y="249.69444274902344" style="white-space:pre;stroke:none;fill:rgb(0,0,0);fill-opacity:1;font-size:21.6px;font-family:Arial, Helvetica, sans-serif;font-weight:400;font-style:normal;dominant-baseline:text-before-edge;text-decoration:none solid rgb(0, 0, 0);">,  </text></g><g><g><g><g><g><g><g><g transform="matrix(1,0,0,1,496.4305419921875,268.8410992431641)"><path transform="matrix(0.024480000000000002,0,0,-0.024480000000000002,0,0)" d="M314 216C363 260 522 416 601 434L601 444C587 458 568 469 548 479C469 402 386 320 310 239C295 410 294 473 232 473C186 473 144 434 114 405L114 391L128 391L128 392C237 502 248 262 259 183C161 83 69 -32 -1 -152C7 -167 18 -182 32 -193L43 -193C102 -72 182 42 262 151C280 -26 285 -172 371 -172C418 -172 461 -136 495 -107L495 -96L484 -96C327 -207 332 124 314 216Z" stroke="rgb(0,0,0)" stroke-opacity="1" stroke-width="0" fill="rgb(0,0,0)" fill-opacity="1"></path></g></g></g></g><svg xmlns="http://www.w3.org/2000/svg" x="496.4305419921875" y="249.23609924316406" height="8" width="14.88888931274414"><defs><clipPath id="ccp0.9103106701786832"><rect x="-0.5" y="-0.5" width="15.38888931274414" height="8.5"></rect></clipPath></defs><g clip-path="url(#ccp0.9103106701786832)"><svg xmlns="http://www.w3.org/2000/svg" x="0" y="0" height="29.375" width="24.48611068725586"><defs><clipPath id="ccp0.05819813012989661"><rect x="-0.5" y="-0.5" width="24.98611068725586" height="29.875"></rect></clipPath></defs><g clip-path="url(#ccp0.05819813012989661)"><g><g transform="matrix(1,0,0,1,0,24.48)"><path transform="matrix(0.024480000000000002,0,0,-0.024480000000000002,0,0)" d="M-877 790L1877 790L1877 850L-877 850Z" stroke="rgb(0,0,0)" stroke-opacity="1" stroke-width="0" fill="rgb(0,0,0)" fill-opacity="1"></path></g></g></g></svg></g></svg></g><g><g transform="matrix(1,0,0,1,512.5416259765625,268.8410992431641)"><path transform="matrix(0.024480000000000002,0,0,-0.024480000000000002,0,0)" d="M204 123C177 114 159 108 106 93C99 17 74 -48 16 -144L30 -155L71 -136C152 -31 190 32 218 109Z" stroke="rgb(0,0,0)" stroke-opacity="1" stroke-width="0" fill="rgb(0,0,0)" fill-opacity="1"></path></g></g><g><g transform="matrix(1,0,0,1,523.5277099609375,268.8410992431641)"><path transform="matrix(0.024480000000000002,0,0,-0.024480000000000002,0,0)" d="M525 42C469 42 464 125 465 166C466 251 494 333 537 405L599 418C602 435 608 452 613 467C459 461 300 463 145 466C80 467 66 389 47 340C46 332 59 331 63 328L63 332C106 395 130 405 205 405L228 405C188 266 161 129 98 -2L98 -12C118 -6 153 1 170 13C211 141 240 274 268 405L495 405C438 318 397 213 395 108C395 59 410 -15 471 -15C512 -15 568 25 598 51L598 66L586 66L586 67C568 56 548 42 525 42Z" stroke="rgb(0,0,0)" stroke-opacity="1" stroke-width="0" fill="rgb(0,0,0)" fill-opacity="1"></path></g></g><g><g><g><g><g transform="matrix(1,0,0,1,540.236083984375,274.0526717529297)"><path transform="matrix(0.017136,0,0,-0.017136,0,0)" d="M271 204L242 77C238 60 236 42 236 26C236 4 245 -9 260 -9C283 -9 324 17 406 85L399 106C375 86 346 59 324 59C315 59 309 68 309 82C309 87 309 90 310 93L402 472L392 481L359 463C318 478 301 482 274 482C246 482 226 477 199 464C137 433 104 403 79 354C35 265 4 145 4 67C4 23 19 -11 38 -11C75 -11 155 41 271 204ZM319 414C297 305 278 253 244 201C187 117 126 59 94 59C82 59 76 72 76 99C76 163 104 280 139 360C163 415 186 433 234 433C257 433 275 429 319 414ZM647 123C620 114 602 108 549 93C542 17 517 -48 459 -144L473 -155L514 -136C595 -31 633 32 661 109ZM927 722L915 733C863 707 827 698 755 691L751 670L799 670C823 670 833 663 833 646C833 639 832 628 831 622L730 71C729 68 729 64 729 61C729 22 777 -11 832 -11C869 -11 920 8 963 39C1059 107 1125 244 1125 376C1125 414 1116 453 1104 468C1097 477 1084 482 1069 482C1045 482 1015 474 987 460C936 433 903 403 841 324ZM1014 424C1040 424 1053 401 1053 352C1053 288 1032 202 1002 137C969 68 929 36 875 36C829 36 804 59 804 101C804 135 819 276 900 361C933 395 985 424 1014 424Z" stroke="rgb(0,0,0)" stroke-opacity="1" stroke-width="0" fill="rgb(0,0,0)" fill-opacity="1"></path></g></g></g></g></g></g></g></g></g></g><g><g><g><g><g><g><g><g><g><g transform="matrix(1,0,0,1,431.763916015625,77.80638549804688)"><path transform="matrix(0.024480000000000002,0,0,-0.024480000000000002,0,0)" d="M176 -11C232 -11 347 62 390 125C431 186 465 296 465 371C465 438 442 482 406 482C364 482 311 456 259 409C218 374 198 348 162 289L186 408C189 425 191 440 191 452C191 471 183 482 169 482C148 482 110 461 36 408L8 388L15 368L47 389C75 407 86 412 95 412C105 412 112 403 112 389C112 381 110 361 108 351L50 8C40 -52 21 -143 1 -233L-7 -270L0 -276C21 -269 41 -264 73 -259L115 3C136 -4 158 -11 176 -11ZM143 165C165 293 272 424 355 424C381 424 393 402 393 356C393 275 353 156 300 80C280 51 248 36 207 36C176 36 151 43 125 59Z" stroke="rgb(0,0,0)" stroke-opacity="1" stroke-width="0" fill="rgb(0,0,0)" fill-opacity="1"></path></g></g></g></g><svg xmlns="http://www.w3.org/2000/svg" x="431.763916015625" y="58.201385498046875" height="8" width="12.236111640930176"><defs><clipPath id="ccp0.3292117953647995"><rect x="-0.5" y="-0.5" width="12.736111640930176" height="8.5"></rect></clipPath></defs><g clip-path="url(#ccp0.3292117953647995)"><svg xmlns="http://www.w3.org/2000/svg" x="0" y="0" height="29.375" width="24.48611068725586"><defs><clipPath id="ccp0.8289650883467066"><rect x="-0.5" y="-0.5" width="24.98611068725586" height="29.875"></rect></clipPath></defs><g clip-path="url(#ccp0.8289650883467066)"><g><g transform="matrix(1,0,0,1,0,24.48)"><path transform="matrix(0.024480000000000002,0,0,-0.024480000000000002,0,0)" d="M-877 790L1877 790L1877 850L-877 850Z" stroke="rgb(0,0,0)" stroke-opacity="1" stroke-width="0" fill="rgb(0,0,0)" fill-opacity="1"></path></g></g></g></svg></g></svg></g><g><g transform="matrix(1,0,0,1,445.22216796875,77.80638549804688)"><path transform="matrix(0.024480000000000002,0,0,-0.024480000000000002,0,0)" d="M204 123C177 114 159 108 106 93C99 17 74 -48 16 -144L30 -155L71 -136C152 -31 190 32 218 109Z" stroke="rgb(0,0,0)" stroke-opacity="1" stroke-width="0" fill="rgb(0,0,0)" fill-opacity="1"></path></g></g><g><g transform="matrix(1,0,0,1,456.2083740234375,77.80638549804688)"><path transform="matrix(0.024480000000000002,0,0,-0.024480000000000002,0,0)" d="M179.50274 -172L179.50274 713L120.50274 713L120.50274 -172Z" stroke="rgb(0,0,0)" stroke-opacity="1" stroke-width="0" fill="rgb(0,0,0)" fill-opacity="1"></path></g></g><g><g><g><g><g transform="matrix(1,0,0,1,464.7777099609375,77.80638549804688)"><path transform="matrix(0.024480000000000002,0,0,-0.024480000000000002,0,0)" d="M400 -16C446 -16 513 54 545 84L545 97L532 97C513 79 489 55 462 55C417 55 424 184 424 216C474 278 520 343 558 413C551 428 544 444 536 459L525 459C511 391 456 315 420 257C422 336 445 472 332 473C164 473 27 243 24 93C23 33 43 -16 111 -16C203 -16 297 64 357 131C357 96 348 -15 400 -16ZM284 437C371 437 358 224 357 164C314 113 233 28 162 28C109 28 98 70 99 115C100 202 175 437 284 437Z" stroke="rgb(0,0,0)" stroke-opacity="1" stroke-width="0" fill="rgb(0,0,0)" fill-opacity="1"></path></g></g></g></g><svg xmlns="http://www.w3.org/2000/svg" x="464.7777099609375" y="58.201385498046875" height="8" width="14.541666984558105"><defs><clipPath id="ccp0.5283822409775574"><rect x="-0.5" y="-0.5" width="15.041666984558105" height="8.5"></rect></clipPath></defs><g clip-path="url(#ccp0.5283822409775574)"><svg xmlns="http://www.w3.org/2000/svg" x="0" y="0" height="29.375" width="24.48611068725586"><defs><clipPath id="ccp0.7558729342662378"><rect x="-0.5" y="-0.5" width="24.98611068725586" height="29.875"></rect></clipPath></defs><g clip-path="url(#ccp0.7558729342662378)"><g><g transform="matrix(1,0,0,1,0,24.48)"><path transform="matrix(0.024480000000000002,0,0,-0.024480000000000002,0,0)" d="M-877 790L1877 790L1877 850L-877 850Z" stroke="rgb(0,0,0)" stroke-opacity="1" stroke-width="0" fill="rgb(0,0,0)" fill-opacity="1"></path></g></g></g></svg></g></svg></g><g><g transform="matrix(1,0,0,1,480.5416259765625,78.69527099609375)"><path transform="matrix(0.024480000000000002,0,0,-0.024480000000000002,0,0)" d="M146 266C146 526 243 632 301 700L282 726C225 675 60 542 60 266C60 159 85 58 133 -32C168 -99 200 -138 282 -215L301 -194C255 -137 146 -15 146 266Z" stroke="rgb(0,0,0)" stroke-opacity="1" stroke-width="0" fill="rgb(0,0,0)" fill-opacity="1"></path></g></g><g><g transform="matrix(1,0,0,1,488.6805419921875,77.80638549804688)"><path transform="matrix(0.024480000000000002,0,0,-0.024480000000000002,0,0)" d="M125 390L69 107C68 99 56 61 56 31C56 6 67 -9 86 -9C121 -9 156 11 234 74L265 99L255 117L210 86C181 66 161 56 150 56C141 56 136 64 136 76C136 102 150 183 179 328L192 390L299 390L310 440C272 436 238 434 200 434C216 528 227 577 245 631L234 646C214 634 187 622 156 610L131 440C87 419 61 408 43 403L41 390Z" stroke="rgb(0,0,0)" stroke-opacity="1" stroke-width="0" fill="rgb(0,0,0)" fill-opacity="1"></path></g></g><g><g transform="matrix(1,0,0,1,496.8194580078125,78.69527099609375)"><path transform="matrix(0.024480000000000002,0,0,-0.024480000000000002,0,0)" d="M51 726L32 700C87 636 187 526 187 266C187 -10 83 -131 32 -194L51 -215C104 -165 273 -23 273 265C273 542 108 675 51 726Z" stroke="rgb(0,0,0)" stroke-opacity="1" stroke-width="0" fill="rgb(0,0,0)" fill-opacity="1"></path></g></g><g><g transform="matrix(1,0,0,1,504.9583740234375,77.80638549804688)"><path transform="matrix(0.024480000000000002,0,0,-0.024480000000000002,0,0)" d="M179.50274 -172L179.50274 713L120.50274 713L120.50274 -172Z" stroke="rgb(0,0,0)" stroke-opacity="1" stroke-width="0" fill="rgb(0,0,0)" fill-opacity="1"></path></g></g><g><g><g><g><g transform="matrix(1,0,0,1,513.7083740234375,69.04571374511718)"><path transform="matrix(0.017136,0,0,-0.017136,0,0)" d="M16 23L16 -3C203 -3 203 0 239 0C275 0 275 -3 468 -3L468 82C353 77 307 81 122 77L304 270C401 373 431 428 431 503C431 618 353 689 226 689C154 689 105 669 56 619L39 483L68 483L81 529C97 587 133 612 200 612C286 612 341 558 341 473C341 398 299 324 186 204Z" stroke="rgb(0,0,0)" stroke-opacity="1" stroke-width="0" fill="rgb(0,0,0)" fill-opacity="1"></path></g></g></g></g></g><g><g transform="matrix(1,0,0,1,523.72216796875,77.80638549804688)"><path transform="matrix(0.024480000000000002,0,0,-0.024480000000000002,0,0)" d="M204 123C177 114 159 108 106 93C99 17 74 -48 16 -144L30 -155L71 -136C152 -31 190 32 218 109Z" stroke="rgb(0,0,0)" stroke-opacity="1" stroke-width="0" fill="rgb(0,0,0)" fill-opacity="1"></path></g></g><g><g><g><g><g transform="matrix(1,0,0,1,535.9305419921875,77.80638549804688)"><path transform="matrix(0.024480000000000002,0,0,-0.024480000000000002,0,0)" d="M314 216C363 260 522 416 601 434L601 444C587 458 568 469 548 479C469 402 386 320 310 239C295 410 294 473 232 473C186 473 144 434 114 405L114 391L128 391L128 392C237 502 248 262 259 183C161 83 69 -32 -1 -152C7 -167 18 -182 32 -193L43 -193C102 -72 182 42 262 151C280 -26 285 -172 371 -172C418 -172 461 -136 495 -107L495 -96L484 -96C327 -207 332 124 314 216Z" stroke="rgb(0,0,0)" stroke-opacity="1" stroke-width="0" fill="rgb(0,0,0)" fill-opacity="1"></path></g></g></g></g><svg xmlns="http://www.w3.org/2000/svg" x="535.9305419921875" y="58.201385498046875" height="8" width="14.88888931274414"><defs><clipPath id="ccp0.26098108266375286"><rect x="-0.5" y="-0.5" width="15.38888931274414" height="8.5"></rect></clipPath></defs><g clip-path="url(#ccp0.26098108266375286)"><svg xmlns="http://www.w3.org/2000/svg" x="0" y="0" height="29.375" width="24.48611068725586"><defs><clipPath id="ccp0.6780991904409452"><rect x="-0.5" y="-0.5" width="24.98611068725586" height="29.875"></rect></clipPath></defs><g clip-path="url(#ccp0.6780991904409452)"><g><g transform="matrix(1,0,0,1,0,24.48)"><path transform="matrix(0.024480000000000002,0,0,-0.024480000000000002,0,0)" d="M-877 790L1877 790L1877 850L-877 850Z" stroke="rgb(0,0,0)" stroke-opacity="1" stroke-width="0" fill="rgb(0,0,0)" fill-opacity="1"></path></g></g></g></svg></g></svg></g><g><g><g><g><g transform="matrix(1,0,0,1,553.4444580078125,69.62905725097656)"><path transform="matrix(0.017136,0,0,-0.017136,0,0)" d="M168 267L37 213L32 204L68 153L78 153L184 241L202 99L212 95L280 121L280 131L212 253L350 233L359 241L359 303L353 307L214 283L283 408L280 423L218 442L209 438L183 295L88 393L78 393L34 341L37 331Z" stroke="rgb(0,0,0)" stroke-opacity="1" stroke-width="0" fill="rgb(0,0,0)" fill-opacity="1"></path></g></g></g></g></g></g></g></g><g><text x="561.5555419921875" y="58.65971374511719" style="white-space:pre;stroke:none;fill:rgb(0,0,0);fill-opacity:1;font-size:21.6px;font-family:Arial, Helvetica, sans-serif;font-weight:400;font-style:normal;dominant-baseline:text-before-edge;text-decoration:none solid rgb(0, 0, 0);"> </text></g></g></g><g><g><g><text x="252.20831298828125" y="53.33332824707031" style="white-space:pre;stroke:none;fill:rgb(0,0,0);fill-opacity:1;font-size:15px;font-family:Arial, Helvetica, sans-serif;font-weight:400;font-style:normal;dominant-baseline:text-before-edge;text-decoration:none solid rgb(0, 0, 0);">Autovalores</text></g></g><g><g><text x="259.2916259765625" y="74.33332824707031" style="white-space:pre;stroke:none;fill:rgb(0,0,0);fill-opacity:1;font-size:15px;font-family:Arial, Helvetica, sans-serif;font-weight:400;font-style:normal;dominant-baseline:text-before-edge;text-decoration:none solid rgb(0, 0, 0);">Analíticos</text></g></g></g></svg>
</svg>
