<svg xmlns="http://www.w3.org/2000/svg" xmlns:xlink="http://www.w3.org/1999/xlink" x="0" y="0" width="661.7777709960938" height="419.6388854980469" style="
        width:661.7777709960938px;
        height:419.6388854980469px;
        background: transparent;
        fill: none;
">
        
        
        <svg xmlns="http://www.w3.org/2000/svg" class="role-diagram-draw-area"><g class="shapes-region" style="stroke: black; fill: none;"><g class="composite-shape"><path class="real" d=" M193,131.25 L246.47,131.25 L246.47,116.33 L282.11,146.17 L246.47,176 L246.47,161.08 L193,161.08 Z" style="stroke-width: 1; stroke: rgb(0, 0, 0); fill: rgb(0, 0, 0); fill-opacity: 1;"/></g><g class="composite-shape"><path class="real" d=" M106.51,72.3 L191.11,242.33 L21.91,242.33 Z" style="stroke-width: 4; stroke: rgb(0, 0, 0); fill: none; fill-opacity: 1;"/></g><g class="composite-shape"><path class="real" d=" M348.51,73.3 L433.11,243.33 L263.91,243.33 Z" style="stroke-width: 4; stroke: rgb(0, 0, 0); fill: none; fill-opacity: 1;"/></g><g class="composite-shape"><path class="real" d=" M567.51,79.3 L652.11,249.33 L482.91,249.33 Z" style="stroke-width: 4; stroke: rgb(0, 0, 0); fill: none; fill-opacity: 1;"/></g><g class="composite-shape"><path class="real" d=" M416,137.25 L469.47,137.25 L469.47,122.33 L505.11,152.17 L469.47,182 L469.47,167.08 L416,167.08 Z" style="stroke-width: 1; stroke: rgb(0, 0, 0); fill: rgb(0, 0, 0); fill-opacity: 1;"/></g><g class="composite-shape"><path class="real" d=" M192.67,130.56 L246.13,130.56 L246.13,115.65 L281.78,145.48 L246.13,175.31 L246.13,160.4 L192.67,160.4 Z" style="stroke-width: 1; stroke: rgb(0, 0, 0); fill: rgb(0, 0, 0); fill-opacity: 1;"/></g><g class="composite-shape"><path class="real" d=" M106.18,71.61 L190.78,241.65 L21.58,241.65 Z" style="stroke-width: 4; stroke: rgb(0, 0, 0); fill: none; fill-opacity: 1;"/></g><g class="composite-shape"><path class="real" d=" M348.18,72.61 L432.78,242.65 L263.58,242.65 Z" style="stroke-width: 4; stroke: rgb(0, 0, 0); fill: none; fill-opacity: 1;"/></g><g class="composite-shape"><path class="real" d=" M567.18,78.61 L651.78,248.65 L482.58,248.65 Z" style="stroke-width: 4; stroke: rgb(0, 0, 0); fill: none; fill-opacity: 1;"/></g><g class="composite-shape"><path class="real" d=" M416,137.25 L469.47,137.25 L469.47,122.33 L505.11,152.17 L469.47,182 L469.47,167.08 L416,167.08 Z" style="stroke-width: 1; stroke: rgb(0, 0, 0); fill: rgb(0, 0, 0); fill-opacity: 1;"/></g><g class="composite-shape"><path class="real" d=" M515.35,184.33 L548.11,248.65 L482.58,248.65 Z" style="stroke-width: 4; stroke: rgb(0, 0, 0); fill: none; fill-opacity: 1;"/></g><g class="composite-shape"><path class="real" d=" M567.51,79.3 L600.28,143.61 L534.75,143.61 Z" style="stroke-width: 4; stroke: rgb(0, 0, 0); fill: none; fill-opacity: 1;"/></g><g class="composite-shape"><path class="real" d=" M619.01,184.33 L651.78,248.65 L586.25,248.65 Z" style="stroke-width: 4; stroke: rgb(0, 0, 0); fill: none; fill-opacity: 1;"/></g><g class="composite-shape"><path class="real" d=" M348.51,73.3 L381.28,137.61 L315.75,137.61 Z" style="stroke-width: 4; stroke: rgb(0, 0, 0); fill: none; fill-opacity: 1;"/></g><g class="composite-shape"><path class="real" d=" M296.35,178.33 L329.11,242.65 L263.58,242.65 Z" style="stroke-width: 4; stroke: rgb(0, 0, 0); fill: none; fill-opacity: 1;"/></g><g class="composite-shape"><path class="real" d=" M400.35,179.02 L433.11,243.33 L367.58,243.33 Z" style="stroke-width: 4; stroke: rgb(0, 0, 0); fill: none; fill-opacity: 1;"/></g><g class="composite-shape"><path class="real" d=" M567.18,78.61 L581.72,105.33 L552.64,105.33 Z" style="stroke-width: 4; stroke: rgb(0, 0, 0); fill: none; fill-opacity: 1;"/></g><g class="composite-shape"><path class="real" d=" M549.29,116.89 L563.83,143.61 L534.75,143.61 Z" style="stroke-width: 4; stroke: rgb(0, 0, 0); fill: none; fill-opacity: 1;"/></g><g class="composite-shape"><path class="real" d=" M585.74,116.89 L600.28,143.61 L571.2,143.61 Z" style="stroke-width: 4; stroke: rgb(0, 0, 0); fill: none; fill-opacity: 1;"/></g><g class="composite-shape"><path class="real" d=" M497.45,222.61 L511.99,249.33 L482.91,249.33 Z" style="stroke-width: 4; stroke: rgb(0, 0, 0); fill: none; fill-opacity: 1;"/></g><g class="composite-shape"><path class="real" d=" M515.35,184.33 L529.89,211.05 L500.81,211.05 Z" style="stroke-width: 4; stroke: rgb(0, 0, 0); fill: none; fill-opacity: 1;"/></g><g class="composite-shape"><path class="real" d=" M533.57,221.92 L548.11,248.65 L519.03,248.65 Z" style="stroke-width: 4; stroke: rgb(0, 0, 0); fill: none; fill-opacity: 1;"/></g><g class="composite-shape"><path class="real" d=" M600.79,221.92 L615.33,248.65 L586.25,248.65 Z" style="stroke-width: 4; stroke: rgb(0, 0, 0); fill: none; fill-opacity: 1;"/></g><g class="composite-shape"><path class="real" d=" M637.24,221.92 L651.78,248.65 L622.7,248.65 Z" style="stroke-width: 4; stroke: rgb(0, 0, 0); fill: none; fill-opacity: 1;"/></g><g class="composite-shape"><path class="real" d=" M619.01,184.33 L633.55,211.05 L604.47,211.05 Z" style="stroke-width: 4; stroke: rgb(0, 0, 0); fill: none; fill-opacity: 1;"/></g><g class="grouped-shape"><g class="composite-shape"><path class="real" d=" M227.57,295.92 L242.11,322.65 L213.03,322.65 Z" style="stroke-width: 4; stroke: rgb(0, 0, 0); fill: none; fill-opacity: 1;"/></g><g class="composite-shape"><path class="real" d=" M168.11,282.33 L286.11,282.33 L286.11,393.33 L168.11,393.33 Z" style="stroke-width: 1; stroke: rgb(0, 0, 0); fill: none; fill-opacity: 1; stroke-dasharray: 6, 6;"/></g><g class="composite-shape"><path class="real" d=" M194.57,346.92 L209.11,373.65 L180.03,373.65 Z" style="stroke-width: 4; stroke: rgb(0, 0, 0); fill: none; fill-opacity: 1;"/></g><g class="composite-shape"><path class="real" d=" M257.57,345.92 L272.11,372.65 L243.03,372.65 Z" style="stroke-width: 4; stroke: rgb(0, 0, 0); fill: none; fill-opacity: 1;"/></g></g><g class="grouped-shape"><g class="composite-shape"><path class="real" d=" M415.57,288.45 L430.11,315.17 L401.03,315.17 Z" style="stroke-width: 4; stroke: rgb(0, 0, 0); fill: none; fill-opacity: 1;"/></g><g class="composite-shape"><path class="real" d=" M383.07,278.08 L530.07,278.08 L530.07,411.55 L383.07,411.55 Z" style="stroke-width: 1; stroke: rgb(0, 0, 0); fill: none; fill-opacity: 1; stroke-dasharray: 6, 6;"/></g><g class="composite-shape"><path class="real" d=" M460.57,289.45 L475.11,316.17 L446.03,316.17 Z" style="stroke-width: 4; stroke: rgb(0, 0, 0); fill: none; fill-opacity: 1;"/></g><g class="composite-shape"><path class="real" d=" M505.57,290.45 L520.11,317.17 L491.03,317.17 Z" style="stroke-width: 4; stroke: rgb(0, 0, 0); fill: none; fill-opacity: 1;"/></g><g class="composite-shape"><path class="real" d=" M411.57,330.45 L426.11,357.17 L397.03,357.17 Z" style="stroke-width: 4; stroke: rgb(0, 0, 0); fill: none; fill-opacity: 1;"/></g><g class="composite-shape"><path class="real" d=" M456.57,331.45 L471.11,358.17 L442.03,358.17 Z" style="stroke-width: 4; stroke: rgb(0, 0, 0); fill: none; fill-opacity: 1;"/></g><g class="composite-shape"><path class="real" d=" M501.57,332.45 L516.11,359.17 L487.03,359.17 Z" style="stroke-width: 4; stroke: rgb(0, 0, 0); fill: none; fill-opacity: 1;"/></g><g class="composite-shape"><path class="real" d=" M409.57,369.45 L424.11,396.17 L395.03,396.17 Z" style="stroke-width: 4; stroke: rgb(0, 0, 0); fill: none; fill-opacity: 1;"/></g><g class="composite-shape"><path class="real" d=" M454.57,370.45 L469.11,397.17 L440.03,397.17 Z" style="stroke-width: 4; stroke: rgb(0, 0, 0); fill: none; fill-opacity: 1;"/></g><g class="composite-shape"><path class="real" d=" M499.57,371.45 L514.11,398.17 L485.03,398.17 Z" style="stroke-width: 4; stroke: rgb(0, 0, 0); fill: none; fill-opacity: 1;"/></g></g><g class="arrow-line"><path class="connection real" stroke-dasharray="6 6" d="  M168.11,282.33 C208.11,252.33 213.11,224.33 220.11,146.33" style="stroke: rgb(0, 0, 0); stroke-width: 1; fill: none; fill-opacity: 1;"/></g><g class="arrow-line"><path class="connection real" stroke-dasharray="6 6" d="  M286.11,282.33 C245.11,269.33 213.11,224.33 220.11,146.33" style="stroke: rgb(0, 0, 0); stroke-width: 1; fill: none; fill-opacity: 1;"/></g><g class="arrow-line"><path class="connection real" stroke-dasharray="6 6" d="  M530.07,278.08 C472.11,279.33 448.11,232.33 455.11,154.33" style="stroke: rgb(0, 0, 0); stroke-width: 1; fill: none; fill-opacity: 1;"/></g><g class="arrow-line"><path class="connection real" stroke-dasharray="6 6" d="  M383.07,278.08 C475.11,265.33 448.11,232.33 455.11,154.33" style="stroke: rgb(0, 0, 0); stroke-width: 1; fill: none; fill-opacity: 1;"/></g><g/></g><g/><g/><g/></svg>
        <svg xmlns="http://www.w3.org/2000/svg" xmlns:xlink="http://www.w3.org/1999/xlink" width="660" height="417.8611145019531" style="width:660px;height:417.8611145019531px;font-family:Asana-Math, Asana;background:transparent;"><g><g><g><g><g><g><g transform="matrix(1,0,0,1,49.77081298828125,46.024442749023436)"><path transform="matrix(0.04233,0,0,-0.04233,0,0)" d="M55 289C55 215 101 164 175 156L96 95C86 80 81 67 81 52C81 24 99 8 147 -6L60 -53C46 -61 32 -98 32 -129C32 -220 121 -283 248 -283C399 -283 518 -188 518 -66C518 6 470 56 400 56L240 56C188 56 164 68 164 95C164 118 193 135 210 152C220 151 226 150 234 150C295 150 438 197 438 324C438 344 435 357 427 378L519 378L544 419L540 431L398 427C361 457 325 469 276 469C201 469 55 424 55 289ZM240 435C308 435 354 379 354 294C354 229 312 184 251 184C184 184 139 236 139 313C139 390 176 435 240 435ZM287 -14C400 -14 439 -37 439 -102C439 -188 360 -252 255 -252C168 -252 108 -201 108 -127C108 -82 134 -41 174 -24C190 -16 218 -14 287 -14Z" stroke="rgb(0,0,0)" stroke-opacity="1" stroke-width="24" fill="rgb(0,0,0)" fill-opacity="1"></path></g></g><g><g><g><g><g transform="matrix(1,0,0,1,74.53472900390625,54.381)"><path transform="matrix(0.029631,0,0,-0.029631,0,0)" d="M41 143C41 74 38 44 30 4C82 -13 121 -20 167 -20C298 -20 391 50 391 148C391 321 107 228 107 358C107 408 142 436 203 436C270 436 321 401 321 354L321 331L349 331C350 389 351 413 354 444C301 462 265 469 224 469C108 469 37 414 37 324C37 276 59 242 105 221C223 169 317 195 317 109C317 55 267 17 196 17C123 17 71 52 71 102L71 143Z" stroke="rgb(0,0,0)" stroke-opacity="1" stroke-width="24" fill="rgb(0,0,0)" fill-opacity="1"></path></g></g></g></g></g><g><g transform="matrix(1,0,0,1,102.298583984375,46.024442749023436)"><path transform="matrix(0.04233,0,0,-0.04233,0,0)" d="M604 347L604 406L65 406L65 347ZM604 134L604 193L65 193L65 134Z" stroke="rgb(0,0,0)" stroke-opacity="1" stroke-width="24" fill="rgb(0,0,0)" fill-opacity="1"></path></g></g><g><g transform="matrix(1,0,0,1,143.27081298828125,46.024442749023436)"><path transform="matrix(0.04233,0,0,-0.04233,0,0)" d="M418 -3L418 27L366 30C311 33 301 44 301 96L301 700L60 598L67 548L217 614L217 96C217 44 206 33 152 30L96 27L96 -3C250 0 250 0 261 0C292 0 402 -3 418 -3Z" stroke="rgb(0,0,0)" stroke-opacity="1" stroke-width="24" fill="rgb(0,0,0)" fill-opacity="1"></path></g></g></g></g></g></g></g><g><g><g><g><g><g><g transform="matrix(1,0,0,1,286.77081298828125,41.024442749023436)"><path transform="matrix(0.04233,0,0,-0.04233,0,0)" d="M55 289C55 215 101 164 175 156L96 95C86 80 81 67 81 52C81 24 99 8 147 -6L60 -53C46 -61 32 -98 32 -129C32 -220 121 -283 248 -283C399 -283 518 -188 518 -66C518 6 470 56 400 56L240 56C188 56 164 68 164 95C164 118 193 135 210 152C220 151 226 150 234 150C295 150 438 197 438 324C438 344 435 357 427 378L519 378L544 419L540 431L398 427C361 457 325 469 276 469C201 469 55 424 55 289ZM240 435C308 435 354 379 354 294C354 229 312 184 251 184C184 184 139 236 139 313C139 390 176 435 240 435ZM287 -14C400 -14 439 -37 439 -102C439 -188 360 -252 255 -252C168 -252 108 -201 108 -127C108 -82 134 -41 174 -24C190 -16 218 -14 287 -14Z" stroke="rgb(0,0,0)" stroke-opacity="1" stroke-width="24" fill="rgb(0,0,0)" fill-opacity="1"></path></g></g><g><g><g><g><g transform="matrix(1,0,0,1,311.53472900390625,49.381)"><path transform="matrix(0.029631,0,0,-0.029631,0,0)" d="M41 143C41 74 38 44 30 4C82 -13 121 -20 167 -20C298 -20 391 50 391 148C391 321 107 228 107 358C107 408 142 436 203 436C270 436 321 401 321 354L321 331L349 331C350 389 351 413 354 444C301 462 265 469 224 469C108 469 37 414 37 324C37 276 59 242 105 221C223 169 317 195 317 109C317 55 267 17 196 17C123 17 71 52 71 102L71 143Z" stroke="rgb(0,0,0)" stroke-opacity="1" stroke-width="24" fill="rgb(0,0,0)" fill-opacity="1"></path></g></g></g></g></g><g><g transform="matrix(1,0,0,1,339.298583984375,41.024442749023436)"><path transform="matrix(0.04233,0,0,-0.04233,0,0)" d="M604 347L604 406L65 406L65 347ZM604 134L604 193L65 193L65 134Z" stroke="rgb(0,0,0)" stroke-opacity="1" stroke-width="24" fill="rgb(0,0,0)" fill-opacity="1"></path></g></g><g><g transform="matrix(1,0,0,1,380.27081298828125,41.024442749023436)"><path transform="matrix(0.04233,0,0,-0.04233,0,0)" d="M16 23L16 -3C203 -3 203 0 239 0C275 0 275 -3 468 -3L468 82C353 77 307 81 122 77L304 270C401 373 431 428 431 503C431 618 353 689 226 689C154 689 105 669 56 619L39 483L68 483L81 529C97 587 133 612 200 612C286 612 341 558 341 473C341 398 299 324 186 204Z" stroke="rgb(0,0,0)" stroke-opacity="1" stroke-width="0" fill="rgb(0,0,0)" fill-opacity="1"></path></g></g></g></g></g></g></g><g><g><g><g><g><g><g transform="matrix(1,0,0,1,498.7708740234375,42.024442749023436)"><path transform="matrix(0.04233,0,0,-0.04233,0,0)" d="M55 289C55 215 101 164 175 156L96 95C86 80 81 67 81 52C81 24 99 8 147 -6L60 -53C46 -61 32 -98 32 -129C32 -220 121 -283 248 -283C399 -283 518 -188 518 -66C518 6 470 56 400 56L240 56C188 56 164 68 164 95C164 118 193 135 210 152C220 151 226 150 234 150C295 150 438 197 438 324C438 344 435 357 427 378L519 378L544 419L540 431L398 427C361 457 325 469 276 469C201 469 55 424 55 289ZM240 435C308 435 354 379 354 294C354 229 312 184 251 184C184 184 139 236 139 313C139 390 176 435 240 435ZM287 -14C400 -14 439 -37 439 -102C439 -188 360 -252 255 -252C168 -252 108 -201 108 -127C108 -82 134 -41 174 -24C190 -16 218 -14 287 -14Z" stroke="rgb(0,0,0)" stroke-opacity="1" stroke-width="24" fill="rgb(0,0,0)" fill-opacity="1"></path></g></g><g><g><g><g><g transform="matrix(1,0,0,1,523.53466796875,50.381)"><path transform="matrix(0.029631,0,0,-0.029631,0,0)" d="M41 143C41 74 38 44 30 4C82 -13 121 -20 167 -20C298 -20 391 50 391 148C391 321 107 228 107 358C107 408 142 436 203 436C270 436 321 401 321 354L321 331L349 331C350 389 351 413 354 444C301 462 265 469 224 469C108 469 37 414 37 324C37 276 59 242 105 221C223 169 317 195 317 109C317 55 267 17 196 17C123 17 71 52 71 102L71 143Z" stroke="rgb(0,0,0)" stroke-opacity="1" stroke-width="24" fill="rgb(0,0,0)" fill-opacity="1"></path></g></g></g></g></g><g><g transform="matrix(1,0,0,1,551.298583984375,42.024442749023436)"><path transform="matrix(0.04233,0,0,-0.04233,0,0)" d="M604 347L604 406L65 406L65 347ZM604 134L604 193L65 193L65 134Z" stroke="rgb(0,0,0)" stroke-opacity="1" stroke-width="24" fill="rgb(0,0,0)" fill-opacity="1"></path></g></g><g><g transform="matrix(1,0,0,1,592.2708740234375,42.024442749023436)"><path transform="matrix(0.04233,0,0,-0.04233,0,0)" d="M462 224C462 345 355 366 308 374C388 436 418 482 418 541C418 630 344 689 233 689C165 689 120 670 72 622L43 498L74 498L92 554C103 588 166 622 218 622C283 622 336 569 336 506C336 431 277 368 206 368C198 368 187 369 174 370L159 371L147 318L154 312C192 329 211 334 238 334C321 334 369 281 369 190C369 88 308 21 215 21C169 21 128 36 98 64C74 86 61 109 42 163L15 153C36 92 44 56 50 6C103 -12 147 -20 184 -20C307 -20 462 87 462 224Z" stroke="rgb(0,0,0)" stroke-opacity="1" stroke-width="0" fill="rgb(0,0,0)" fill-opacity="1"></path></g></g></g></g></g></g></g></svg>
</svg>
