<svg xmlns="http://www.w3.org/2000/svg" xmlns:xlink="http://www.w3.org/1999/xlink" x="0" y="0" width="761.7777709960938" height="624.4444580078125" style="
        width:761.7777709960938px;
        height:624.4444580078125px;
        background: transparent;
        fill: none;
">
        
        
        <svg xmlns="http://www.w3.org/2000/svg" class="role-diagram-draw-area"><g class="shapes-region" style="stroke: black; fill: none;"><g class="grouped-shape"><g class="composite-shape"><path class="real" d=" M378.24,232.05 L455.72,358.75 L300.75,358.75 Z" style="stroke-width: 3; stroke: rgb(0, 0, 0); fill: none; fill-opacity: 1;"/></g><g class="composite-shape"><path class="real" d=" M378.24,232.05 L407.6,280.41 L348.87,280.41 Z" style="stroke-width: 3; stroke: rgb(0, 0, 0); fill: none; fill-opacity: 1;"/></g><g class="composite-shape"><path class="real" d=" M330.12,310.4 L359.48,358.75 L300.75,358.75 Z" style="stroke-width: 3; stroke: rgb(0, 0, 0); fill: none; fill-opacity: 1;"/></g><g class="composite-shape"><path class="real" d=" M426.36,310.4 L455.72,358.75 L396.99,358.75 Z" style="stroke-width: 3; stroke: rgb(0, 0, 0); fill: none; fill-opacity: 1;"/></g></g><g class="grouped-shape"><g class="composite-shape"><path class="real" d=" M455.32,67.17 L377.94,193.94 L301.32,65.67 Z" style="stroke-width: 3; stroke: rgb(0, 0, 0); fill: none; fill-opacity: 1;"/></g><g class="composite-shape"><path class="real" d=" M455.32,67.17 L425.68,115.38 L396.64,66.78 Z" style="stroke-width: 3; stroke: rgb(0, 0, 0); fill: none; fill-opacity: 1;"/></g><g class="composite-shape"><path class="real" d=" M360.01,66.06 L330.37,114.27 L301.33,65.66 Z" style="stroke-width: 3; stroke: rgb(0, 0, 0); fill: none; fill-opacity: 1;"/></g><g class="composite-shape"><path class="real" d=" M407.57,145.73 L377.94,193.94 L348.9,145.33 Z" style="stroke-width: 3; stroke: rgb(0, 0, 0); fill: none; fill-opacity: 1;"/></g></g><g class="grouped-shape"><g class="composite-shape"><path class="real" d=" M266.41,377.69 L182.54,500.64 L112.72,368.88 Z" style="stroke-width: 3; stroke: rgb(0, 0, 0); fill: none; fill-opacity: 1;"/></g><g class="composite-shape"><path class="real" d=" M266.41,377.69 L234.31,424.43 L207.85,374.5 Z" style="stroke-width: 3; stroke: rgb(0, 0, 0); fill: none; fill-opacity: 1;"/></g><g class="composite-shape"><path class="real" d=" M171.28,372.08 L139.17,418.82 L112.71,368.89 Z" style="stroke-width: 3; stroke: rgb(0, 0, 0); fill: none; fill-opacity: 1;"/></g><g class="composite-shape"><path class="real" d=" M214.64,453.89 L182.54,500.64 L156.08,450.71 Z" style="stroke-width: 3; stroke: rgb(0, 0, 0); fill: none; fill-opacity: 1;"/></g></g><g class="grouped-shape"><g class="composite-shape"><path class="real" d=" M493.4,376.97 L647.37,374.85 L571.35,503.44 Z" style="stroke-width: 3; stroke: rgb(0, 0, 0); fill: none; fill-opacity: 1;"/></g><g class="composite-shape"><path class="real" d=" M493.4,376.98 L552.06,376.34 L523.25,425.07 Z" style="stroke-width: 3; stroke: rgb(0, 0, 0); fill: none; fill-opacity: 1;"/></g><g class="composite-shape"><path class="real" d=" M541.49,455.34 L600.15,454.7 L571.34,503.43 Z" style="stroke-width: 3; stroke: rgb(0, 0, 0); fill: none; fill-opacity: 1;"/></g><g class="composite-shape"><path class="real" d=" M588.71,375.48 L647.37,374.85 L618.56,423.58 Z" style="stroke-width: 3; stroke: rgb(0, 0, 0); fill: none; fill-opacity: 1;"/></g></g><g class="arrow-line"><path class="connection real" stroke-dasharray="" d="  M377.94,193.94 L378.24,232.05" style="stroke: rgb(0, 0, 0); stroke-width: 3; fill: none; fill-opacity: 1;"/></g><g class="arrow-line"><path class="connection real" stroke-dasharray="" d="  M300.75,358.75 L266.41,377.68" style="stroke: rgb(0, 0, 0); stroke-width: 3; fill: none; fill-opacity: 1;"/></g><g class="arrow-line"><path class="connection real" stroke-dasharray="" d="  M455.72,358.75 L493.4,376.98" style="stroke: rgb(0, 0, 0); stroke-width: 3; fill: none; fill-opacity: 1;"/></g><g class="arrow-line"><path class="connection real" stroke-dasharray="" d="  M268.11,37.33 L305.11,70.33" style="stroke: rgb(0, 0, 0); stroke-width: 3; fill: none; fill-opacity: 1;"/></g><g class="arrow-line"><path class="connection real" stroke-dasharray="" d="  M455.32,67.17 L487.11,43.33" style="stroke: rgb(0, 0, 0); stroke-width: 3; fill: none; fill-opacity: 1;"/></g><g class="arrow-line"><path class="connection real" stroke-dasharray="" d="  M74.11,360.33 L112.71,368.89" style="stroke: rgb(0, 0, 0); stroke-width: 3; fill: none; fill-opacity: 1;"/></g><g class="arrow-line"><path class="connection real" stroke-dasharray="" d="  M182.54,500.64 L168.11,543.33" style="stroke: rgb(0, 0, 0); stroke-width: 3; fill: none; fill-opacity: 1;"/></g><g class="arrow-line"><path class="connection real" stroke-dasharray="" d="  M679.11,351.33 L647.37,374.85" style="stroke: rgb(0, 0, 0); stroke-width: 3; fill: none; fill-opacity: 1;"/></g><g class="arrow-line"><path class="connection real" stroke-dasharray="" d="  M571.34,503.43 L605.11,544.33" style="stroke: rgb(0, 0, 0); stroke-width: 3; fill: none; fill-opacity: 1;"/></g><g class="arrow-line"><path class="connection real" stroke-dasharray="3.375 4.0200000000000005" d="  M268.11,37.33 L221.11,42.33" style="stroke: rgb(0, 0, 0); stroke-width: 3; fill: none; fill-opacity: 1;"/></g><g class="arrow-line"><path class="connection real" stroke-dasharray="3.375 4.0200000000000005" d="  M268.11,37.33 L247.11,6.33" style="stroke: rgb(0, 0, 0); stroke-width: 3; fill: none; fill-opacity: 1;"/></g><g class="arrow-line"><path class="connection real" stroke-dasharray="3.375 4.0200000000000005" d="  M74.11,360.33 L39.11,335.33" style="stroke: rgb(0, 0, 0); stroke-width: 3; fill: none; fill-opacity: 1;"/></g><g class="arrow-line"><path class="connection real" stroke-dasharray="3.375 4.0200000000000005" d="  M43.11,386.33 L74.11,360.33" style="stroke: rgb(0, 0, 0); stroke-width: 3; fill: none; fill-opacity: 1;"/></g><g class="arrow-line"><path class="connection real" stroke-dasharray="3.375 4.0200000000000005" d="  M137.11,569.33 L168.11,543.33" style="stroke: rgb(0, 0, 0); stroke-width: 3; fill: none; fill-opacity: 1;"/></g><g class="arrow-line"><path class="connection real" stroke-dasharray="3.375 4.0200000000000005" d="  M197.11,573.33 L168.11,543.33" style="stroke: rgb(0, 0, 0); stroke-width: 3; fill: none; fill-opacity: 1;"/></g><g class="arrow-line"><path class="connection real" stroke-dasharray="3.375 4.0200000000000005" d="  M607.11,587.33 L605.11,544.33" style="stroke: rgb(0, 0, 0); stroke-width: 3; fill: none; fill-opacity: 1;"/></g><g class="arrow-line"><path class="connection real" stroke-dasharray="3.375 4.0200000000000005" d="  M651.11,552.33 L605.11,544.33" style="stroke: rgb(0, 0, 0); stroke-width: 3; fill: none; fill-opacity: 1;"/></g><g class="arrow-line"><path class="connection real" stroke-dasharray="3.375 4.0200000000000005" d="  M679.11,351.33 L710.11,325.33" style="stroke: rgb(0, 0, 0); stroke-width: 3; fill: none; fill-opacity: 1;"/></g><g class="arrow-line"><path class="connection real" stroke-dasharray="3.375 4.0200000000000005" d="  M679.11,351.33 L705.11,374.33" style="stroke: rgb(0, 0, 0); stroke-width: 3; fill: none; fill-opacity: 1;"/></g><g class="arrow-line"><path class="connection real" stroke-dasharray="3.375 4.0200000000000005" d="  M487.11,43.33 L534.11,47.33" style="stroke: rgb(0, 0, 0); stroke-width: 3; fill: none; fill-opacity: 1;"/></g><g class="arrow-line"><path class="connection real" stroke-dasharray="3.375 4.0200000000000005" d="  M487.11,43.33 L504.11,11.33" style="stroke: rgb(0, 0, 0); stroke-width: 3; fill: none; fill-opacity: 1;"/></g><g class="composite-shape"><path class="real" d=" M272.92,318.16 C272.92,260.08 320,213 378.09,213 C436.17,213 483.26,260.08 483.26,318.16 C483.26,376.25 436.17,423.33 378.09,423.33 C320,423.33 272.92,376.25 272.92,318.16 Z" style="stroke-width: 1; stroke: rgb(0, 0, 0); fill: none; fill-opacity: 1; stroke-dasharray: 6, 6;"/></g><g class="composite-shape"><path class="real" d=" M154.92,314.37 C154.92,189.03 256.53,87.42 381.88,87.42 C507.22,87.42 608.83,189.03 608.83,314.37 C608.83,439.72 507.22,541.33 381.88,541.33 C256.53,541.33 154.92,439.72 154.92,314.37 Z" style="stroke-width: 1; stroke: rgb(0, 0, 0); fill: none; fill-opacity: 1; stroke-dasharray: 6, 6;"/></g><g class="arrow-line"><path class="connection real" stroke-dasharray="2.25 3.685" d="  M595.11,114.33 L573,134" style="stroke: rgb(0, 0, 0); stroke-width: 2; fill: none; fill-opacity: 1;"/></g><g class="arrow-line"><path class="connection real" stroke-dasharray="6 6" d="  M210.04,166.46 C188.48,193.25 179.4,205.63 164.93,246.9" style="stroke: rgb(0, 0, 0); stroke-width: 1; fill: none; fill-opacity: 1;"/><g stroke="none" fill="#000" transform="matrix(0.32903146649920717,-0.9443189577962422,0.9443189577962422,0.32903146649920717,164.0370381673177,249.4629643758138)" style="stroke: none; fill: rgb(0, 0, 0); stroke-width: 1;"><path d=" M17.86,-8.58 L0,0 L17.86,8.58 Z"/></g></g><g class="arrow-line"><path class="connection real" stroke-dasharray="6 6" d="  M297.37,525.69 C319.37,532.58 353.01,543.68 404.66,540.35" style="stroke: rgb(0, 0, 0); stroke-width: 1; fill: none; fill-opacity: 1;"/><g stroke="none" fill="#000" transform="matrix(-0.9973906252323237,0.07219377188286003,-0.07219377188286003,-0.9973906252323237,407.0370381673177,540.185183207194)" style="stroke: none; fill: rgb(0, 0, 0); stroke-width: 1;"><path d=" M17.86,-8.58 L0,0 L17.86,8.58 Z"/></g></g><g class="arrow-line"><path class="connection real" stroke-dasharray="6 6" d="  M608.78,329.28 C608.12,316.41 613.01,266.29 582.06,207.4" style="stroke: rgb(0, 0, 0); stroke-width: 1; fill: none; fill-opacity: 1;"/><g stroke="none" fill="#000" transform="matrix(0.4727045741403913,0.8812209629750937,-0.8812209629750937,0.4727045741403913,581.1111043294271,205.61111450195312)" style="stroke: none; fill: rgb(0, 0, 0); stroke-width: 1;"><path d=" M17.86,-8.58 L0,0 L17.86,8.58 Z"/></g></g><g/></g><g/><g><g><circle cx="378.23707421958466" cy="232.05446965449624" r="13.729530217745982" style="stroke: rgb(0, 0, 0); stroke-width: 2; fill: rgb(255, 255, 255); fill-opacity: 1;"/></g><g><circle cx="348.87244948503053" cy="280.41006365848966" r="13.729530217745982" style="stroke: rgb(0, 0, 0); stroke-width: 2; fill: rgb(255, 255, 255); fill-opacity: 1;"/></g><g><circle cx="407.6016989541386" cy="280.41006365848966" r="13.729530217745982" style="stroke: rgb(0, 0, 0); stroke-width: 2; fill: rgb(255, 255, 255); fill-opacity: 1;"/></g><g><circle cx="330.11541525367466" cy="310.3969751459811" r="13.729530217745982" style="stroke: rgb(0, 0, 0); stroke-width: 2; fill: rgb(255, 255, 255); fill-opacity: 1;"/></g><g><circle cx="426.35873318549466" cy="310.3969751459811" r="13.729530217745982" style="stroke: rgb(0, 0, 0); stroke-width: 2; fill: rgb(255, 255, 255); fill-opacity: 1;"/></g><g><circle cx="300.7507905191205" cy="358.7525691499745" r="13.729530217745982" style="stroke: rgb(0, 0, 0); stroke-width: 2; fill: rgb(255, 255, 255); fill-opacity: 1;"/></g><g><circle cx="359.4800399882288" cy="358.7525691499745" r="13.729530217745982" style="stroke: rgb(0, 0, 0); stroke-width: 2; fill: rgb(255, 255, 255); fill-opacity: 1;"/></g><g><circle cx="396.99410845094053" cy="358.7525691499745" r="13.729530217745982" style="stroke: rgb(0, 0, 0); stroke-width: 2; fill: rgb(255, 255, 255); fill-opacity: 1;"/></g><g><circle cx="455.7233579200488" cy="358.7525691499745" r="13.729530217745982" style="stroke: rgb(0, 0, 0); stroke-width: 2; fill: rgb(255, 255, 255); fill-opacity: 1;"/></g><g><circle cx="377.9351027670478" cy="193.9357799419016" r="15.913830462839549" style="stroke: rgb(0, 0, 0); stroke-width: 2; fill: rgb(255, 255, 255); fill-opacity: 1;"/></g><g><circle cx="407.57005032171526" cy="145.7299320525143" r="15.572411502397436" style="stroke: rgb(0, 0, 0); stroke-width: 2; fill: rgb(255, 255, 255); fill-opacity: 1;"/></g><g><circle cx="348.9084444563955" cy="145.3231388846027" r="15.913830462839549" style="stroke: rgb(0, 0, 0); stroke-width: 2; fill: rgb(255, 255, 255); fill-opacity: 1;"/></g><g><circle cx="425.67728757614645" cy="115.38306363450349" r="15.913830462839549" style="stroke: rgb(0, 0, 0); stroke-width: 2; fill: rgb(255, 255, 255); fill-opacity: 1;"/></g><g><circle cx="330.3672906539396" cy="114.27118502409883" r="15.913830462839549" style="stroke: rgb(0, 0, 0); stroke-width: 2; fill: rgb(255, 255, 255); fill-opacity: 1;"/></g><g><circle cx="455.3156654911783" cy="67.17473897845073" r="15.913830462839549" style="stroke: rgb(0, 0, 0); stroke-width: 2; fill: rgb(255, 255, 255); fill-opacity: 1;"/></g><g><circle cx="396.6437685447651" cy="66.77537611053529" r="15.913830462839549" style="stroke: rgb(0, 0, 0); stroke-width: 2; fill: rgb(255, 255, 255); fill-opacity: 1;"/></g><g><circle cx="360.0056685689712" cy="66.06286036804646" r="15.913830462839549" style="stroke: rgb(0, 0, 0); stroke-width: 2; fill: rgb(255, 255, 255); fill-opacity: 1;"/></g><g><circle cx="301.3406323432872" cy="65.65854396680011" r="15.913830462839549" style="stroke: rgb(0, 0, 0); stroke-width: 2; fill: rgb(255, 255, 255); fill-opacity: 1;"/></g><g><circle cx="266.41447149854037" cy="377.68327418303573" r="15.913830462839549" style="stroke: rgb(0, 0, 0); stroke-width: 2; fill: rgb(255, 255, 255); fill-opacity: 1;"/></g><g><circle cx="207.84608227593327" cy="374.5094931368664" r="15.913830462839549" style="stroke: rgb(0, 0, 0); stroke-width: 2; fill: rgb(255, 255, 255); fill-opacity: 1;"/></g><g><circle cx="234.30748188587373" cy="424.4318227558615" r="15.913830462839549" style="stroke: rgb(0, 0, 0); stroke-width: 2; fill: rgb(255, 255, 255); fill-opacity: 1;"/></g><g><circle cx="171.27939295910963" cy="372.0763069659916" r="15.913830462839549" style="stroke: rgb(0, 0, 0); stroke-width: 2; fill: rgb(255, 255, 255); fill-opacity: 1;"/></g><g><circle cx="214.64217081075356" cy="453.8911379945293" r="15.913830462839549" style="stroke: rgb(0, 0, 0); stroke-width: 2; fill: rgb(255, 255, 255); fill-opacity: 1;"/></g><g><circle cx="112.71337044332579" cy="368.8945918722401" r="15.913830462839549" style="stroke: rgb(0, 0, 0); stroke-width: 2; fill: rgb(255, 255, 255); fill-opacity: 1;"/></g><g><circle cx="139.17240334644305" cy="418.8248555388176" r="15.913830462839549" style="stroke: rgb(0, 0, 0); stroke-width: 2; fill: rgb(255, 255, 255); fill-opacity: 1;"/></g><g><circle cx="156.07496494155797" cy="450.713389924569" r="15.913830462839549" style="stroke: rgb(0, 0, 0); stroke-width: 2; fill: rgb(255, 255, 255); fill-opacity: 1;"/></g><g><circle cx="182.53636455149845" cy="500.6357195435637" r="15.913830462839549" style="stroke: rgb(0, 0, 0); stroke-width: 2; fill: rgb(255, 255, 255); fill-opacity: 1;"/></g><g><circle cx="493.404453186593" cy="376.9789590037903" r="15.913830462839549" style="stroke: rgb(0, 0, 0); stroke-width: 2; fill: rgb(255, 255, 255); fill-opacity: 1;"/></g><g><circle cx="523.2512078068194" cy="425.0661872801599" r="15.913830462839549" style="stroke: rgb(0, 0, 0); stroke-width: 2; fill: rgb(255, 255, 255); fill-opacity: 1;"/></g><g><circle cx="552.0637548519287" cy="376.3382021102061" r="15.913830462839549" style="stroke: rgb(0, 0, 0); stroke-width: 2; fill: rgb(255, 255, 255); fill-opacity: 1;"/></g><g><circle cx="543.406665146396" cy="459.68418387893956" r="15.913830462839549" style="stroke: rgb(0, 0, 0); stroke-width: 2; fill: rgb(255, 255, 255); fill-opacity: 1;"/></g><g><circle cx="588.7074311881299" cy="375.48374622548147" r="15.913830462839549" style="stroke: rgb(0, 0, 0); stroke-width: 2; fill: rgb(255, 255, 255); fill-opacity: 1;"/></g><g><circle cx="571.3411254895881" cy="503.43421311071756" r="15.913830462839549" style="stroke: rgb(0, 0, 0); stroke-width: 2; fill: rgb(255, 255, 255); fill-opacity: 1;"/></g><g><circle cx="600.1510897441341" cy="454.6998132520327" r="15.913830462839549" style="stroke: rgb(0, 0, 0); stroke-width: 2; fill: rgb(255, 255, 255); fill-opacity: 1;"/></g><g><circle cx="618.5554772036375" cy="423.574181846217" r="15.913830462839549" style="stroke: rgb(0, 0, 0); stroke-width: 2; fill: rgb(255, 255, 255); fill-opacity: 1;"/></g><g><circle cx="647.3680242487469" cy="374.8461966762635" r="15.913830462839549" style="stroke: rgb(0, 0, 0); stroke-width: 2; fill: rgb(255, 255, 255); fill-opacity: 1;"/></g><g><circle cx="487.111083984375" cy="43.33332824707031" r="15.913830462839549" style="stroke: rgb(0, 0, 0); stroke-width: 2; fill: rgb(255, 255, 255); fill-opacity: 1;"/></g><g><circle cx="268.111083984375" cy="37.33332824707031" r="15.913830462839549" style="stroke: rgb(0, 0, 0); stroke-width: 2; fill: rgb(255, 255, 255); fill-opacity: 1;"/></g><g><circle cx="168.111083984375" cy="543.3333282470703" r="15.913830462839549" style="stroke: rgb(0, 0, 0); stroke-width: 2; fill: rgb(255, 255, 255); fill-opacity: 1;"/></g><g><circle cx="74.111083984375" cy="360.3333282470703" r="15.913830462839549" style="stroke: rgb(0, 0, 0); stroke-width: 2; fill: rgb(255, 255, 255); fill-opacity: 1;"/></g><g><circle cx="679.111083984375" cy="351.3333282470703" r="15.913830462839549" style="stroke: rgb(0, 0, 0); stroke-width: 2; fill: rgb(255, 255, 255); fill-opacity: 1;"/></g><g><circle cx="605.111083984375" cy="544.3333282470703" r="15.913830462839549" style="stroke: rgb(0, 0, 0); stroke-width: 2; fill: rgb(255, 255, 255); fill-opacity: 1;"/></g></g><g/></svg>
        <svg xmlns="http://www.w3.org/2000/svg" xmlns:xlink="http://www.w3.org/1999/xlink" width="760" height="622.6666870117188" style="width:760px;height:622.6666870117188px;font-family:Asana-Math, Asana;background:transparent;"><g><g><g><text x="374.0555419921875" y="223.31944274902344" style="white-space:pre;stroke:none;fill:rgb(0,0,0);fill-opacity:1;font-size:15px;font-family:Arial, Helvetica, sans-serif;font-weight:400;font-style:normal;dominant-baseline:text-before-edge;text-decoration:none solid rgb(0, 0, 0);">1</text></g></g></g><g><g><g><text x="344.6805419921875" y="271.68055725097656" style="white-space:pre;stroke:none;fill:rgb(0,0,0);fill-opacity:1;font-size:15px;font-family:Arial, Helvetica, sans-serif;font-weight:400;font-style:normal;dominant-baseline:text-before-edge;text-decoration:none solid rgb(0, 0, 0);">2</text></g></g></g><g><g><g><text x="403.4166259765625" y="271.68055725097656" style="white-space:pre;stroke:none;fill:rgb(0,0,0);fill-opacity:1;font-size:15px;font-family:Arial, Helvetica, sans-serif;font-weight:400;font-style:normal;dominant-baseline:text-before-edge;text-decoration:none solid rgb(0, 0, 0);">3</text></g></g></g><g><g><g><text x="325.9305419921875" y="301.6666717529297" style="white-space:pre;stroke:none;fill:rgb(0,0,0);fill-opacity:1;font-size:15px;font-family:Arial, Helvetica, sans-serif;font-weight:400;font-style:normal;dominant-baseline:text-before-edge;text-decoration:none solid rgb(0, 0, 0);">4</text></g></g></g><g><g><g><text x="422.1666259765625" y="301.6666717529297" style="white-space:pre;stroke:none;fill:rgb(0,0,0);fill-opacity:1;font-size:15px;font-family:Arial, Helvetica, sans-serif;font-weight:400;font-style:normal;dominant-baseline:text-before-edge;text-decoration:none solid rgb(0, 0, 0);">7</text></g></g></g><g><g><g><text x="296.56939697265625" y="350.0277862548828" style="white-space:pre;stroke:none;fill:rgb(0,0,0);fill-opacity:1;font-size:15px;font-family:Arial, Helvetica, sans-serif;font-weight:400;font-style:normal;dominant-baseline:text-before-edge;text-decoration:none solid rgb(0, 0, 0);">5</text></g></g></g><g><g><g><text x="355.2916259765625" y="350.0277862548828" style="white-space:pre;stroke:none;fill:rgb(0,0,0);fill-opacity:1;font-size:15px;font-family:Arial, Helvetica, sans-serif;font-weight:400;font-style:normal;dominant-baseline:text-before-edge;text-decoration:none solid rgb(0, 0, 0);">6</text></g></g></g><g><g><g><text x="392.8055419921875" y="350.0277862548828" style="white-space:pre;stroke:none;fill:rgb(0,0,0);fill-opacity:1;font-size:15px;font-family:Arial, Helvetica, sans-serif;font-weight:400;font-style:normal;dominant-baseline:text-before-edge;text-decoration:none solid rgb(0, 0, 0);">8</text></g></g></g><g><g><g><text x="451.5416259765625" y="350.0277862548828" style="white-space:pre;stroke:none;fill:rgb(0,0,0);fill-opacity:1;font-size:15px;font-family:Arial, Helvetica, sans-serif;font-weight:400;font-style:normal;dominant-baseline:text-before-edge;text-decoration:none solid rgb(0, 0, 0);">9</text></g></g></g><g><g><g><text x="369.59027099609375" y="185.2083282470703" style="white-space:pre;stroke:none;fill:rgb(0,0,0);fill-opacity:1;font-size:15px;font-family:Arial, Helvetica, sans-serif;font-weight:400;font-style:normal;dominant-baseline:text-before-edge;text-decoration:none solid rgb(0, 0, 0);">10</text></g></g></g><g><g><g><text x="399.78472900390625" y="136.99998474121094" style="white-space:pre;stroke:none;fill:rgb(0,0,0);fill-opacity:1;font-size:15px;font-family:Arial, Helvetica, sans-serif;font-weight:400;font-style:normal;dominant-baseline:text-before-edge;text-decoration:none solid rgb(0, 0, 0);">11</text></g></g></g><g><g><g><text x="340.5625" y="136.5972137451172" style="white-space:pre;stroke:none;fill:rgb(0,0,0);fill-opacity:1;font-size:15px;font-family:Arial, Helvetica, sans-serif;font-weight:400;font-style:normal;dominant-baseline:text-before-edge;text-decoration:none solid rgb(0, 0, 0);">12</text></g></g></g><g><g><g><text x="417.32635498046875" y="106.65278625488281" style="white-space:pre;stroke:none;fill:rgb(0,0,0);fill-opacity:1;font-size:15px;font-family:Arial, Helvetica, sans-serif;font-weight:400;font-style:normal;dominant-baseline:text-before-edge;text-decoration:none solid rgb(0, 0, 0);">13</text></g></g></g><g><g><g><text x="322.02081298828125" y="105.54167175292969" style="white-space:pre;stroke:none;fill:rgb(0,0,0);fill-opacity:1;font-size:15px;font-family:Arial, Helvetica, sans-serif;font-weight:400;font-style:normal;dominant-baseline:text-before-edge;text-decoration:none solid rgb(0, 0, 0);">16</text></g></g></g><g><g><g><text x="446.96527099609375" y="58.44444274902344" style="white-space:pre;stroke:none;fill:rgb(0,0,0);fill-opacity:1;font-size:15px;font-family:Arial, Helvetica, sans-serif;font-weight:400;font-style:normal;dominant-baseline:text-before-edge;text-decoration:none solid rgb(0, 0, 0);">14</text></g></g></g><g><g><g><text x="388.298583984375" y="58.041656494140625" style="white-space:pre;stroke:none;fill:rgb(0,0,0);fill-opacity:1;font-size:15px;font-family:Arial, Helvetica, sans-serif;font-weight:400;font-style:normal;dominant-baseline:text-before-edge;text-decoration:none solid rgb(0, 0, 0);">15</text></g></g></g><g><g><g><text x="351.65972900390625" y="57.33332824707031" style="white-space:pre;stroke:none;fill:rgb(0,0,0);fill-opacity:1;font-size:15px;font-family:Arial, Helvetica, sans-serif;font-weight:400;font-style:normal;dominant-baseline:text-before-edge;text-decoration:none solid rgb(0, 0, 0);">17</text></g></g></g><g><g><g><text x="292.9930419921875" y="56.93055725097656" style="white-space:pre;stroke:none;fill:rgb(0,0,0);fill-opacity:1;font-size:15px;font-family:Arial, Helvetica, sans-serif;font-weight:400;font-style:normal;dominant-baseline:text-before-edge;text-decoration:none solid rgb(0, 0, 0);">18</text></g></g></g><g><g><g><text x="258.0625" y="368.9583282470703" style="white-space:pre;stroke:none;fill:rgb(0,0,0);fill-opacity:1;font-size:15px;font-family:Arial, Helvetica, sans-serif;font-weight:400;font-style:normal;dominant-baseline:text-before-edge;text-decoration:none solid rgb(0, 0, 0);">19</text></g></g></g><g><g><g><text x="199.4930419921875" y="365.7777862548828" style="white-space:pre;stroke:none;fill:rgb(0,0,0);fill-opacity:1;font-size:15px;font-family:Arial, Helvetica, sans-serif;font-weight:400;font-style:normal;dominant-baseline:text-before-edge;text-decoration:none solid rgb(0, 0, 0);">20</text></g></g></g><g><g><g><text x="225.96527099609375" y="415.7083282470703" style="white-space:pre;stroke:none;fill:rgb(0,0,0);fill-opacity:1;font-size:15px;font-family:Arial, Helvetica, sans-serif;font-weight:400;font-style:normal;dominant-baseline:text-before-edge;text-decoration:none solid rgb(0, 0, 0);">21</text></g></g></g><g><g><g><text x="162.9375" y="363.3472442626953" style="white-space:pre;stroke:none;fill:rgb(0,0,0);fill-opacity:1;font-size:15px;font-family:Arial, Helvetica, sans-serif;font-weight:400;font-style:normal;dominant-baseline:text-before-edge;text-decoration:none solid rgb(0, 0, 0);">22</text></g></g></g><g><g><g><text x="206.298583984375" y="445.16664123535156" style="white-space:pre;stroke:none;fill:rgb(0,0,0);fill-opacity:1;font-size:15px;font-family:Arial, Helvetica, sans-serif;font-weight:400;font-style:normal;dominant-baseline:text-before-edge;text-decoration:none solid rgb(0, 0, 0);">25</text></g></g></g><g><g><g><text x="104.3680419921875" y="360.16664123535156" style="white-space:pre;stroke:none;fill:rgb(0,0,0);fill-opacity:1;font-size:15px;font-family:Arial, Helvetica, sans-serif;font-weight:400;font-style:normal;dominant-baseline:text-before-edge;text-decoration:none solid rgb(0, 0, 0);">23</text></g></g></g><g><g><g><text x="130.82635498046875" y="410.0972442626953" style="white-space:pre;stroke:none;fill:rgb(0,0,0);fill-opacity:1;font-size:15px;font-family:Arial, Helvetica, sans-serif;font-weight:400;font-style:normal;dominant-baseline:text-before-edge;text-decoration:none solid rgb(0, 0, 0);">24</text></g></g></g><g><g><g><text x="147.7291259765625" y="441.98609924316406" style="white-space:pre;stroke:none;fill:rgb(0,0,0);fill-opacity:1;font-size:15px;font-family:Arial, Helvetica, sans-serif;font-weight:400;font-style:normal;dominant-baseline:text-before-edge;text-decoration:none solid rgb(0, 0, 0);">26</text></g></g></g><g><g><g><text x="174.1875" y="491.9027862548828" style="white-space:pre;stroke:none;fill:rgb(0,0,0);fill-opacity:1;font-size:15px;font-family:Arial, Helvetica, sans-serif;font-weight:400;font-style:normal;dominant-baseline:text-before-edge;text-decoration:none solid rgb(0, 0, 0);">27</text></g></g></g><g><g><g><text x="485.0625" y="368.25001525878906" style="white-space:pre;stroke:none;fill:rgb(0,0,0);fill-opacity:1;font-size:15px;font-family:Arial, Helvetica, sans-serif;font-weight:400;font-style:normal;dominant-baseline:text-before-edge;text-decoration:none solid rgb(0, 0, 0);">28</text></g></g></g><g><g><g><text x="514.90966796875" y="416.3333282470703" style="white-space:pre;stroke:none;fill:rgb(0,0,0);fill-opacity:1;font-size:15px;font-family:Arial, Helvetica, sans-serif;font-weight:400;font-style:normal;dominant-baseline:text-before-edge;text-decoration:none solid rgb(0, 0, 0);">29</text></g></g></g><g><g><g><text x="543.7152099609375" y="367.61109924316406" style="white-space:pre;stroke:none;fill:rgb(0,0,0);fill-opacity:1;font-size:15px;font-family:Arial, Helvetica, sans-serif;font-weight:400;font-style:normal;dominant-baseline:text-before-edge;text-decoration:none solid rgb(0, 0, 0);">30</text></g></g></g><g><g><g><text x="535.0625" y="450.9583282470703" style="white-space:pre;stroke:none;fill:rgb(0,0,0);fill-opacity:1;font-size:15px;font-family:Arial, Helvetica, sans-serif;font-weight:400;font-style:normal;dominant-baseline:text-before-edge;text-decoration:none solid rgb(0, 0, 0);">31</text></g></g></g><g><g><g><text x="580.3541259765625" y="366.75001525878906" style="white-space:pre;stroke:none;fill:rgb(0,0,0);fill-opacity:1;font-size:15px;font-family:Arial, Helvetica, sans-serif;font-weight:400;font-style:normal;dominant-baseline:text-before-edge;text-decoration:none solid rgb(0, 0, 0);">34</text></g></g></g><g><g><g><text x="562.9930419921875" y="494.7083282470703" style="white-space:pre;stroke:none;fill:rgb(0,0,0);fill-opacity:1;font-size:15px;font-family:Arial, Helvetica, sans-serif;font-weight:400;font-style:normal;dominant-baseline:text-before-edge;text-decoration:none solid rgb(0, 0, 0);">32</text></g></g></g><g><g><g><text x="591.798583984375" y="445.9722442626953" style="white-space:pre;stroke:none;fill:rgb(0,0,0);fill-opacity:1;font-size:15px;font-family:Arial, Helvetica, sans-serif;font-weight:400;font-style:normal;dominant-baseline:text-before-edge;text-decoration:none solid rgb(0, 0, 0);">33</text></g></g></g><g><g><g><text x="610.201416015625" y="414.8472442626953" style="white-space:pre;stroke:none;fill:rgb(0,0,0);fill-opacity:1;font-size:15px;font-family:Arial, Helvetica, sans-serif;font-weight:400;font-style:normal;dominant-baseline:text-before-edge;text-decoration:none solid rgb(0, 0, 0);">35</text></g></g></g><g><g><g><text x="639.0208740234375" y="366.11109924316406" style="white-space:pre;stroke:none;fill:rgb(0,0,0);fill-opacity:1;font-size:15px;font-family:Arial, Helvetica, sans-serif;font-weight:400;font-style:normal;dominant-baseline:text-before-edge;text-decoration:none solid rgb(0, 0, 0);">36</text></g></g></g><g><g><g><text x="478.7569580078125" y="34.59721374511719" style="white-space:pre;stroke:none;fill:rgb(0,0,0);fill-opacity:1;font-size:15px;font-family:Arial, Helvetica, sans-serif;font-weight:400;font-style:normal;dominant-baseline:text-before-edge;text-decoration:none solid rgb(0, 0, 0);">37</text></g></g></g><g><g><g><text x="259.75689697265625" y="28.597213745117188" style="white-space:pre;stroke:none;fill:rgb(0,0,0);fill-opacity:1;font-size:15px;font-family:Arial, Helvetica, sans-serif;font-weight:400;font-style:normal;dominant-baseline:text-before-edge;text-decoration:none solid rgb(0, 0, 0);">46</text></g></g></g><g><g><g><text x="159.75689697265625" y="534.6110992431641" style="white-space:pre;stroke:none;fill:rgb(0,0,0);fill-opacity:1;font-size:15px;font-family:Arial, Helvetica, sans-serif;font-weight:400;font-style:normal;dominant-baseline:text-before-edge;text-decoration:none solid rgb(0, 0, 0);">64</text></g></g></g><g><g><g><text x="65.75689697265625" y="351.61109924316406" style="white-space:pre;stroke:none;fill:rgb(0,0,0);fill-opacity:1;font-size:15px;font-family:Arial, Helvetica, sans-serif;font-weight:400;font-style:normal;dominant-baseline:text-before-edge;text-decoration:none solid rgb(0, 0, 0);">55</text></g></g></g><g><g><g><text x="670.7569580078125" y="342.61109924316406" style="white-space:pre;stroke:none;fill:rgb(0,0,0);fill-opacity:1;font-size:15px;font-family:Arial, Helvetica, sans-serif;font-weight:400;font-style:normal;dominant-baseline:text-before-edge;text-decoration:none solid rgb(0, 0, 0);">82</text></g></g></g><g><g><g><text x="596.7569580078125" y="535.6110992431641" style="white-space:pre;stroke:none;fill:rgb(0,0,0);fill-opacity:1;font-size:15px;font-family:Arial, Helvetica, sans-serif;font-weight:400;font-style:normal;dominant-baseline:text-before-edge;text-decoration:none solid rgb(0, 0, 0);">73</text></g></g></g><g><g><g><g><g><g><g transform="matrix(1,0,0,1,355.88885498046875,110.99998474121094)"><path transform="matrix(0.017,0,0,-0.017,0,0)" d="M275 482C208 482 55 419 55 259C55 182 100 136 177 136C185 136 196 136 207 137L166 99C150 84 139 66 139 52C139 42 146 31 160 19C91 -4 -37 -48 -37 -159C-37 -230 33 -276 142 -276C271 -276 384 -204 384 -121C384 -85 363 -49 320 -14L260 35C226 62 213 81 213 100C213 114 228 128 240 146C338 170 409 253 409 342C409 357 406 376 405 380C422 378 430 378 439 378C456 378 466 379 489 382L498 427L495 433C467 426 447 424 393 424C393 425 369 482 275 482ZM176 1L253 -58C299 -94 318 -121 318 -154C318 -206 249 -248 166 -248C84 -248 27 -206 27 -145C27 -43 137 -11 176 1ZM250 448C308 448 337 412 337 341C337 238 289 168 219 168C158 168 126 209 126 288C126 383 177 448 250 448Z" stroke="rgb(0,0,0)" stroke-opacity="1" stroke-width="0" fill="rgb(0,0,0)" fill-opacity="1"></path></g></g><g><g><g><g><g transform="matrix(1,0,0,1,364.875,114.89998474121094)"><path transform="matrix(0.0119,0,0,-0.0119,0,0)" d="M108 471C108 386 146 339 230 319L325 296C379 283 406 248 406 191C406 96 335 30 232 30C178 30 140 42 96 73L96 172L66 172C60 117 53 72 42 20C91 -5 144 -18 197 -18C352 -18 485 99 485 234C485 313 442 355 341 377L276 391C210 405 180 442 180 508C180 595 247 658 339 658C388 658 421 645 451 613L451 537L481 537C485 591 492 629 506 672C461 696 421 706 374 706C250 706 108 614 108 471Z" stroke="rgb(0,0,0)" stroke-opacity="1" stroke-width="0" fill="rgb(0,0,0)" fill-opacity="1"></path></g></g></g></g></g><g><g transform="matrix(1,0,0,1,377.59722900390625,110.99998474121094)"><path transform="matrix(0.017,0,0,-0.017,0,0)" d="M604 347L604 406L65 406L65 347ZM604 134L604 193L65 193L65 134Z" stroke="rgb(0,0,0)" stroke-opacity="1" stroke-width="0" fill="rgb(0,0,0)" fill-opacity="1"></path></g></g><g><g transform="matrix(1,0,0,1,394.0555419921875,110.99998474121094)"><path transform="matrix(0.017,0,0,-0.017,0,0)" d="M16 23L16 -3C203 -3 203 0 239 0C275 0 275 -3 468 -3L468 82C353 77 307 81 122 77L304 270C401 373 431 428 431 503C431 618 353 689 226 689C154 689 105 669 56 619L39 483L68 483L81 529C97 587 133 612 200 612C286 612 341 558 341 473C341 398 299 324 186 204Z" stroke="rgb(0,0,0)" stroke-opacity="1" stroke-width="0" fill="rgb(0,0,0)" fill-opacity="1"></path></g></g></g></g></g></g></g><g><g><g><g><g><g><g transform="matrix(1,0,0,1,355.88885498046875,315.99998474121094)"><path transform="matrix(0.017,0,0,-0.017,0,0)" d="M275 482C208 482 55 419 55 259C55 182 100 136 177 136C185 136 196 136 207 137L166 99C150 84 139 66 139 52C139 42 146 31 160 19C91 -4 -37 -48 -37 -159C-37 -230 33 -276 142 -276C271 -276 384 -204 384 -121C384 -85 363 -49 320 -14L260 35C226 62 213 81 213 100C213 114 228 128 240 146C338 170 409 253 409 342C409 357 406 376 405 380C422 378 430 378 439 378C456 378 466 379 489 382L498 427L495 433C467 426 447 424 393 424C393 425 369 482 275 482ZM176 1L253 -58C299 -94 318 -121 318 -154C318 -206 249 -248 166 -248C84 -248 27 -206 27 -145C27 -43 137 -11 176 1ZM250 448C308 448 337 412 337 341C337 238 289 168 219 168C158 168 126 209 126 288C126 383 177 448 250 448Z" stroke="rgb(0,0,0)" stroke-opacity="1" stroke-width="0" fill="rgb(0,0,0)" fill-opacity="1"></path></g></g><g><g><g><g><g transform="matrix(1,0,0,1,364.875,319.8999847412109)"><path transform="matrix(0.0119,0,0,-0.0119,0,0)" d="M108 471C108 386 146 339 230 319L325 296C379 283 406 248 406 191C406 96 335 30 232 30C178 30 140 42 96 73L96 172L66 172C60 117 53 72 42 20C91 -5 144 -18 197 -18C352 -18 485 99 485 234C485 313 442 355 341 377L276 391C210 405 180 442 180 508C180 595 247 658 339 658C388 658 421 645 451 613L451 537L481 537C485 591 492 629 506 672C461 696 421 706 374 706C250 706 108 614 108 471Z" stroke="rgb(0,0,0)" stroke-opacity="1" stroke-width="0" fill="rgb(0,0,0)" fill-opacity="1"></path></g></g></g></g></g><g><g transform="matrix(1,0,0,1,377.59722900390625,315.99998474121094)"><path transform="matrix(0.017,0,0,-0.017,0,0)" d="M604 347L604 406L65 406L65 347ZM604 134L604 193L65 193L65 134Z" stroke="rgb(0,0,0)" stroke-opacity="1" stroke-width="0" fill="rgb(0,0,0)" fill-opacity="1"></path></g></g><g><g transform="matrix(1,0,0,1,394.0555419921875,315.99998474121094)"><path transform="matrix(0.017,0,0,-0.017,0,0)" d="M16 23L16 -3C203 -3 203 0 239 0C275 0 275 -3 468 -3L468 82C353 77 307 81 122 77L304 270C401 373 431 428 431 503C431 618 353 689 226 689C154 689 105 669 56 619L39 483L68 483L81 529C97 587 133 612 200 612C286 612 341 558 341 473C341 398 299 324 186 204Z" stroke="rgb(0,0,0)" stroke-opacity="1" stroke-width="0" fill="rgb(0,0,0)" fill-opacity="1"></path></g></g></g></g></g></g></g><g><g><g><g><g><g><g transform="matrix(1,0,0,1,162.88885498046875,420.00001525878906)"><path transform="matrix(0.017,0,0,-0.017,0,0)" d="M275 482C208 482 55 419 55 259C55 182 100 136 177 136C185 136 196 136 207 137L166 99C150 84 139 66 139 52C139 42 146 31 160 19C91 -4 -37 -48 -37 -159C-37 -230 33 -276 142 -276C271 -276 384 -204 384 -121C384 -85 363 -49 320 -14L260 35C226 62 213 81 213 100C213 114 228 128 240 146C338 170 409 253 409 342C409 357 406 376 405 380C422 378 430 378 439 378C456 378 466 379 489 382L498 427L495 433C467 426 447 424 393 424C393 425 369 482 275 482ZM176 1L253 -58C299 -94 318 -121 318 -154C318 -206 249 -248 166 -248C84 -248 27 -206 27 -145C27 -43 137 -11 176 1ZM250 448C308 448 337 412 337 341C337 238 289 168 219 168C158 168 126 209 126 288C126 383 177 448 250 448Z" stroke="rgb(0,0,0)" stroke-opacity="1" stroke-width="0" fill="rgb(0,0,0)" fill-opacity="1"></path></g></g><g><g><g><g><g transform="matrix(1,0,0,1,171.875,423.90001525878904)"><path transform="matrix(0.0119,0,0,-0.0119,0,0)" d="M108 471C108 386 146 339 230 319L325 296C379 283 406 248 406 191C406 96 335 30 232 30C178 30 140 42 96 73L96 172L66 172C60 117 53 72 42 20C91 -5 144 -18 197 -18C352 -18 485 99 485 234C485 313 442 355 341 377L276 391C210 405 180 442 180 508C180 595 247 658 339 658C388 658 421 645 451 613L451 537L481 537C485 591 492 629 506 672C461 696 421 706 374 706C250 706 108 614 108 471Z" stroke="rgb(0,0,0)" stroke-opacity="1" stroke-width="0" fill="rgb(0,0,0)" fill-opacity="1"></path></g></g></g></g></g><g><g transform="matrix(1,0,0,1,184.59722900390625,420.00001525878906)"><path transform="matrix(0.017,0,0,-0.017,0,0)" d="M604 347L604 406L65 406L65 347ZM604 134L604 193L65 193L65 134Z" stroke="rgb(0,0,0)" stroke-opacity="1" stroke-width="0" fill="rgb(0,0,0)" fill-opacity="1"></path></g></g><g><g transform="matrix(1,0,0,1,201.0555419921875,420.00001525878906)"><path transform="matrix(0.017,0,0,-0.017,0,0)" d="M16 23L16 -3C203 -3 203 0 239 0C275 0 275 -3 468 -3L468 82C353 77 307 81 122 77L304 270C401 373 431 428 431 503C431 618 353 689 226 689C154 689 105 669 56 619L39 483L68 483L81 529C97 587 133 612 200 612C286 612 341 558 341 473C341 398 299 324 186 204Z" stroke="rgb(0,0,0)" stroke-opacity="1" stroke-width="0" fill="rgb(0,0,0)" fill-opacity="1"></path></g></g></g></g></g></g></g><g><g><g><g><g><g><g transform="matrix(1,0,0,1,547.888916015625,418.00001525878906)"><path transform="matrix(0.017,0,0,-0.017,0,0)" d="M275 482C208 482 55 419 55 259C55 182 100 136 177 136C185 136 196 136 207 137L166 99C150 84 139 66 139 52C139 42 146 31 160 19C91 -4 -37 -48 -37 -159C-37 -230 33 -276 142 -276C271 -276 384 -204 384 -121C384 -85 363 -49 320 -14L260 35C226 62 213 81 213 100C213 114 228 128 240 146C338 170 409 253 409 342C409 357 406 376 405 380C422 378 430 378 439 378C456 378 466 379 489 382L498 427L495 433C467 426 447 424 393 424C393 425 369 482 275 482ZM176 1L253 -58C299 -94 318 -121 318 -154C318 -206 249 -248 166 -248C84 -248 27 -206 27 -145C27 -43 137 -11 176 1ZM250 448C308 448 337 412 337 341C337 238 289 168 219 168C158 168 126 209 126 288C126 383 177 448 250 448Z" stroke="rgb(0,0,0)" stroke-opacity="1" stroke-width="0" fill="rgb(0,0,0)" fill-opacity="1"></path></g></g><g><g><g><g><g transform="matrix(1,0,0,1,556.875,421.90001525878904)"><path transform="matrix(0.0119,0,0,-0.0119,0,0)" d="M108 471C108 386 146 339 230 319L325 296C379 283 406 248 406 191C406 96 335 30 232 30C178 30 140 42 96 73L96 172L66 172C60 117 53 72 42 20C91 -5 144 -18 197 -18C352 -18 485 99 485 234C485 313 442 355 341 377L276 391C210 405 180 442 180 508C180 595 247 658 339 658C388 658 421 645 451 613L451 537L481 537C485 591 492 629 506 672C461 696 421 706 374 706C250 706 108 614 108 471Z" stroke="rgb(0,0,0)" stroke-opacity="1" stroke-width="0" fill="rgb(0,0,0)" fill-opacity="1"></path></g></g></g></g></g><g><g transform="matrix(1,0,0,1,569.59716796875,418.00001525878906)"><path transform="matrix(0.017,0,0,-0.017,0,0)" d="M604 347L604 406L65 406L65 347ZM604 134L604 193L65 193L65 134Z" stroke="rgb(0,0,0)" stroke-opacity="1" stroke-width="0" fill="rgb(0,0,0)" fill-opacity="1"></path></g></g><g><g transform="matrix(1,0,0,1,586.0555419921875,418.00001525878906)"><path transform="matrix(0.017,0,0,-0.017,0,0)" d="M16 23L16 -3C203 -3 203 0 239 0C275 0 275 -3 468 -3L468 82C353 77 307 81 122 77L304 270C401 373 431 428 431 503C431 618 353 689 226 689C154 689 105 669 56 619L39 483L68 483L81 529C97 587 133 612 200 612C286 612 341 558 341 473C341 398 299 324 186 204Z" stroke="rgb(0,0,0)" stroke-opacity="1" stroke-width="0" fill="rgb(0,0,0)" fill-opacity="1"></path></g></g></g></g></g></g></g><g transform="matrix(0.6190939493098341,0.7853169308807448,-0.7853169308807448,0.6190939493098341,365.6162636763276,-276.2382946556902)"><g><g><g><g><g><g transform="matrix(1,0,0,1,434.46527099609375,246.2577862548828)"><path transform="matrix(0.024480000000000002,0,0,-0.024480000000000002,0,0)" d="M275 482C208 482 55 419 55 259C55 182 100 136 177 136C185 136 196 136 207 137L166 99C150 84 139 66 139 52C139 42 146 31 160 19C91 -4 -37 -48 -37 -159C-37 -230 33 -276 142 -276C271 -276 384 -204 384 -121C384 -85 363 -49 320 -14L260 35C226 62 213 81 213 100C213 114 228 128 240 146C338 170 409 253 409 342C409 357 406 376 405 380C422 378 430 378 439 378C456 378 466 379 489 382L498 427L495 433C467 426 447 424 393 424C393 425 369 482 275 482ZM176 1L253 -58C299 -94 318 -121 318 -154C318 -206 249 -248 166 -248C84 -248 27 -206 27 -145C27 -43 137 -11 176 1ZM250 448C308 448 337 412 337 341C337 238 289 168 219 168C158 168 126 209 126 288C126 383 177 448 250 448Z" stroke="rgb(0,0,0)" stroke-opacity="1" stroke-width="0" fill="rgb(0,0,0)" fill-opacity="1"></path></g></g><g><g><g><g><g transform="matrix(1,0,0,1,447.40966796875,251.4693282470703)"><path transform="matrix(0.017136,0,0,-0.017136,0,0)" d="M483 722L471 733C419 707 383 698 311 691L307 670L355 670C379 670 389 663 389 646C389 638 388 629 387 622L359 468C329 477 302 482 277 482C208 482 114 410 68 323C37 265 17 170 17 86C17 21 32 -11 61 -11C88 -11 125 6 159 33C213 77 246 116 313 217L290 126C279 82 274 50 274 24C274 3 283 -9 300 -9C317 -9 341 3 375 28L456 88L446 107L402 76C388 66 372 59 363 59C355 59 349 68 349 82C349 90 350 99 357 128ZM114 59C98 59 89 73 89 98C89 224 135 380 184 418C197 428 216 433 243 433C287 433 316 427 349 410L337 351C300 171 159 59 114 59Z" stroke="rgb(0,0,0)" stroke-opacity="1" stroke-width="0" fill="rgb(0,0,0)" fill-opacity="1"></path></g></g></g></g></g><g><g transform="matrix(1,0,0,1,464.7569580078125,246.2577862548828)"><path transform="matrix(0.024480000000000002,0,0,-0.024480000000000002,0,0)" d="M604 347L604 406L65 406L65 347ZM604 134L604 193L65 193L65 134Z" stroke="rgb(0,0,0)" stroke-opacity="1" stroke-width="0" fill="rgb(0,0,0)" fill-opacity="1"></path></g></g><g><g transform="matrix(1,0,0,1,488.451416015625,246.2577862548828)"><path transform="matrix(0.024480000000000002,0,0,-0.024480000000000002,0,0)" d="M263 689C108 689 29 566 29 324C29 207 50 106 85 57C120 8 176 -20 238 -20C389 -20 465 110 465 366C465 585 400 689 263 689ZM245 654C342 654 381 556 381 316C381 103 343 15 251 15C154 15 113 116 113 360C113 571 150 654 245 654Z" stroke="rgb(0,0,0)" stroke-opacity="1" stroke-width="0" fill="rgb(0,0,0)" fill-opacity="1"></path></g></g></g></g></g></g></g><g transform="matrix(0.6190939493098341,0.7853169308807448,-0.7853169308807448,0.6190939493098341,336.62100998013125,-382.4585573647031)"><g><g><g><g><g><g transform="matrix(1,0,0,1,529.4652099609375,163.2577862548828)"><path transform="matrix(0.024480000000000002,0,0,-0.024480000000000002,0,0)" d="M275 482C208 482 55 419 55 259C55 182 100 136 177 136C185 136 196 136 207 137L166 99C150 84 139 66 139 52C139 42 146 31 160 19C91 -4 -37 -48 -37 -159C-37 -230 33 -276 142 -276C271 -276 384 -204 384 -121C384 -85 363 -49 320 -14L260 35C226 62 213 81 213 100C213 114 228 128 240 146C338 170 409 253 409 342C409 357 406 376 405 380C422 378 430 378 439 378C456 378 466 379 489 382L498 427L495 433C467 426 447 424 393 424C393 425 369 482 275 482ZM176 1L253 -58C299 -94 318 -121 318 -154C318 -206 249 -248 166 -248C84 -248 27 -206 27 -145C27 -43 137 -11 176 1ZM250 448C308 448 337 412 337 341C337 238 289 168 219 168C158 168 126 209 126 288C126 383 177 448 250 448Z" stroke="rgb(0,0,0)" stroke-opacity="1" stroke-width="0" fill="rgb(0,0,0)" fill-opacity="1"></path></g></g><g><g><g><g><g transform="matrix(1,0,0,1,542.40966796875,168.4693282470703)"><path transform="matrix(0.017136,0,0,-0.017136,0,0)" d="M483 722L471 733C419 707 383 698 311 691L307 670L355 670C379 670 389 663 389 646C389 638 388 629 387 622L359 468C329 477 302 482 277 482C208 482 114 410 68 323C37 265 17 170 17 86C17 21 32 -11 61 -11C88 -11 125 6 159 33C213 77 246 116 313 217L290 126C279 82 274 50 274 24C274 3 283 -9 300 -9C317 -9 341 3 375 28L456 88L446 107L402 76C388 66 372 59 363 59C355 59 349 68 349 82C349 90 350 99 357 128ZM114 59C98 59 89 73 89 98C89 224 135 380 184 418C197 428 216 433 243 433C287 433 316 427 349 410L337 351C300 171 159 59 114 59Z" stroke="rgb(0,0,0)" stroke-opacity="1" stroke-width="0" fill="rgb(0,0,0)" fill-opacity="1"></path></g></g></g></g></g><g><g transform="matrix(1,0,0,1,559.7569580078125,163.2577862548828)"><path transform="matrix(0.024480000000000002,0,0,-0.024480000000000002,0,0)" d="M604 347L604 406L65 406L65 347ZM604 134L604 193L65 193L65 134Z" stroke="rgb(0,0,0)" stroke-opacity="1" stroke-width="0" fill="rgb(0,0,0)" fill-opacity="1"></path></g></g><g><g transform="matrix(1,0,0,1,583.451416015625,163.2577862548828)"><path transform="matrix(0.024480000000000002,0,0,-0.024480000000000002,0,0)" d="M418 -3L418 27L366 30C311 33 301 44 301 96L301 700L60 598L67 548L217 614L217 96C217 44 206 33 152 30L96 27L96 -3C250 0 250 0 261 0C292 0 402 -3 418 -3Z" stroke="rgb(0,0,0)" stroke-opacity="1" stroke-width="0" fill="rgb(0,0,0)" fill-opacity="1"></path></g></g></g></g></g></g></g></svg>
</svg>
