<svg xmlns="http://www.w3.org/2000/svg" xmlns:xlink="http://www.w3.org/1999/xlink" x="0" y="0" width="1661.77783203125" height="734.5277709960938" style="
        width:1661.77783203125px;
        height:734.5277709960938px;
        background: transparent;
        fill: none;
">
        
        
        <svg xmlns="http://www.w3.org/2000/svg" class="role-diagram-draw-area"><g class="shapes-region" style="stroke: black; fill: none;"><g class="arrow-line"><path class="connection real" stroke-dasharray="6 6" d="  M222.62,402.99 C360.11,422.22 595.11,641.78 848.4,580.75" style="stroke: rgb(0, 0, 0); stroke-width: 1; fill: none; fill-opacity: 1;"/></g><g class="arrow-line"><path class="connection real" stroke-dasharray="6 6" d="  M222.62,402.99 C360.11,422.22 595.11,428.22 848.4,367.19" style="stroke: rgb(0, 0, 0); stroke-width: 1; fill: none; fill-opacity: 1;"/></g><g class="grouped-shape"><g class="grouped-shape"><g class="composite-shape"><path class="real" d=" M250.61,39.3 L300.31,129.77 L200.91,129.77 Z" style="stroke-width: 4; stroke: rgb(0, 0, 0); fill: none; fill-opacity: 1;"/></g><g class="composite-shape"><path class="real" d=" M250.61,39.3 L268.86,73.17 L232.36,73.17 Z" style="stroke-width: 4; stroke: rgb(0, 0, 0); fill: none; fill-opacity: 1;"/></g><g class="composite-shape"><path class="real" d=" M219.16,95.9 L237.41,129.77 L200.91,129.77 Z" style="stroke-width: 4; stroke: rgb(0, 0, 0); fill: none; fill-opacity: 1;"/></g><g class="composite-shape"><path class="real" d=" M282.06,95.9 L300.31,129.77 L263.82,129.77 Z" style="stroke-width: 4; stroke: rgb(0, 0, 0); fill: none; fill-opacity: 1;"/></g></g><g class="composite-shape"><path class="real" d=" M242.81,39.3 C242.81,35.12 246.3,31.74 250.61,31.74 C254.92,31.74 258.41,35.12 258.41,39.3 C258.41,43.48 254.92,46.86 250.61,46.86 C246.3,46.86 242.81,43.48 242.81,39.3 Z" style="stroke-width: 1; stroke: rgb(0, 0, 0); fill: rgb(0, 0, 0); fill-opacity: 1;"/></g><g class="composite-shape"><path class="real" d=" M224.56,73.17 C224.56,69 228.06,65.61 232.36,65.61 C236.67,65.61 240.17,69 240.17,73.17 C240.17,77.35 236.67,80.73 232.36,80.73 C228.06,80.73 224.56,77.35 224.56,73.17 Z" style="stroke-width: 1; stroke: rgb(0, 0, 0); fill: rgb(0, 0, 0); fill-opacity: 1;"/></g><g class="composite-shape"><path class="real" d=" M261.06,73.17 C261.06,69 264.55,65.61 268.86,65.61 C273.17,65.61 276.66,69 276.66,73.17 C276.66,77.35 273.17,80.73 268.86,80.73 C264.55,80.73 261.06,77.35 261.06,73.17 Z" style="stroke-width: 1; stroke: rgb(0, 0, 0); fill: rgb(0, 0, 0); fill-opacity: 1;"/></g><g class="composite-shape"><path class="real" d=" M211.36,95.9 C211.36,91.72 214.85,88.34 219.16,88.34 C223.47,88.34 226.96,91.72 226.96,95.9 C226.96,100.08 223.47,103.46 219.16,103.46 C214.85,103.46 211.36,100.08 211.36,95.9 Z" style="stroke-width: 1; stroke: rgb(0, 0, 0); fill: rgb(0, 0, 0); fill-opacity: 1;"/></g><g class="composite-shape"><path class="real" d=" M274.26,95.9 C274.26,91.72 277.75,88.34 282.06,88.34 C286.37,88.34 289.86,91.72 289.86,95.9 C289.86,100.08 286.37,103.46 282.06,103.46 C277.75,103.46 274.26,100.08 274.26,95.9 Z" style="stroke-width: 1; stroke: rgb(0, 0, 0); fill: rgb(0, 0, 0); fill-opacity: 1;"/></g><g class="composite-shape"><path class="real" d=" M292.51,129.77 C292.51,125.59 296,122.21 300.31,122.21 C304.62,122.21 308.11,125.59 308.11,129.77 C308.11,133.95 304.62,137.33 300.31,137.33 C296,137.33 292.51,133.95 292.51,129.77 Z" style="stroke-width: 1; stroke: rgb(0, 0, 0); fill: rgb(0, 0, 0); fill-opacity: 1;"/></g><g class="composite-shape"><path class="real" d=" M256.01,129.77 C256.01,125.59 259.51,122.21 263.82,122.21 C268.12,122.21 271.62,125.59 271.62,129.77 C271.62,133.95 268.12,137.33 263.82,137.33 C259.51,137.33 256.01,133.95 256.01,129.77 Z" style="stroke-width: 1; stroke: rgb(0, 0, 0); fill: rgb(0, 0, 0); fill-opacity: 1;"/></g><g class="composite-shape"><path class="real" d=" M229.61,129.77 C229.61,125.59 233.1,122.21 237.41,122.21 C241.72,122.21 245.21,125.59 245.21,129.77 C245.21,133.95 241.72,137.33 237.41,137.33 C233.1,137.33 229.61,133.95 229.61,129.77 Z" style="stroke-width: 1; stroke: rgb(0, 0, 0); fill: rgb(0, 0, 0); fill-opacity: 1;"/></g><g class="composite-shape"><path class="real" d=" M193.11,129.77 C193.11,125.59 196.6,122.21 200.91,122.21 C205.22,122.21 208.72,125.59 208.72,129.77 C208.72,133.95 205.22,137.33 200.91,137.33 C196.6,137.33 193.11,133.95 193.11,129.77 Z" style="stroke-width: 1; stroke: rgb(0, 0, 0); fill: rgb(0, 0, 0); fill-opacity: 1;"/></g></g><g class="grouped-shape"><g class="arrow-line"><path class="connection real" stroke-dasharray="" d="  M150.31,230.58 L150.31,316.78" style="stroke: rgb(0, 0, 0); stroke-width: 3; fill: none; fill-opacity: 1;"/></g><g class="arrow-line"><path class="connection real" stroke-dasharray="" d="  M150.31,316.78 L78,402.99" style="stroke: rgb(0, 0, 0); stroke-width: 3; fill: none; fill-opacity: 1;"/></g><g class="arrow-line"><path class="connection real" stroke-dasharray="" d="  M222.62,402.99 L150.31,316.78" style="stroke: rgb(0, 0, 0); stroke-width: 3; fill: none; fill-opacity: 1;"/></g><g class="composite-shape"><path class="real" d=" M138.96,230.58 C138.96,222.62 144.04,216.17 150.31,216.17 C156.58,216.17 161.66,222.62 161.66,230.58 C161.66,238.54 156.58,244.99 150.31,244.99 C144.04,244.99 138.96,238.54 138.96,230.58 Z" style="stroke-width: 1; stroke: rgb(0, 0, 0); fill: rgb(255, 255, 255); fill-opacity: 1;"/></g><g class="composite-shape"><path class="real" d=" M211.27,402.99 C211.27,395.03 216.35,388.58 222.62,388.58 C228.89,388.58 233.98,395.03 233.98,402.99 C233.98,410.95 228.89,417.4 222.62,417.4 C216.35,417.4 211.27,410.95 211.27,402.99 Z" style="stroke-width: 1; stroke: rgb(0, 0, 0); fill: rgb(255, 255, 255); fill-opacity: 1;"/></g><g class="composite-shape"><path class="real" d=" M66.65,402.99 C66.65,395.03 71.73,388.58 78,388.58 C84.27,388.58 89.35,395.03 89.35,402.99 C89.35,410.95 84.27,417.4 78,417.4 C71.73,417.4 66.65,410.95 66.65,402.99 Z" style="stroke-width: 1; stroke: rgb(0, 0, 0); fill: rgb(255, 255, 255); fill-opacity: 1;"/></g><g class="composite-shape"><path class="real" d=" M138.96,316.78 C138.96,308.83 144.04,302.37 150.31,302.37 C156.58,302.37 161.66,308.83 161.66,316.78 C161.66,324.74 156.58,331.2 150.31,331.2 C144.04,331.2 138.96,324.74 138.96,316.78 Z" style="stroke-width: 1; stroke: rgb(0, 0, 0); fill: rgb(255, 255, 255); fill-opacity: 1;"/></g></g><g class="composite-shape"><path class="real" d=" M531.67,-194 L569.66,-141.75 L465.01,-141.75 Z" style="stroke-width: 1; stroke: rgb(0, 0, 0); fill: none; fill-opacity: 1;"/></g><g class="composite-shape"><path class="real" d=" M13.96,76.58 C13.96,68.62 19.04,62.17 25.31,62.17 C31.58,62.17 36.66,68.62 36.66,76.58 C36.66,84.54 31.58,90.99 25.31,90.99 C19.04,90.99 13.96,84.54 13.96,76.58 Z" style="stroke-width: 1; stroke: rgb(0, 0, 0); fill: rgb(255, 255, 255); fill-opacity: 1;"/></g><g class="composite-shape"><path class="real" d=" M58,69 L139.07,69 L139.07,59 L193.11,79 L139.07,99 L139.07,89 L58,89 Z" style="stroke-width: 1; stroke: rgb(0, 0, 0); fill: rgb(0, 0, 0); fill-opacity: 1;"/></g><g class="composite-shape"><path class="real" d=" M539,132.44 C539,73.47 586.81,25.67 645.78,25.67 C704.75,25.67 752.56,73.47 752.56,132.44 C752.56,191.42 704.75,239.22 645.78,239.22 C586.81,239.22 539,191.42 539,132.44 Z" style="stroke-width: 1; stroke: rgb(0, 0, 0); fill: rgb(255, 255, 255); fill-opacity: 1; stroke-dasharray: 6, 6;"/></g><g class="composite-shape"><path class="real" d=" M540.62,353.97 C540.62,295 588.43,247.19 647.4,247.19 C706.37,247.19 754.18,295 754.18,353.97 C754.18,412.94 706.37,460.75 647.4,460.75 C588.43,460.75 540.62,412.94 540.62,353.97 Z" style="stroke-width: 1; stroke: rgb(0, 0, 0); fill: rgb(255, 255, 255); fill-opacity: 1; stroke-dasharray: 6, 6;"/></g><g class="composite-shape"><path class="real" d=" M741.62,473.97 C741.62,415 789.43,367.19 848.4,367.19 C907.37,367.19 955.18,415 955.18,473.97 C955.18,532.94 907.37,580.75 848.4,580.75 C789.43,580.75 741.62,532.94 741.62,473.97 Z" style="stroke-width: 1; stroke: rgb(0, 0, 0); fill: rgb(255, 255, 255); fill-opacity: 1; stroke-dasharray: 6, 6;"/></g><g class="composite-shape"><path class="real" d=" M339.62,467.97 C339.62,409 387.43,361.19 446.4,361.19 C505.37,361.19 553.18,409 553.18,467.97 C553.18,526.94 505.37,574.75 446.4,574.75 C387.43,574.75 339.62,526.94 339.62,467.97 Z" style="stroke-width: 1; stroke: rgb(0, 0, 0); fill: rgb(255, 255, 255); fill-opacity: 1; stroke-dasharray: 6, 6;"/></g><g class="arrow-line"><path class="connection real" stroke-dasharray="6 6" d="  M150.31,230.58 C529.11,147.67 523.11,65.22 600.11,38.22" style="stroke: rgb(0, 0, 0); stroke-width: 1; fill: none; fill-opacity: 1;"/></g><g class="arrow-line"><path class="connection real" stroke-dasharray="6 6" d="  M150.31,230.58 C587.11,130.22 508.11,229.67 645.78,239.22" style="stroke: rgb(0, 0, 0); stroke-width: 1; fill: none; fill-opacity: 1;"/></g><g class="arrow-line"><path class="connection real" stroke-dasharray="6 6" d="  M150.31,316.78 C529.11,233.87 548.11,275.22 625.11,248.22" style="stroke: rgb(0, 0, 0); stroke-width: 1; fill: none; fill-opacity: 1;"/></g><g class="arrow-line"><path class="connection real" stroke-dasharray="6 6" d="  M150.31,316.78 C424.11,256.22 530.11,352.22 554.11,411.22" style="stroke: rgb(0, 0, 0); stroke-width: 1; fill: none; fill-opacity: 1;"/></g><g class="arrow-line"><path class="connection real" stroke-dasharray="6 6" d="  M78,402.99 C131.11,408.22 272.11,352.22 446.4,361.19" style="stroke: rgb(0, 0, 0); stroke-width: 1; fill: none; fill-opacity: 1;"/></g><g class="arrow-line"><path class="connection real" stroke-dasharray="6 6" d="  M78,402.99 C250.11,405.22 272.11,565.78 446.4,574.75" style="stroke: rgb(0, 0, 0); stroke-width: 1; fill: none; fill-opacity: 1;"/></g><g class="grouped-shape"><g class="grouped-shape"><g class="composite-shape"><path class="real" d=" M647.56,268 L728.11,406.33 L567,406.33 Z" style="stroke-width: 3; stroke: rgb(0, 0, 0); fill: none; fill-opacity: 1;"/></g><g class="composite-shape"><path class="real" d=" M647.56,268 L678.08,320.8 L617.03,320.8 Z" style="stroke-width: 3; stroke: rgb(0, 0, 0); fill: none; fill-opacity: 1;"/></g><g class="composite-shape"><path class="real" d=" M597.53,353.54 L628.06,406.33 L567,406.33 Z" style="stroke-width: 3; stroke: rgb(0, 0, 0); fill: none; fill-opacity: 1;"/></g><g class="composite-shape"><path class="real" d=" M697.58,353.54 L728.11,406.33 L667.06,406.33 Z" style="stroke-width: 3; stroke: rgb(0, 0, 0); fill: none; fill-opacity: 1;"/></g></g><g class="grouped-shape"><g class="composite-shape"><path class="real" d=" M727.68,87.98 L647.24,226.38 L567.61,86.32 Z" style="stroke-width: 3; stroke: rgb(0, 0, 0); fill: none; fill-opacity: 1;"/></g><g class="composite-shape"><path class="real" d=" M727.68,87.98 L696.87,140.61 L666.7,87.54 Z" style="stroke-width: 3; stroke: rgb(0, 0, 0); fill: none; fill-opacity: 1;"/></g><g class="composite-shape"><path class="real" d=" M628.6,86.77 L597.79,139.4 L567.61,86.32 Z" style="stroke-width: 3; stroke: rgb(0, 0, 0); fill: none; fill-opacity: 1;"/></g><g class="composite-shape"><path class="real" d=" M678.05,173.75 L647.24,226.38 L617.07,173.3 Z" style="stroke-width: 3; stroke: rgb(0, 0, 0); fill: none; fill-opacity: 1;"/></g></g><g class="grouped-shape"><g class="composite-shape"><path class="real" d=" M531.3,427 L444.1,561.25 L371.51,417.42 Z" style="stroke-width: 3; stroke: rgb(0, 0, 0); fill: none; fill-opacity: 1;"/></g><g class="composite-shape"><path class="real" d=" M531.3,427 L497.92,478.04 L470.42,423.54 Z" style="stroke-width: 3; stroke: rgb(0, 0, 0); fill: none; fill-opacity: 1;"/></g><g class="composite-shape"><path class="real" d=" M432.4,420.88 L399.02,471.92 L371.51,417.42 Z" style="stroke-width: 3; stroke: rgb(0, 0, 0); fill: none; fill-opacity: 1;"/></g><g class="composite-shape"><path class="real" d=" M477.48,510.2 L444.1,561.25 L416.59,506.74 Z" style="stroke-width: 3; stroke: rgb(0, 0, 0); fill: none; fill-opacity: 1;"/></g></g><g class="grouped-shape"><g class="composite-shape"><path class="real" d=" M767.28,426.23 L927.35,423.9 L848.31,564.29 Z" style="stroke-width: 3; stroke: rgb(0, 0, 0); fill: none; fill-opacity: 1;"/></g><g class="composite-shape"><path class="real" d=" M767.28,426.23 L828.27,425.53 L798.31,478.74 Z" style="stroke-width: 3; stroke: rgb(0, 0, 0); fill: none; fill-opacity: 1;"/></g><g class="composite-shape"><path class="real" d=" M817.28,511.79 L878.26,511.09 L848.31,564.29 Z" style="stroke-width: 3; stroke: rgb(0, 0, 0); fill: none; fill-opacity: 1;"/></g><g class="composite-shape"><path class="real" d=" M866.36,424.6 L927.35,423.9 L897.39,477.11 Z" style="stroke-width: 3; stroke: rgb(0, 0, 0); fill: none; fill-opacity: 1;"/></g></g><g class="arrow-line"><path class="connection real" stroke-dasharray="" d="  M647.24,226.38 L647.56,268" style="stroke: rgb(0, 0, 0); stroke-width: 3; fill: none; fill-opacity: 1;"/></g><g class="arrow-line"><path class="connection real" stroke-dasharray="" d="  M567,406.33 L531.3,427" style="stroke: rgb(0, 0, 0); stroke-width: 3; fill: none; fill-opacity: 1;"/></g><g class="arrow-line"><path class="connection real" stroke-dasharray="" d="  M728.11,406.33 L767.28,426.23" style="stroke: rgb(0, 0, 0); stroke-width: 3; fill: none; fill-opacity: 1;"/></g><g class="composite-shape"><path class="real" d=" M640.68,268 C640.68,264.2 643.76,261.12 647.56,261.12 C651.35,261.12 654.43,264.2 654.43,268 C654.43,271.8 651.35,274.88 647.56,274.88 C643.76,274.88 640.68,271.8 640.68,268 Z" style="stroke-width: 1; stroke: rgb(0, 0, 0); fill: rgb(0, 0, 0); fill-opacity: 1;"/></g><g class="composite-shape"><path class="real" d=" M610.15,320.8 C610.15,317 613.23,313.92 617.03,313.92 C620.83,313.92 623.91,317 623.91,320.8 C623.91,324.59 620.83,327.67 617.03,327.67 C613.23,327.67 610.15,324.59 610.15,320.8 Z" style="stroke-width: 1; stroke: rgb(0, 0, 0); fill: rgb(0, 0, 0); fill-opacity: 1;"/></g><g class="composite-shape"><path class="real" d=" M671.21,320.8 C671.21,317 674.28,313.92 678.08,313.92 C681.88,313.92 684.96,317 684.96,320.8 C684.96,324.59 681.88,327.67 678.08,327.67 C674.28,327.67 671.21,324.59 671.21,320.8 Z" style="stroke-width: 1; stroke: rgb(0, 0, 0); fill: rgb(0, 0, 0); fill-opacity: 1;"/></g><g class="composite-shape"><path class="real" d=" M590.65,353.54 C590.65,349.74 593.73,346.66 597.53,346.66 C601.33,346.66 604.41,349.74 604.41,353.54 C604.41,357.34 601.33,360.41 597.53,360.41 C593.73,360.41 590.65,357.34 590.65,353.54 Z" style="stroke-width: 1; stroke: rgb(0, 0, 0); fill: rgb(0, 0, 0); fill-opacity: 1;"/></g><g class="composite-shape"><path class="real" d=" M690.71,353.54 C690.71,349.74 693.78,346.66 697.58,346.66 C701.38,346.66 704.46,349.74 704.46,353.54 C704.46,357.34 701.38,360.41 697.58,360.41 C693.78,360.41 690.71,357.34 690.71,353.54 Z" style="stroke-width: 1; stroke: rgb(0, 0, 0); fill: rgb(0, 0, 0); fill-opacity: 1;"/></g><g class="composite-shape"><path class="real" d=" M560.12,406.33 C560.12,402.53 563.2,399.46 567,399.46 C570.8,399.46 573.88,402.53 573.88,406.33 C573.88,410.13 570.8,413.21 567,413.21 C563.2,413.21 560.12,410.13 560.12,406.33 Z" style="stroke-width: 1; stroke: rgb(0, 0, 0); fill: rgb(0, 0, 0); fill-opacity: 1;"/></g><g class="composite-shape"><path class="real" d=" M621.18,406.33 C621.18,402.53 624.26,399.46 628.06,399.46 C631.85,399.46 634.93,402.53 634.93,406.33 C634.93,410.13 631.85,413.21 628.06,413.21 C624.26,413.21 621.18,410.13 621.18,406.33 Z" style="stroke-width: 1; stroke: rgb(0, 0, 0); fill: rgb(0, 0, 0); fill-opacity: 1;"/></g><g class="composite-shape"><path class="real" d=" M660.18,406.33 C660.18,402.53 663.26,399.46 667.06,399.46 C670.85,399.46 673.93,402.53 673.93,406.33 C673.93,410.13 670.85,413.21 667.06,413.21 C663.26,413.21 660.18,410.13 660.18,406.33 Z" style="stroke-width: 1; stroke: rgb(0, 0, 0); fill: rgb(0, 0, 0); fill-opacity: 1;"/></g><g class="composite-shape"><path class="real" d=" M721.23,406.33 C721.23,402.53 724.31,399.46 728.11,399.46 C731.91,399.46 734.99,402.53 734.99,406.33 C734.99,410.13 731.91,413.21 728.11,413.21 C724.31,413.21 721.23,410.13 721.23,406.33 Z" style="stroke-width: 1; stroke: rgb(0, 0, 0); fill: rgb(0, 0, 0); fill-opacity: 1;"/></g><g class="composite-shape"><path class="real" d=" M640.36,226.38 C640.36,222.58 643.44,219.5 647.24,219.5 C651.04,219.5 654.12,222.58 654.12,226.38 C654.12,230.18 651.04,233.26 647.24,233.26 C643.44,233.26 640.36,230.18 640.36,226.38 Z" style="stroke-width: 1; stroke: rgb(0, 0, 0); fill: rgb(0, 0, 0); fill-opacity: 1;"/></g><g class="composite-shape"><path class="real" d=" M610.19,173.3 C610.19,169.51 613.27,166.43 617.07,166.43 C620.86,166.43 623.94,169.51 623.94,173.3 C623.94,177.1 620.86,180.18 617.07,180.18 C613.27,180.18 610.19,177.1 610.19,173.3 Z" style="stroke-width: 1; stroke: rgb(0, 0, 0); fill: rgb(0, 0, 0); fill-opacity: 1;"/></g><g class="composite-shape"><path class="real" d=" M671.17,173.75 C671.17,169.95 674.25,166.87 678.05,166.87 C681.85,166.87 684.93,169.95 684.93,173.75 C684.93,177.55 681.85,180.63 678.05,180.63 C674.25,180.63 671.17,177.55 671.17,173.75 Z" style="stroke-width: 1; stroke: rgb(0, 0, 0); fill: rgb(0, 0, 0); fill-opacity: 1;"/></g><g class="composite-shape"><path class="real" d=" M590.91,139.4 C590.91,135.6 593.99,132.52 597.79,132.52 C601.59,132.52 604.67,135.6 604.67,139.4 C604.67,143.2 601.59,146.28 597.79,146.28 C593.99,146.28 590.91,143.2 590.91,139.4 Z" style="stroke-width: 1; stroke: rgb(0, 0, 0); fill: rgb(0, 0, 0); fill-opacity: 1;"/></g><g class="composite-shape"><path class="real" d=" M560.74,86.32 C560.74,82.52 563.81,79.45 567.61,79.45 C571.41,79.45 574.49,82.52 574.49,86.32 C574.49,90.12 571.41,93.2 567.61,93.2 C563.81,93.2 560.74,90.12 560.74,86.32 Z" style="stroke-width: 1; stroke: rgb(0, 0, 0); fill: rgb(0, 0, 0); fill-opacity: 1;"/></g><g class="composite-shape"><path class="real" d=" M621.72,86.77 C621.72,82.97 624.8,79.89 628.6,79.89 C632.4,79.89 635.48,82.97 635.48,86.77 C635.48,90.57 632.4,93.65 628.6,93.65 C624.8,93.65 621.72,90.57 621.72,86.77 Z" style="stroke-width: 1; stroke: rgb(0, 0, 0); fill: rgb(0, 0, 0); fill-opacity: 1;"/></g><g class="composite-shape"><path class="real" d=" M690,140.61 C690,136.82 693.08,133.74 696.87,133.74 C700.67,133.74 703.75,136.82 703.75,140.61 C703.75,144.41 700.67,147.49 696.87,147.49 C693.08,147.49 690,144.41 690,140.61 Z" style="stroke-width: 1; stroke: rgb(0, 0, 0); fill: rgb(0, 0, 0); fill-opacity: 1;"/></g><g class="composite-shape"><path class="real" d=" M659.82,87.54 C659.82,83.74 662.9,80.66 666.7,80.66 C670.5,80.66 673.58,83.74 673.58,87.54 C673.58,91.34 670.5,94.41 666.7,94.41 C662.9,94.41 659.82,91.34 659.82,87.54 Z" style="stroke-width: 1; stroke: rgb(0, 0, 0); fill: rgb(0, 0, 0); fill-opacity: 1;"/></g><g class="composite-shape"><path class="real" d=" M720.81,87.98 C720.81,84.18 723.89,81.1 727.68,81.1 C731.48,81.1 734.56,84.18 734.56,87.98 C734.56,91.78 731.48,94.86 727.68,94.86 C723.89,94.86 720.81,91.78 720.81,87.98 Z" style="stroke-width: 1; stroke: rgb(0, 0, 0); fill: rgb(0, 0, 0); fill-opacity: 1;"/></g><g class="composite-shape"><path class="real" d=" M463.54,423.54 C463.54,419.74 466.62,416.66 470.42,416.66 C474.21,416.66 477.29,419.74 477.29,423.54 C477.29,427.34 474.21,430.42 470.42,430.42 C466.62,430.42 463.54,427.34 463.54,423.54 Z" style="stroke-width: 1; stroke: rgb(0, 0, 0); fill: rgb(0, 0, 0); fill-opacity: 1;"/></g><g class="composite-shape"><path class="real" d=" M524.43,427 C524.43,423.2 527.51,420.12 531.3,420.12 C535.1,420.12 538.18,423.2 538.18,427 C538.18,430.8 535.1,433.88 531.3,433.88 C527.51,433.88 524.43,430.8 524.43,427 Z" style="stroke-width: 1; stroke: rgb(0, 0, 0); fill: rgb(0, 0, 0); fill-opacity: 1;"/></g><g class="composite-shape"><path class="real" d=" M491.05,478.04 C491.05,474.25 494.13,471.17 497.92,471.17 C501.72,471.17 504.8,474.25 504.8,478.04 C504.8,481.84 501.72,484.92 497.92,484.92 C494.13,484.92 491.05,481.84 491.05,478.04 Z" style="stroke-width: 1; stroke: rgb(0, 0, 0); fill: rgb(0, 0, 0); fill-opacity: 1;"/></g><g class="composite-shape"><path class="real" d=" M425.52,420.88 C425.52,417.08 428.6,414 432.4,414 C436.2,414 439.28,417.08 439.28,420.88 C439.28,424.68 436.2,427.76 432.4,427.76 C428.6,427.76 425.52,424.68 425.52,420.88 Z" style="stroke-width: 1; stroke: rgb(0, 0, 0); fill: rgb(0, 0, 0); fill-opacity: 1;"/></g><g class="composite-shape"><path class="real" d=" M470.6,510.2 C470.6,506.41 473.68,503.33 477.48,503.33 C481.28,503.33 484.36,506.41 484.36,510.2 C484.36,514 481.28,517.08 477.48,517.08 C473.68,517.08 470.6,514 470.6,510.2 Z" style="stroke-width: 1; stroke: rgb(0, 0, 0); fill: rgb(0, 0, 0); fill-opacity: 1;"/></g><g class="composite-shape"><path class="real" d=" M364.63,417.42 C364.63,413.62 367.71,410.54 371.51,410.54 C375.31,410.54 378.39,413.62 378.39,417.42 C378.39,421.21 375.31,424.29 371.51,424.29 C367.71,424.29 364.63,421.21 364.63,417.42 Z" style="stroke-width: 1; stroke: rgb(0, 0, 0); fill: rgb(0, 0, 0); fill-opacity: 1;"/></g><g class="composite-shape"><path class="real" d=" M392.14,471.92 C392.14,468.12 395.22,465.04 399.02,465.04 C402.82,465.04 405.9,468.12 405.9,471.92 C405.9,475.72 402.82,478.8 399.02,478.8 C395.22,478.8 392.14,475.72 392.14,471.92 Z" style="stroke-width: 1; stroke: rgb(0, 0, 0); fill: rgb(0, 0, 0); fill-opacity: 1;"/></g><g class="composite-shape"><path class="real" d=" M409.72,506.74 C409.72,502.94 412.8,499.86 416.59,499.86 C420.39,499.86 423.47,502.94 423.47,506.74 C423.47,510.54 420.39,513.62 416.59,513.62 C412.8,513.62 409.72,510.54 409.72,506.74 Z" style="stroke-width: 1; stroke: rgb(0, 0, 0); fill: rgb(0, 0, 0); fill-opacity: 1;"/></g><g class="composite-shape"><path class="real" d=" M437.23,561.25 C437.23,557.45 440.3,554.37 444.1,554.37 C447.9,554.37 450.98,557.45 450.98,561.25 C450.98,565.04 447.9,568.12 444.1,568.12 C440.3,568.12 437.23,565.04 437.23,561.25 Z" style="stroke-width: 1; stroke: rgb(0, 0, 0); fill: rgb(0, 0, 0); fill-opacity: 1;"/></g><g class="composite-shape"><path class="real" d=" M760.41,426.23 C760.41,422.44 763.49,419.36 767.28,419.36 C771.08,419.36 774.16,422.44 774.16,426.23 C774.16,430.03 771.08,433.11 767.28,433.11 C763.49,433.11 760.41,430.03 760.41,426.23 Z" style="stroke-width: 1; stroke: rgb(0, 0, 0); fill: rgb(0, 0, 0); fill-opacity: 1;"/></g><g class="composite-shape"><path class="real" d=" M791.44,478.74 C791.44,474.94 794.52,471.86 798.31,471.86 C802.11,471.86 805.19,474.94 805.19,478.74 C805.19,482.54 802.11,485.61 798.31,485.61 C794.52,485.61 791.44,482.54 791.44,478.74 Z" style="stroke-width: 1; stroke: rgb(0, 0, 0); fill: rgb(0, 0, 0); fill-opacity: 1;"/></g><g class="composite-shape"><path class="real" d=" M821.39,425.53 C821.39,421.74 824.47,418.66 828.27,418.66 C832.07,418.66 835.15,421.74 835.15,425.53 C835.15,429.33 832.07,432.41 828.27,432.41 C824.47,432.41 821.39,429.33 821.39,425.53 Z" style="stroke-width: 1; stroke: rgb(0, 0, 0); fill: rgb(0, 0, 0); fill-opacity: 1;"/></g><g class="composite-shape"><path class="real" d=" M810.4,511.79 C810.4,507.99 813.48,504.91 817.28,504.91 C821.08,504.91 824.15,507.99 824.15,511.79 C824.15,515.59 821.08,518.67 817.28,518.67 C813.48,518.67 810.4,515.59 810.4,511.79 Z" style="stroke-width: 1; stroke: rgb(0, 0, 0); fill: rgb(0, 0, 0); fill-opacity: 1;"/></g><g class="composite-shape"><path class="real" d=" M859.49,424.6 C859.49,420.81 862.57,417.73 866.36,417.73 C870.16,417.73 873.24,420.81 873.24,424.6 C873.24,428.4 870.16,431.48 866.36,431.48 C862.57,431.48 859.49,428.4 859.49,424.6 Z" style="stroke-width: 1; stroke: rgb(0, 0, 0); fill: rgb(0, 0, 0); fill-opacity: 1;"/></g><g class="composite-shape"><path class="real" d=" M841.43,564.29 C841.43,560.5 844.51,557.42 848.31,557.42 C852.1,557.42 855.18,560.5 855.18,564.29 C855.18,568.09 852.1,571.17 848.31,571.17 C844.51,571.17 841.43,568.09 841.43,564.29 Z" style="stroke-width: 1; stroke: rgb(0, 0, 0); fill: rgb(0, 0, 0); fill-opacity: 1;"/></g><g class="composite-shape"><path class="real" d=" M871.38,511.09 C871.38,507.29 874.46,504.21 878.26,504.21 C882.06,504.21 885.14,507.29 885.14,511.09 C885.14,514.89 882.06,517.97 878.26,517.97 C874.46,517.97 871.38,514.89 871.38,511.09 Z" style="stroke-width: 1; stroke: rgb(0, 0, 0); fill: rgb(0, 0, 0); fill-opacity: 1;"/></g><g class="composite-shape"><path class="real" d=" M890.52,477.11 C890.52,473.31 893.59,470.23 897.39,470.23 C901.19,470.23 904.27,473.31 904.27,477.11 C904.27,480.91 901.19,483.99 897.39,483.99 C893.59,483.99 890.52,480.91 890.52,477.11 Z" style="stroke-width: 1; stroke: rgb(0, 0, 0); fill: rgb(0, 0, 0); fill-opacity: 1;"/></g><g class="composite-shape"><path class="real" d=" M920.47,423.9 C920.47,420.11 923.55,417.03 927.35,417.03 C931.15,417.03 934.22,420.11 934.22,423.9 C934.22,427.7 931.15,430.78 927.35,430.78 C923.55,430.78 920.47,427.7 920.47,423.9 Z" style="stroke-width: 1; stroke: rgb(0, 0, 0); fill: rgb(0, 0, 0); fill-opacity: 1;"/></g></g><g class="grouped-shape"><g class="grouped-shape"><g class="grouped-shape"><g class="composite-shape"><path class="real" d=" M1629.12,132.91 L1583.94,174.97 L1483.29,144.65 Z" style="stroke-width: 2; stroke: rgb(0, 0, 0); stroke-opacity: 1; fill: none; fill-opacity: 1;"/></g><g class="composite-shape"><path class="real" d=" M1533.58,140.73 L1518.33,155.21 L1483.29,144.65 Z" style="stroke-width: 2; stroke: rgb(0, 0, 0); stroke-opacity: 1; fill: none; fill-opacity: 1;"/></g><g class="composite-shape"><path class="real" d=" M1599.54,160.39 L1583.94,174.97 L1548.98,164.44 Z" style="stroke-width: 2; stroke: rgb(0, 0, 0); stroke-opacity: 1; fill: none; fill-opacity: 1;"/></g><g class="composite-shape"><path class="real" d=" M1629.12,132.91 L1614.68,146.35 L1582.51,136.67 Z" style="stroke-width: 2; stroke: rgb(0, 0, 0); stroke-opacity: 1; fill: none; fill-opacity: 1;"/></g></g><g class="grouped-shape"><g class="composite-shape"><path class="real" d=" M1314.6,133.61 L1347.13,143.87 L1300.32,147.1 Z" style="stroke-width: 2; stroke: rgb(0, 0, 0); stroke-opacity: 1; fill: none; fill-opacity: 1;"/></g><g class="composite-shape"><path class="real" d=" M1345.46,105.67 L1446.71,136.99 L1300.32,147.1 Z" style="stroke-width: 2; stroke: rgb(0, 0, 0); stroke-opacity: 1; fill: none; fill-opacity: 1;"/></g><g class="composite-shape"><path class="real" d=" M1345.46,105.67 L1377.05,115.99 L1331.98,119.11 Z" style="stroke-width: 2; stroke: rgb(0, 0, 0); stroke-opacity: 1; fill: none; fill-opacity: 1;"/></g><g class="composite-shape"><path class="real" d=" M1412.75,126.83 L1446.71,136.99 L1397.23,140.41 Z" style="stroke-width: 2; stroke: rgb(0, 0, 0); stroke-opacity: 1; fill: none; fill-opacity: 1;"/></g></g><g class="grouped-shape"><g class="composite-shape"><path class="real" d=" M1379.66,24.74 L1334.48,66.79 L1233.82,36.48 Z" style="stroke-width: 2; stroke: rgb(0, 0, 0); stroke-opacity: 1; fill: none; fill-opacity: 1;"/></g><g class="composite-shape"><path class="real" d=" M1379.42,24.66 L1364.74,38.03 L1333.13,28.51 Z" style="stroke-width: 2; stroke: rgb(0, 0, 0); stroke-opacity: 1; fill: none; fill-opacity: 1;"/></g><g class="composite-shape"><path class="real" d=" M1284.36,32.42 L1268.75,47 L1233.82,36.48 Z" style="stroke-width: 2; stroke: rgb(0, 0, 0); stroke-opacity: 1; fill: none; fill-opacity: 1;"/></g><g class="composite-shape"><path class="real" d=" M1356.96,45.73 L1334.48,66.79 L1283.9,51.56 Z" style="stroke-width: 2; stroke: rgb(0, 0, 0); stroke-opacity: 1; fill: none; fill-opacity: 1;"/></g></g><g class="grouped-shape"><g class="composite-shape"><path class="real" d=" M1266.86,162.84 L1221.68,204.89 L1121.02,174.58 Z" style="stroke-width: 2; stroke: rgb(0, 0, 0); stroke-opacity: 1; fill: none; fill-opacity: 1;"/></g><g class="composite-shape"><path class="real" d=" M1171.63,170.54 L1156.06,185.13 L1121.02,174.58 Z" style="stroke-width: 2; stroke: rgb(0, 0, 0); stroke-opacity: 1; fill: none; fill-opacity: 1;"/></g><g class="composite-shape"><path class="real" d=" M1237.44,190.36 L1221.68,204.89 L1187.11,194.48 Z" style="stroke-width: 2; stroke: rgb(0, 0, 0); stroke-opacity: 1; fill: none; fill-opacity: 1;"/></g><g class="composite-shape"><path class="real" d=" M1266.86,162.84 L1252.35,176.26 L1220.33,166.61 Z" style="stroke-width: 2; stroke: rgb(0, 0, 0); stroke-opacity: 1; fill: none; fill-opacity: 1;"/></g></g><g class="arrow-line"><path class="connection real" stroke-dasharray="" d="  M1334.48,66.79 L1345.46,105.67" style="stroke: rgb(0, 0, 0); stroke-width: 2; fill: none; fill-opacity: 1;"/></g><g class="arrow-line"><path class="connection real" stroke-dasharray="" d="  M1483.29,144.65 L1446.71,136.99" style="stroke: rgb(0, 0, 0); stroke-width: 2; fill: none; fill-opacity: 1;"/></g><g class="arrow-line"><path class="connection real" stroke-dasharray="" d="  M1266.86,162.84 L1300.32,147.1" style="stroke: rgb(0, 0, 0); stroke-width: 2; fill: none; fill-opacity: 1;"/></g><g class="composite-shape"><path class="real" d=" M1329.88,66.79 C1329.88,64.25 1331.94,62.19 1334.48,62.19 C1337.02,62.19 1339.07,64.25 1339.07,66.79 C1339.07,69.33 1337.02,71.39 1334.48,71.39 C1331.94,71.39 1329.88,69.33 1329.88,66.79 Z" style="stroke-width: 1; stroke: rgb(0, 0, 0); fill: rgb(0, 0, 0); fill-opacity: 1;"/></g><g class="composite-shape"><path class="real" d=" M1352.36,45.73 C1352.36,43.19 1354.42,41.13 1356.96,41.13 C1359.5,41.13 1361.56,43.19 1361.56,45.73 C1361.56,48.27 1359.5,50.33 1356.96,50.33 C1354.42,50.33 1352.36,48.27 1352.36,45.73 Z" style="stroke-width: 1; stroke: rgb(0, 0, 0); fill: rgb(0, 0, 0); fill-opacity: 1;"/></g><g class="composite-shape"><path class="real" d=" M1283.9,51.56 C1283.9,49.02 1285.96,46.96 1288.5,46.96 C1291.04,46.96 1293.1,49.02 1293.1,51.56 C1293.1,54.1 1291.04,56.16 1288.5,56.16 C1285.96,56.16 1283.9,54.1 1283.9,51.56 Z" style="stroke-width: 1; stroke: rgb(0, 0, 0); fill: rgb(0, 0, 0); fill-opacity: 1;"/></g><g class="composite-shape"><path class="real" d=" M1264.15,47 C1264.15,44.46 1266.21,42.4 1268.75,42.4 C1271.29,42.4 1273.35,44.46 1273.35,47 C1273.35,49.54 1271.29,51.59 1268.75,51.59 C1266.21,51.59 1264.15,49.54 1264.15,47 Z" style="stroke-width: 1; stroke: rgb(0, 0, 0); fill: rgb(0, 0, 0); fill-opacity: 1;"/></g><g class="composite-shape"><path class="real" d=" M1279.76,32.42 C1279.76,29.88 1281.82,27.82 1284.36,27.82 C1286.9,27.82 1288.96,29.88 1288.96,32.42 C1288.96,34.96 1286.9,37.02 1284.36,37.02 C1281.82,37.02 1279.76,34.96 1279.76,32.42 Z" style="stroke-width: 1; stroke: rgb(0, 0, 0); fill: rgb(0, 0, 0); fill-opacity: 1;"/></g><g class="composite-shape"><path class="real" d=" M1333.13,28.51 C1333.13,25.97 1335.19,23.91 1337.73,23.91 C1340.27,23.91 1342.33,25.97 1342.33,28.51 C1342.33,31.05 1340.27,33.11 1337.73,33.11 C1335.19,33.11 1333.13,31.05 1333.13,28.51 Z" style="stroke-width: 1; stroke: rgb(0, 0, 0); fill: rgb(0, 0, 0); fill-opacity: 1;"/></g><g class="composite-shape"><path class="real" d=" M1374.82,24.66 C1374.82,22.12 1376.88,20.06 1379.42,20.06 C1381.96,20.06 1384.01,22.12 1384.01,24.66 C1384.01,27.2 1381.96,29.26 1379.42,29.26 C1376.88,29.26 1374.82,27.2 1374.82,24.66 Z" style="stroke-width: 1; stroke: rgb(0, 0, 0); fill: rgb(0, 0, 0); fill-opacity: 1;"/></g><g class="composite-shape"><path class="real" d=" M1360.14,38.03 C1360.14,35.49 1362.2,33.44 1364.74,33.44 C1367.28,33.44 1369.34,35.49 1369.34,38.03 C1369.34,40.57 1367.28,42.63 1364.74,42.63 C1362.2,42.63 1360.14,40.57 1360.14,38.03 Z" style="stroke-width: 1; stroke: rgb(0, 0, 0); fill: rgb(0, 0, 0); fill-opacity: 1;"/></g><g class="composite-shape"><path class="real" d=" M1233.82,36.48 C1233.82,33.94 1235.88,31.88 1238.42,31.88 C1240.96,31.88 1243.02,33.94 1243.02,36.48 C1243.02,39.02 1240.96,41.07 1238.42,41.07 C1235.88,41.07 1233.82,39.02 1233.82,36.48 Z" style="stroke-width: 1; stroke: rgb(0, 0, 0); fill: rgb(0, 0, 0); fill-opacity: 1;"/></g><g class="composite-shape"><path class="real" d=" M1340.86,105.67 C1340.86,103.13 1342.92,101.07 1345.46,101.07 C1348,101.07 1350.06,103.13 1350.06,105.67 C1350.06,108.21 1348,110.27 1345.46,110.27 C1342.92,110.27 1340.86,108.21 1340.86,105.67 Z" style="stroke-width: 1; stroke: rgb(0, 0, 0); fill: rgb(0, 0, 0); fill-opacity: 1;"/></g><g class="composite-shape"><path class="real" d=" M1372.45,115.99 C1372.45,113.45 1374.51,111.4 1377.05,111.4 C1379.59,111.4 1381.65,113.45 1381.65,115.99 C1381.65,118.53 1379.59,120.59 1377.05,120.59 C1374.51,120.59 1372.45,118.53 1372.45,115.99 Z" style="stroke-width: 1; stroke: rgb(0, 0, 0); fill: rgb(0, 0, 0); fill-opacity: 1;"/></g><g class="composite-shape"><path class="real" d=" M1327.38,119.11 C1327.38,116.57 1329.44,114.51 1331.98,114.51 C1334.52,114.51 1336.58,116.57 1336.58,119.11 C1336.58,121.65 1334.52,123.71 1331.98,123.71 C1329.44,123.71 1327.38,121.65 1327.38,119.11 Z" style="stroke-width: 1; stroke: rgb(0, 0, 0); fill: rgb(0, 0, 0); fill-opacity: 1;"/></g><g class="composite-shape"><path class="real" d=" M1310,133.61 C1310,131.07 1312.06,129.01 1314.6,129.01 C1317.14,129.01 1319.2,131.07 1319.2,133.61 C1319.2,136.15 1317.14,138.21 1314.6,138.21 C1312.06,138.21 1310,136.15 1310,133.61 Z" style="stroke-width: 1; stroke: rgb(0, 0, 0); fill: rgb(0, 0, 0); fill-opacity: 1;"/></g><g class="composite-shape"><path class="real" d=" M1342.53,143.87 C1342.53,141.33 1344.59,139.27 1347.13,139.27 C1349.67,139.27 1351.73,141.33 1351.73,143.87 C1351.73,146.41 1349.67,148.47 1347.13,148.47 C1344.59,148.47 1342.53,146.41 1342.53,143.87 Z" style="stroke-width: 1; stroke: rgb(0, 0, 0); fill: rgb(0, 0, 0); fill-opacity: 1;"/></g><g class="composite-shape"><path class="real" d=" M1295.72,147.1 C1295.72,144.56 1297.78,142.5 1300.32,142.5 C1302.86,142.5 1304.92,144.56 1304.92,147.1 C1304.92,149.64 1302.86,151.7 1300.32,151.7 C1297.78,151.7 1295.72,149.64 1295.72,147.1 Z" style="stroke-width: 1; stroke: rgb(0, 0, 0); fill: rgb(0, 0, 0); fill-opacity: 1;"/></g><g class="composite-shape"><path class="real" d=" M1408.15,126.83 C1408.15,124.29 1410.21,122.23 1412.75,122.23 C1415.29,122.23 1417.35,124.29 1417.35,126.83 C1417.35,129.37 1415.29,131.43 1412.75,131.43 C1410.21,131.43 1408.15,129.37 1408.15,126.83 Z" style="stroke-width: 1; stroke: rgb(0, 0, 0); fill: rgb(0, 0, 0); fill-opacity: 1;"/></g><g class="composite-shape"><path class="real" d=" M1392.63,140.41 C1392.63,137.87 1394.69,135.81 1397.23,135.81 C1399.77,135.81 1401.83,137.87 1401.83,140.41 C1401.83,142.95 1399.77,145.01 1397.23,145.01 C1394.69,145.01 1392.63,142.95 1392.63,140.41 Z" style="stroke-width: 1; stroke: rgb(0, 0, 0); fill: rgb(0, 0, 0); fill-opacity: 1;"/></g><g class="composite-shape"><path class="real" d=" M1439.59,136.5 C1439.59,133.96 1441.65,131.9 1444.19,131.9 C1446.73,131.9 1448.79,133.96 1448.79,136.5 C1448.79,139.04 1446.73,141.1 1444.19,141.1 C1441.65,141.1 1439.59,139.04 1439.59,136.5 Z" style="stroke-width: 1; stroke: rgb(0, 0, 0); fill: rgb(0, 0, 0); fill-opacity: 1;"/></g><g class="composite-shape"><path class="real" d=" M1260.86,161.96 C1260.86,159.42 1262.92,157.36 1265.46,157.36 C1268,157.36 1270.06,159.42 1270.06,161.96 C1270.06,164.5 1268,166.56 1265.46,166.56 C1262.92,166.56 1260.86,164.5 1260.86,161.96 Z" style="stroke-width: 1; stroke: rgb(0, 0, 0); fill: rgb(0, 0, 0); fill-opacity: 1;"/></g><g class="composite-shape"><path class="real" d=" M1247.76,176.26 C1247.76,173.72 1249.81,171.66 1252.35,171.66 C1254.89,171.66 1256.95,173.72 1256.95,176.26 C1256.95,178.8 1254.89,180.86 1252.35,180.86 C1249.81,180.86 1247.76,178.8 1247.76,176.26 Z" style="stroke-width: 1; stroke: rgb(0, 0, 0); fill: rgb(0, 0, 0); fill-opacity: 1;"/></g><g class="composite-shape"><path class="real" d=" M1220.33,166.61 C1220.33,164.07 1222.39,162.01 1224.93,162.01 C1227.47,162.01 1229.53,164.07 1229.53,166.61 C1229.53,169.15 1227.47,171.21 1224.93,171.21 C1222.39,171.21 1220.33,169.15 1220.33,166.61 Z" style="stroke-width: 1; stroke: rgb(0, 0, 0); fill: rgb(0, 0, 0); fill-opacity: 1;"/></g><g class="composite-shape"><path class="real" d=" M1232.84,190.36 C1232.84,187.82 1234.9,185.76 1237.44,185.76 C1239.98,185.76 1242.04,187.82 1242.04,190.36 C1242.04,192.9 1239.98,194.96 1237.44,194.96 C1234.9,194.96 1232.84,192.9 1232.84,190.36 Z" style="stroke-width: 1; stroke: rgb(0, 0, 0); fill: rgb(0, 0, 0); fill-opacity: 1;"/></g><g class="composite-shape"><path class="real" d=" M1167.03,170.54 C1167.03,168 1169.09,165.94 1171.63,165.94 C1174.17,165.94 1176.23,168 1176.23,170.54 C1176.23,173.08 1174.17,175.14 1171.63,175.14 C1169.09,175.14 1167.03,173.08 1167.03,170.54 Z" style="stroke-width: 1; stroke: rgb(0, 0, 0); fill: rgb(0, 0, 0); fill-opacity: 1;"/></g><g class="composite-shape"><path class="real" d=" M1151.46,185.13 C1151.46,182.59 1153.52,180.53 1156.06,180.53 C1158.6,180.53 1160.66,182.59 1160.66,185.13 C1160.66,187.67 1158.6,189.73 1156.06,189.73 C1153.52,189.73 1151.46,187.67 1151.46,185.13 Z" style="stroke-width: 1; stroke: rgb(0, 0, 0); fill: rgb(0, 0, 0); fill-opacity: 1;"/></g><g class="composite-shape"><path class="real" d=" M1121.02,174.58 C1121.02,172.04 1123.08,169.98 1125.62,169.98 C1128.16,169.98 1130.22,172.04 1130.22,174.58 C1130.22,177.12 1128.16,179.17 1125.62,179.17 C1123.08,179.17 1121.02,177.12 1121.02,174.58 Z" style="stroke-width: 1; stroke: rgb(0, 0, 0); fill: rgb(0, 0, 0); fill-opacity: 1;"/></g><g class="composite-shape"><path class="real" d=" M1217.08,204.89 C1217.08,202.35 1219.14,200.29 1221.68,200.29 C1224.22,200.29 1226.27,202.35 1226.27,204.89 C1226.27,207.43 1224.22,209.49 1221.68,209.49 C1219.14,209.49 1217.08,207.43 1217.08,204.89 Z" style="stroke-width: 1; stroke: rgb(0, 0, 0); fill: rgb(0, 0, 0); fill-opacity: 1;"/></g><g class="composite-shape"><path class="real" d=" M1182.51,194.48 C1182.51,191.94 1184.57,189.88 1187.11,189.88 C1189.65,189.88 1191.71,191.94 1191.71,194.48 C1191.71,197.02 1189.65,199.08 1187.11,199.08 C1184.57,199.08 1182.51,197.02 1182.51,194.48 Z" style="stroke-width: 1; stroke: rgb(0, 0, 0); fill: rgb(0, 0, 0); fill-opacity: 1;"/></g><g class="composite-shape"><path class="real" d=" M1483.29,144.65 C1483.29,142.11 1485.34,140.05 1487.88,140.05 C1490.42,140.05 1492.48,142.11 1492.48,144.65 C1492.48,147.19 1490.42,149.25 1487.88,149.25 C1485.34,149.25 1483.29,147.19 1483.29,144.65 Z" style="stroke-width: 1; stroke: rgb(0, 0, 0); fill: rgb(0, 0, 0); fill-opacity: 1;"/></g><g class="composite-shape"><path class="real" d=" M1528.98,140.73 C1528.98,138.19 1531.04,136.13 1533.58,136.13 C1536.12,136.13 1538.18,138.19 1538.18,140.73 C1538.18,143.27 1536.12,145.33 1533.58,145.33 C1531.04,145.33 1528.98,143.27 1528.98,140.73 Z" style="stroke-width: 1; stroke: rgb(0, 0, 0); fill: rgb(0, 0, 0); fill-opacity: 1;"/></g><g class="composite-shape"><path class="real" d=" M1513.73,155.21 C1513.73,152.67 1515.79,150.61 1518.33,150.61 C1520.87,150.61 1522.93,152.67 1522.93,155.21 C1522.93,157.75 1520.87,159.81 1518.33,159.81 C1515.79,159.81 1513.73,157.75 1513.73,155.21 Z" style="stroke-width: 1; stroke: rgb(0, 0, 0); fill: rgb(0, 0, 0); fill-opacity: 1;"/></g><g class="composite-shape"><path class="real" d=" M1544.38,164.44 C1544.38,161.9 1546.43,159.84 1548.98,159.84 C1551.52,159.84 1553.57,161.9 1553.57,164.44 C1553.57,166.98 1551.52,169.04 1548.98,169.04 C1546.43,169.04 1544.38,166.98 1544.38,164.44 Z" style="stroke-width: 1; stroke: rgb(0, 0, 0); fill: rgb(0, 0, 0); fill-opacity: 1;"/></g><g class="composite-shape"><path class="real" d=" M1594.94,160.39 C1594.94,157.85 1597,155.79 1599.54,155.79 C1602.08,155.79 1604.14,157.85 1604.14,160.39 C1604.14,162.93 1602.08,164.99 1599.54,164.99 C1597,164.99 1594.94,162.93 1594.94,160.39 Z" style="stroke-width: 1; stroke: rgb(0, 0, 0); fill: rgb(0, 0, 0); fill-opacity: 1;"/></g><g class="composite-shape"><path class="real" d=" M1579.34,174.97 C1579.34,172.43 1581.4,170.37 1583.94,170.37 C1586.48,170.37 1588.54,172.43 1588.54,174.97 C1588.54,177.51 1586.48,179.57 1583.94,179.57 C1581.4,179.57 1579.34,177.51 1579.34,174.97 Z" style="stroke-width: 1; stroke: rgb(0, 0, 0); fill: rgb(0, 0, 0); fill-opacity: 1;"/></g><g class="composite-shape"><path class="real" d=" M1577.92,136.67 C1577.92,134.13 1579.97,132.07 1582.51,132.07 C1585.05,132.07 1587.11,134.13 1587.11,136.67 C1587.11,139.21 1585.05,141.27 1582.51,141.27 C1579.97,141.27 1577.92,139.21 1577.92,136.67 Z" style="stroke-width: 1; stroke: rgb(0, 0, 0); fill: rgb(0, 0, 0); fill-opacity: 1;"/></g><g class="composite-shape"><path class="real" d=" M1624.52,132.91 C1624.52,130.37 1626.58,128.31 1629.12,128.31 C1631.66,128.31 1633.72,130.37 1633.72,132.91 C1633.72,135.45 1631.66,137.51 1629.12,137.51 C1626.58,137.51 1624.52,135.45 1624.52,132.91 Z" style="stroke-width: 1; stroke: rgb(0, 0, 0); fill: rgb(0, 0, 0); fill-opacity: 1;"/></g><g class="composite-shape"><path class="real" d=" M1610.08,146.35 C1610.08,143.81 1612.14,141.75 1614.68,141.75 C1617.22,141.75 1619.28,143.81 1619.28,146.35 C1619.28,148.89 1617.22,150.95 1614.68,150.95 C1612.14,150.95 1610.08,148.89 1610.08,146.35 Z" style="stroke-width: 1; stroke: rgb(0, 0, 0); fill: rgb(0, 0, 0); fill-opacity: 1;"/></g></g><g class="grouped-shape"><g class="grouped-shape"><g class="composite-shape"><path class="real" d=" M1628.12,349.91 L1582.94,391.97 L1482.29,361.65 Z" style="stroke-width: 2; stroke: rgb(0, 0, 0); stroke-opacity: 1; fill: none; fill-opacity: 1;"/></g><g class="composite-shape"><path class="real" d=" M1532.58,357.73 L1517.33,372.21 L1482.29,361.65 Z" style="stroke-width: 2; stroke: rgb(0, 0, 0); stroke-opacity: 1; fill: none; fill-opacity: 1;"/></g><g class="composite-shape"><path class="real" d=" M1598.54,377.39 L1582.94,391.97 L1547.98,381.44 Z" style="stroke-width: 2; stroke: rgb(0, 0, 0); stroke-opacity: 1; fill: none; fill-opacity: 1;"/></g><g class="composite-shape"><path class="real" d=" M1628.12,349.91 L1613.68,363.35 L1581.51,353.67 Z" style="stroke-width: 2; stroke: rgb(0, 0, 0); stroke-opacity: 1; fill: none; fill-opacity: 1;"/></g></g><g class="grouped-shape"><g class="composite-shape"><path class="real" d=" M1313.6,350.61 L1346.13,360.87 L1299.32,364.1 Z" style="stroke-width: 2; stroke: rgb(0, 0, 0); stroke-opacity: 1; fill: none; fill-opacity: 1;"/></g><g class="composite-shape"><path class="real" d=" M1344.46,322.67 L1445.71,353.99 L1299.32,364.1 Z" style="stroke-width: 2; stroke: rgb(0, 0, 0); stroke-opacity: 1; fill: none; fill-opacity: 1;"/></g><g class="composite-shape"><path class="real" d=" M1344.46,322.67 L1376.05,332.99 L1330.98,336.11 Z" style="stroke-width: 2; stroke: rgb(0, 0, 0); stroke-opacity: 1; fill: none; fill-opacity: 1;"/></g><g class="composite-shape"><path class="real" d=" M1411.75,343.83 L1445.71,353.99 L1396.23,357.41 Z" style="stroke-width: 2; stroke: rgb(0, 0, 0); stroke-opacity: 1; fill: none; fill-opacity: 1;"/></g></g><g class="grouped-shape"><g class="composite-shape"><path class="real" d=" M1378.66,241.74 L1333.48,283.79 L1232.82,253.48 Z" style="stroke-width: 2; stroke: rgb(0, 0, 0); stroke-opacity: 1; fill: none; fill-opacity: 1;"/></g><g class="composite-shape"><path class="real" d=" M1378.42,241.66 L1363.74,255.03 L1332.13,245.51 Z" style="stroke-width: 2; stroke: rgb(0, 0, 0); stroke-opacity: 1; fill: none; fill-opacity: 1;"/></g><g class="composite-shape"><path class="real" d=" M1283.36,249.42 L1267.75,264 L1232.82,253.48 Z" style="stroke-width: 2; stroke: rgb(0, 0, 0); stroke-opacity: 1; fill: none; fill-opacity: 1;"/></g><g class="composite-shape"><path class="real" d=" M1355.96,262.73 L1333.48,283.79 L1282.9,268.56 Z" style="stroke-width: 2; stroke: rgb(0, 0, 0); stroke-opacity: 1; fill: none; fill-opacity: 1;"/></g></g><g class="grouped-shape"><g class="composite-shape"><path class="real" d=" M1265.86,379.84 L1220.68,421.89 L1120.02,391.58 Z" style="stroke-width: 2; stroke: rgb(0, 0, 0); stroke-opacity: 1; fill: none; fill-opacity: 1;"/></g><g class="composite-shape"><path class="real" d=" M1170.63,387.54 L1155.06,402.13 L1120.02,391.58 Z" style="stroke-width: 2; stroke: rgb(0, 0, 0); stroke-opacity: 1; fill: none; fill-opacity: 1;"/></g><g class="composite-shape"><path class="real" d=" M1236.44,407.36 L1220.68,421.89 L1186.11,411.48 Z" style="stroke-width: 2; stroke: rgb(0, 0, 0); stroke-opacity: 1; fill: none; fill-opacity: 1;"/></g><g class="composite-shape"><path class="real" d=" M1265.86,379.84 L1251.35,393.26 L1219.33,383.61 Z" style="stroke-width: 2; stroke: rgb(0, 0, 0); stroke-opacity: 1; fill: none; fill-opacity: 1;"/></g></g><g class="arrow-line"><path class="connection real" stroke-dasharray="" d="  M1333.48,283.79 L1344.46,322.67" style="stroke: rgb(0, 0, 0); stroke-width: 2; fill: none; fill-opacity: 1;"/></g><g class="arrow-line"><path class="connection real" stroke-dasharray="" d="  M1482.29,361.65 L1445.71,353.99" style="stroke: rgb(0, 0, 0); stroke-width: 2; fill: none; fill-opacity: 1;"/></g><g class="arrow-line"><path class="connection real" stroke-dasharray="" d="  M1265.86,379.84 L1299.32,364.1" style="stroke: rgb(0, 0, 0); stroke-width: 2; fill: none; fill-opacity: 1;"/></g><g class="composite-shape"><path class="real" d=" M1328.88,283.79 C1328.88,281.25 1330.94,279.19 1333.48,279.19 C1336.02,279.19 1338.07,281.25 1338.07,283.79 C1338.07,286.33 1336.02,288.39 1333.48,288.39 C1330.94,288.39 1328.88,286.33 1328.88,283.79 Z" style="stroke-width: 1; stroke: rgb(0, 0, 0); fill: rgb(0, 0, 0); fill-opacity: 1;"/></g><g class="composite-shape"><path class="real" d=" M1351.36,262.73 C1351.36,260.19 1353.42,258.13 1355.96,258.13 C1358.5,258.13 1360.56,260.19 1360.56,262.73 C1360.56,265.27 1358.5,267.33 1355.96,267.33 C1353.42,267.33 1351.36,265.27 1351.36,262.73 Z" style="stroke-width: 1; stroke: rgb(0, 0, 0); fill: rgb(0, 0, 0); fill-opacity: 1;"/></g><g class="composite-shape"><path class="real" d=" M1282.9,268.56 C1282.9,266.02 1284.96,263.96 1287.5,263.96 C1290.04,263.96 1292.1,266.02 1292.1,268.56 C1292.1,271.1 1290.04,273.16 1287.5,273.16 C1284.96,273.16 1282.9,271.1 1282.9,268.56 Z" style="stroke-width: 1; stroke: rgb(0, 0, 0); fill: rgb(0, 0, 0); fill-opacity: 1;"/></g><g class="composite-shape"><path class="real" d=" M1263.15,264 C1263.15,261.46 1265.21,259.4 1267.75,259.4 C1270.29,259.4 1272.35,261.46 1272.35,264 C1272.35,266.54 1270.29,268.59 1267.75,268.59 C1265.21,268.59 1263.15,266.54 1263.15,264 Z" style="stroke-width: 1; stroke: rgb(0, 0, 0); fill: rgb(0, 0, 0); fill-opacity: 1;"/></g><g class="composite-shape"><path class="real" d=" M1278.76,249.42 C1278.76,246.88 1280.82,244.82 1283.36,244.82 C1285.9,244.82 1287.96,246.88 1287.96,249.42 C1287.96,251.96 1285.9,254.02 1283.36,254.02 C1280.82,254.02 1278.76,251.96 1278.76,249.42 Z" style="stroke-width: 1; stroke: rgb(0, 0, 0); fill: rgb(0, 0, 0); fill-opacity: 1;"/></g><g class="composite-shape"><path class="real" d=" M1332.13,245.51 C1332.13,242.97 1334.19,240.91 1336.73,240.91 C1339.27,240.91 1341.33,242.97 1341.33,245.51 C1341.33,248.05 1339.27,250.11 1336.73,250.11 C1334.19,250.11 1332.13,248.05 1332.13,245.51 Z" style="stroke-width: 1; stroke: rgb(0, 0, 0); fill: rgb(0, 0, 0); fill-opacity: 1;"/></g><g class="composite-shape"><path class="real" d=" M1373.82,241.66 C1373.82,239.12 1375.88,237.06 1378.42,237.06 C1380.96,237.06 1383.01,239.12 1383.01,241.66 C1383.01,244.2 1380.96,246.26 1378.42,246.26 C1375.88,246.26 1373.82,244.2 1373.82,241.66 Z" style="stroke-width: 1; stroke: rgb(0, 0, 0); fill: rgb(0, 0, 0); fill-opacity: 1;"/></g><g class="composite-shape"><path class="real" d=" M1359.14,255.03 C1359.14,252.49 1361.2,250.44 1363.74,250.44 C1366.28,250.44 1368.34,252.49 1368.34,255.03 C1368.34,257.57 1366.28,259.63 1363.74,259.63 C1361.2,259.63 1359.14,257.57 1359.14,255.03 Z" style="stroke-width: 1; stroke: rgb(0, 0, 0); fill: rgb(0, 0, 0); fill-opacity: 1;"/></g><g class="composite-shape"><path class="real" d=" M1232.82,253.48 C1232.82,250.94 1234.88,248.88 1237.42,248.88 C1239.96,248.88 1242.02,250.94 1242.02,253.48 C1242.02,256.02 1239.96,258.07 1237.42,258.07 C1234.88,258.07 1232.82,256.02 1232.82,253.48 Z" style="stroke-width: 1; stroke: rgb(0, 0, 0); fill: rgb(0, 0, 0); fill-opacity: 1;"/></g><g class="composite-shape"><path class="real" d=" M1339.86,322.67 C1339.86,320.13 1341.92,318.07 1344.46,318.07 C1347,318.07 1349.06,320.13 1349.06,322.67 C1349.06,325.21 1347,327.27 1344.46,327.27 C1341.92,327.27 1339.86,325.21 1339.86,322.67 Z" style="stroke-width: 1; stroke: rgb(0, 0, 0); fill: rgb(0, 0, 0); fill-opacity: 1;"/></g><g class="composite-shape"><path class="real" d=" M1371.45,332.99 C1371.45,330.45 1373.51,328.4 1376.05,328.4 C1378.59,328.4 1380.65,330.45 1380.65,332.99 C1380.65,335.53 1378.59,337.59 1376.05,337.59 C1373.51,337.59 1371.45,335.53 1371.45,332.99 Z" style="stroke-width: 1; stroke: rgb(0, 0, 0); fill: rgb(0, 0, 0); fill-opacity: 1;"/></g><g class="composite-shape"><path class="real" d=" M1326.38,336.11 C1326.38,333.57 1328.44,331.51 1330.98,331.51 C1333.52,331.51 1335.58,333.57 1335.58,336.11 C1335.58,338.65 1333.52,340.71 1330.98,340.71 C1328.44,340.71 1326.38,338.65 1326.38,336.11 Z" style="stroke-width: 1; stroke: rgb(0, 0, 0); fill: rgb(0, 0, 0); fill-opacity: 1;"/></g><g class="composite-shape"><path class="real" d=" M1309,350.61 C1309,348.07 1311.06,346.01 1313.6,346.01 C1316.14,346.01 1318.2,348.07 1318.2,350.61 C1318.2,353.15 1316.14,355.21 1313.6,355.21 C1311.06,355.21 1309,353.15 1309,350.61 Z" style="stroke-width: 1; stroke: rgb(0, 0, 0); fill: rgb(0, 0, 0); fill-opacity: 1;"/></g><g class="composite-shape"><path class="real" d=" M1341.53,360.87 C1341.53,358.33 1343.59,356.27 1346.13,356.27 C1348.67,356.27 1350.73,358.33 1350.73,360.87 C1350.73,363.41 1348.67,365.47 1346.13,365.47 C1343.59,365.47 1341.53,363.41 1341.53,360.87 Z" style="stroke-width: 1; stroke: rgb(0, 0, 0); fill: rgb(0, 0, 0); fill-opacity: 1;"/></g><g class="composite-shape"><path class="real" d=" M1294.72,364.1 C1294.72,361.56 1296.78,359.5 1299.32,359.5 C1301.86,359.5 1303.92,361.56 1303.92,364.1 C1303.92,366.64 1301.86,368.7 1299.32,368.7 C1296.78,368.7 1294.72,366.64 1294.72,364.1 Z" style="stroke-width: 1; stroke: rgb(0, 0, 0); fill: rgb(0, 0, 0); fill-opacity: 1;"/></g><g class="composite-shape"><path class="real" d=" M1407.15,343.83 C1407.15,341.29 1409.21,339.23 1411.75,339.23 C1414.29,339.23 1416.35,341.29 1416.35,343.83 C1416.35,346.37 1414.29,348.43 1411.75,348.43 C1409.21,348.43 1407.15,346.37 1407.15,343.83 Z" style="stroke-width: 1; stroke: rgb(0, 0, 0); fill: rgb(0, 0, 0); fill-opacity: 1;"/></g><g class="composite-shape"><path class="real" d=" M1391.63,357.41 C1391.63,354.87 1393.69,352.81 1396.23,352.81 C1398.77,352.81 1400.83,354.87 1400.83,357.41 C1400.83,359.95 1398.77,362.01 1396.23,362.01 C1393.69,362.01 1391.63,359.95 1391.63,357.41 Z" style="stroke-width: 1; stroke: rgb(0, 0, 0); fill: rgb(0, 0, 0); fill-opacity: 1;"/></g><g class="composite-shape"><path class="real" d=" M1438.59,353.5 C1438.59,350.96 1440.65,348.9 1443.19,348.9 C1445.73,348.9 1447.79,350.96 1447.79,353.5 C1447.79,356.04 1445.73,358.1 1443.19,358.1 C1440.65,358.1 1438.59,356.04 1438.59,353.5 Z" style="stroke-width: 1; stroke: rgb(0, 0, 0); fill: rgb(0, 0, 0); fill-opacity: 1;"/></g><g class="composite-shape"><path class="real" d=" M1259.86,378.96 C1259.86,376.42 1261.92,374.36 1264.46,374.36 C1267,374.36 1269.06,376.42 1269.06,378.96 C1269.06,381.5 1267,383.56 1264.46,383.56 C1261.92,383.56 1259.86,381.5 1259.86,378.96 Z" style="stroke-width: 1; stroke: rgb(0, 0, 0); fill: rgb(0, 0, 0); fill-opacity: 1;"/></g><g class="composite-shape"><path class="real" d=" M1246.76,393.26 C1246.76,390.72 1248.81,388.66 1251.35,388.66 C1253.89,388.66 1255.95,390.72 1255.95,393.26 C1255.95,395.8 1253.89,397.86 1251.35,397.86 C1248.81,397.86 1246.76,395.8 1246.76,393.26 Z" style="stroke-width: 1; stroke: rgb(0, 0, 0); fill: rgb(0, 0, 0); fill-opacity: 1;"/></g><g class="composite-shape"><path class="real" d=" M1219.33,383.61 C1219.33,381.07 1221.39,379.01 1223.93,379.01 C1226.47,379.01 1228.53,381.07 1228.53,383.61 C1228.53,386.15 1226.47,388.21 1223.93,388.21 C1221.39,388.21 1219.33,386.15 1219.33,383.61 Z" style="stroke-width: 1; stroke: rgb(0, 0, 0); fill: rgb(0, 0, 0); fill-opacity: 1;"/></g><g class="composite-shape"><path class="real" d=" M1231.84,407.36 C1231.84,404.82 1233.9,402.76 1236.44,402.76 C1238.98,402.76 1241.04,404.82 1241.04,407.36 C1241.04,409.9 1238.98,411.96 1236.44,411.96 C1233.9,411.96 1231.84,409.9 1231.84,407.36 Z" style="stroke-width: 1; stroke: rgb(0, 0, 0); fill: rgb(0, 0, 0); fill-opacity: 1;"/></g><g class="composite-shape"><path class="real" d=" M1166.03,387.54 C1166.03,385 1168.09,382.94 1170.63,382.94 C1173.17,382.94 1175.23,385 1175.23,387.54 C1175.23,390.08 1173.17,392.14 1170.63,392.14 C1168.09,392.14 1166.03,390.08 1166.03,387.54 Z" style="stroke-width: 1; stroke: rgb(0, 0, 0); fill: rgb(0, 0, 0); fill-opacity: 1;"/></g><g class="composite-shape"><path class="real" d=" M1150.46,402.13 C1150.46,399.59 1152.52,397.53 1155.06,397.53 C1157.6,397.53 1159.66,399.59 1159.66,402.13 C1159.66,404.67 1157.6,406.73 1155.06,406.73 C1152.52,406.73 1150.46,404.67 1150.46,402.13 Z" style="stroke-width: 1; stroke: rgb(0, 0, 0); fill: rgb(0, 0, 0); fill-opacity: 1;"/></g><g class="composite-shape"><path class="real" d=" M1120.02,391.58 C1120.02,389.04 1122.08,386.98 1124.62,386.98 C1127.16,386.98 1129.22,389.04 1129.22,391.58 C1129.22,394.12 1127.16,396.17 1124.62,396.17 C1122.08,396.17 1120.02,394.12 1120.02,391.58 Z" style="stroke-width: 1; stroke: rgb(0, 0, 0); fill: rgb(0, 0, 0); fill-opacity: 1;"/></g><g class="composite-shape"><path class="real" d=" M1216.08,421.89 C1216.08,419.35 1218.14,417.29 1220.68,417.29 C1223.22,417.29 1225.27,419.35 1225.27,421.89 C1225.27,424.43 1223.22,426.49 1220.68,426.49 C1218.14,426.49 1216.08,424.43 1216.08,421.89 Z" style="stroke-width: 1; stroke: rgb(0, 0, 0); fill: rgb(0, 0, 0); fill-opacity: 1;"/></g><g class="composite-shape"><path class="real" d=" M1181.51,411.48 C1181.51,408.94 1183.57,406.88 1186.11,406.88 C1188.65,406.88 1190.71,408.94 1190.71,411.48 C1190.71,414.02 1188.65,416.08 1186.11,416.08 C1183.57,416.08 1181.51,414.02 1181.51,411.48 Z" style="stroke-width: 1; stroke: rgb(0, 0, 0); fill: rgb(0, 0, 0); fill-opacity: 1;"/></g><g class="composite-shape"><path class="real" d=" M1482.29,361.65 C1482.29,359.11 1484.34,357.05 1486.88,357.05 C1489.42,357.05 1491.48,359.11 1491.48,361.65 C1491.48,364.19 1489.42,366.25 1486.88,366.25 C1484.34,366.25 1482.29,364.19 1482.29,361.65 Z" style="stroke-width: 1; stroke: rgb(0, 0, 0); fill: rgb(0, 0, 0); fill-opacity: 1;"/></g><g class="composite-shape"><path class="real" d=" M1527.98,357.73 C1527.98,355.19 1530.04,353.13 1532.58,353.13 C1535.12,353.13 1537.18,355.19 1537.18,357.73 C1537.18,360.27 1535.12,362.33 1532.58,362.33 C1530.04,362.33 1527.98,360.27 1527.98,357.73 Z" style="stroke-width: 1; stroke: rgb(0, 0, 0); fill: rgb(0, 0, 0); fill-opacity: 1;"/></g><g class="composite-shape"><path class="real" d=" M1512.73,372.21 C1512.73,369.67 1514.79,367.61 1517.33,367.61 C1519.87,367.61 1521.93,369.67 1521.93,372.21 C1521.93,374.75 1519.87,376.81 1517.33,376.81 C1514.79,376.81 1512.73,374.75 1512.73,372.21 Z" style="stroke-width: 1; stroke: rgb(0, 0, 0); fill: rgb(0, 0, 0); fill-opacity: 1;"/></g><g class="composite-shape"><path class="real" d=" M1543.38,381.44 C1543.38,378.9 1545.43,376.84 1547.98,376.84 C1550.52,376.84 1552.57,378.9 1552.57,381.44 C1552.57,383.98 1550.52,386.04 1547.98,386.04 C1545.43,386.04 1543.38,383.98 1543.38,381.44 Z" style="stroke-width: 1; stroke: rgb(0, 0, 0); fill: rgb(0, 0, 0); fill-opacity: 1;"/></g><g class="composite-shape"><path class="real" d=" M1593.94,377.39 C1593.94,374.85 1596,372.79 1598.54,372.79 C1601.08,372.79 1603.14,374.85 1603.14,377.39 C1603.14,379.93 1601.08,381.99 1598.54,381.99 C1596,381.99 1593.94,379.93 1593.94,377.39 Z" style="stroke-width: 1; stroke: rgb(0, 0, 0); fill: rgb(0, 0, 0); fill-opacity: 1;"/></g><g class="composite-shape"><path class="real" d=" M1578.34,391.97 C1578.34,389.43 1580.4,387.37 1582.94,387.37 C1585.48,387.37 1587.54,389.43 1587.54,391.97 C1587.54,394.51 1585.48,396.57 1582.94,396.57 C1580.4,396.57 1578.34,394.51 1578.34,391.97 Z" style="stroke-width: 1; stroke: rgb(0, 0, 0); fill: rgb(0, 0, 0); fill-opacity: 1;"/></g><g class="composite-shape"><path class="real" d=" M1576.92,353.67 C1576.92,351.13 1578.97,349.07 1581.51,349.07 C1584.05,349.07 1586.11,351.13 1586.11,353.67 C1586.11,356.21 1584.05,358.27 1581.51,358.27 C1578.97,358.27 1576.92,356.21 1576.92,353.67 Z" style="stroke-width: 1; stroke: rgb(0, 0, 0); fill: rgb(0, 0, 0); fill-opacity: 1;"/></g><g class="composite-shape"><path class="real" d=" M1623.52,349.91 C1623.52,347.37 1625.58,345.31 1628.12,345.31 C1630.66,345.31 1632.72,347.37 1632.72,349.91 C1632.72,352.45 1630.66,354.51 1628.12,354.51 C1625.58,354.51 1623.52,352.45 1623.52,349.91 Z" style="stroke-width: 1; stroke: rgb(0, 0, 0); fill: rgb(0, 0, 0); fill-opacity: 1;"/></g><g class="composite-shape"><path class="real" d=" M1609.08,363.35 C1609.08,360.81 1611.14,358.75 1613.68,358.75 C1616.22,358.75 1618.28,360.81 1618.28,363.35 C1618.28,365.89 1616.22,367.95 1613.68,367.95 C1611.14,367.95 1609.08,365.89 1609.08,363.35 Z" style="stroke-width: 1; stroke: rgb(0, 0, 0); fill: rgb(0, 0, 0); fill-opacity: 1;"/></g></g><g class="grouped-shape"><g class="grouped-shape"><g class="composite-shape"><path class="real" d=" M1628.12,537.91 L1582.94,579.97 L1482.29,549.65 Z" style="stroke-width: 2; stroke: rgb(0, 0, 0); stroke-opacity: 1; fill: none; fill-opacity: 1;"/></g><g class="composite-shape"><path class="real" d=" M1532.58,545.73 L1517.33,560.21 L1482.29,549.65 Z" style="stroke-width: 2; stroke: rgb(0, 0, 0); stroke-opacity: 1; fill: none; fill-opacity: 1;"/></g><g class="composite-shape"><path class="real" d=" M1598.54,565.39 L1582.94,579.97 L1547.98,569.44 Z" style="stroke-width: 2; stroke: rgb(0, 0, 0); stroke-opacity: 1; fill: none; fill-opacity: 1;"/></g><g class="composite-shape"><path class="real" d=" M1628.12,537.91 L1613.68,551.35 L1581.51,541.67 Z" style="stroke-width: 2; stroke: rgb(0, 0, 0); stroke-opacity: 1; fill: none; fill-opacity: 1;"/></g></g><g class="grouped-shape"><g class="composite-shape"><path class="real" d=" M1313.6,538.61 L1346.13,548.87 L1299.32,552.1 Z" style="stroke-width: 2; stroke: rgb(0, 0, 0); stroke-opacity: 1; fill: none; fill-opacity: 1;"/></g><g class="composite-shape"><path class="real" d=" M1344.46,510.67 L1445.71,541.99 L1299.32,552.1 Z" style="stroke-width: 2; stroke: rgb(0, 0, 0); stroke-opacity: 1; fill: none; fill-opacity: 1;"/></g><g class="composite-shape"><path class="real" d=" M1344.46,510.67 L1376.05,520.99 L1330.98,524.11 Z" style="stroke-width: 2; stroke: rgb(0, 0, 0); stroke-opacity: 1; fill: none; fill-opacity: 1;"/></g><g class="composite-shape"><path class="real" d=" M1411.75,531.83 L1445.71,541.99 L1396.23,545.41 Z" style="stroke-width: 2; stroke: rgb(0, 0, 0); stroke-opacity: 1; fill: none; fill-opacity: 1;"/></g></g><g class="grouped-shape"><g class="composite-shape"><path class="real" d=" M1378.66,429.74 L1333.48,471.79 L1232.82,441.48 Z" style="stroke-width: 2; stroke: rgb(0, 0, 0); stroke-opacity: 1; fill: none; fill-opacity: 1;"/></g><g class="composite-shape"><path class="real" d=" M1378.42,429.66 L1363.74,443.03 L1332.13,433.51 Z" style="stroke-width: 2; stroke: rgb(0, 0, 0); stroke-opacity: 1; fill: none; fill-opacity: 1;"/></g><g class="composite-shape"><path class="real" d=" M1283.36,437.42 L1267.75,452 L1232.82,441.48 Z" style="stroke-width: 2; stroke: rgb(0, 0, 0); stroke-opacity: 1; fill: none; fill-opacity: 1;"/></g><g class="composite-shape"><path class="real" d=" M1355.96,450.73 L1333.48,471.79 L1282.9,456.56 Z" style="stroke-width: 2; stroke: rgb(0, 0, 0); stroke-opacity: 1; fill: none; fill-opacity: 1;"/></g></g><g class="grouped-shape"><g class="composite-shape"><path class="real" d=" M1265.86,567.84 L1220.68,609.89 L1120.02,579.58 Z" style="stroke-width: 2; stroke: rgb(0, 0, 0); stroke-opacity: 1; fill: none; fill-opacity: 1;"/></g><g class="composite-shape"><path class="real" d=" M1170.63,575.54 L1155.06,590.13 L1120.02,579.58 Z" style="stroke-width: 2; stroke: rgb(0, 0, 0); stroke-opacity: 1; fill: none; fill-opacity: 1;"/></g><g class="composite-shape"><path class="real" d=" M1236.44,595.36 L1220.68,609.89 L1186.11,599.48 Z" style="stroke-width: 2; stroke: rgb(0, 0, 0); stroke-opacity: 1; fill: none; fill-opacity: 1;"/></g><g class="composite-shape"><path class="real" d=" M1265.86,567.84 L1251.35,581.26 L1219.33,571.61 Z" style="stroke-width: 2; stroke: rgb(0, 0, 0); stroke-opacity: 1; fill: none; fill-opacity: 1;"/></g></g><g class="arrow-line"><path class="connection real" stroke-dasharray="" d="  M1333.48,471.79 L1344.46,510.67" style="stroke: rgb(0, 0, 0); stroke-width: 2; fill: none; fill-opacity: 1;"/></g><g class="arrow-line"><path class="connection real" stroke-dasharray="" d="  M1482.29,549.65 L1445.71,541.99" style="stroke: rgb(0, 0, 0); stroke-width: 2; fill: none; fill-opacity: 1;"/></g><g class="arrow-line"><path class="connection real" stroke-dasharray="" d="  M1265.86,567.84 L1299.32,552.1" style="stroke: rgb(0, 0, 0); stroke-width: 2; fill: none; fill-opacity: 1;"/></g><g class="composite-shape"><path class="real" d=" M1328.88,471.79 C1328.88,469.25 1330.94,467.19 1333.48,467.19 C1336.02,467.19 1338.07,469.25 1338.07,471.79 C1338.07,474.33 1336.02,476.39 1333.48,476.39 C1330.94,476.39 1328.88,474.33 1328.88,471.79 Z" style="stroke-width: 1; stroke: rgb(0, 0, 0); fill: rgb(0, 0, 0); fill-opacity: 1;"/></g><g class="composite-shape"><path class="real" d=" M1351.36,450.73 C1351.36,448.19 1353.42,446.13 1355.96,446.13 C1358.5,446.13 1360.56,448.19 1360.56,450.73 C1360.56,453.27 1358.5,455.33 1355.96,455.33 C1353.42,455.33 1351.36,453.27 1351.36,450.73 Z" style="stroke-width: 1; stroke: rgb(0, 0, 0); fill: rgb(0, 0, 0); fill-opacity: 1;"/></g><g class="composite-shape"><path class="real" d=" M1282.9,456.56 C1282.9,454.02 1284.96,451.96 1287.5,451.96 C1290.04,451.96 1292.1,454.02 1292.1,456.56 C1292.1,459.1 1290.04,461.16 1287.5,461.16 C1284.96,461.16 1282.9,459.1 1282.9,456.56 Z" style="stroke-width: 1; stroke: rgb(0, 0, 0); fill: rgb(0, 0, 0); fill-opacity: 1;"/></g><g class="composite-shape"><path class="real" d=" M1263.15,452 C1263.15,449.46 1265.21,447.4 1267.75,447.4 C1270.29,447.4 1272.35,449.46 1272.35,452 C1272.35,454.54 1270.29,456.59 1267.75,456.59 C1265.21,456.59 1263.15,454.54 1263.15,452 Z" style="stroke-width: 1; stroke: rgb(0, 0, 0); fill: rgb(0, 0, 0); fill-opacity: 1;"/></g><g class="composite-shape"><path class="real" d=" M1278.76,437.42 C1278.76,434.88 1280.82,432.82 1283.36,432.82 C1285.9,432.82 1287.96,434.88 1287.96,437.42 C1287.96,439.96 1285.9,442.02 1283.36,442.02 C1280.82,442.02 1278.76,439.96 1278.76,437.42 Z" style="stroke-width: 1; stroke: rgb(0, 0, 0); fill: rgb(0, 0, 0); fill-opacity: 1;"/></g><g class="composite-shape"><path class="real" d=" M1332.13,433.51 C1332.13,430.97 1334.19,428.91 1336.73,428.91 C1339.27,428.91 1341.33,430.97 1341.33,433.51 C1341.33,436.05 1339.27,438.11 1336.73,438.11 C1334.19,438.11 1332.13,436.05 1332.13,433.51 Z" style="stroke-width: 1; stroke: rgb(0, 0, 0); fill: rgb(0, 0, 0); fill-opacity: 1;"/></g><g class="composite-shape"><path class="real" d=" M1373.82,429.66 C1373.82,427.12 1375.88,425.06 1378.42,425.06 C1380.96,425.06 1383.01,427.12 1383.01,429.66 C1383.01,432.2 1380.96,434.26 1378.42,434.26 C1375.88,434.26 1373.82,432.2 1373.82,429.66 Z" style="stroke-width: 1; stroke: rgb(0, 0, 0); fill: rgb(0, 0, 0); fill-opacity: 1;"/></g><g class="composite-shape"><path class="real" d=" M1359.14,443.03 C1359.14,440.49 1361.2,438.44 1363.74,438.44 C1366.28,438.44 1368.34,440.49 1368.34,443.03 C1368.34,445.57 1366.28,447.63 1363.74,447.63 C1361.2,447.63 1359.14,445.57 1359.14,443.03 Z" style="stroke-width: 1; stroke: rgb(0, 0, 0); fill: rgb(0, 0, 0); fill-opacity: 1;"/></g><g class="composite-shape"><path class="real" d=" M1232.82,441.48 C1232.82,438.94 1234.88,436.88 1237.42,436.88 C1239.96,436.88 1242.02,438.94 1242.02,441.48 C1242.02,444.02 1239.96,446.07 1237.42,446.07 C1234.88,446.07 1232.82,444.02 1232.82,441.48 Z" style="stroke-width: 1; stroke: rgb(0, 0, 0); fill: rgb(0, 0, 0); fill-opacity: 1;"/></g><g class="composite-shape"><path class="real" d=" M1339.86,510.67 C1339.86,508.13 1341.92,506.07 1344.46,506.07 C1347,506.07 1349.06,508.13 1349.06,510.67 C1349.06,513.21 1347,515.27 1344.46,515.27 C1341.92,515.27 1339.86,513.21 1339.86,510.67 Z" style="stroke-width: 1; stroke: rgb(0, 0, 0); fill: rgb(0, 0, 0); fill-opacity: 1;"/></g><g class="composite-shape"><path class="real" d=" M1371.45,520.99 C1371.45,518.45 1373.51,516.4 1376.05,516.4 C1378.59,516.4 1380.65,518.45 1380.65,520.99 C1380.65,523.53 1378.59,525.59 1376.05,525.59 C1373.51,525.59 1371.45,523.53 1371.45,520.99 Z" style="stroke-width: 1; stroke: rgb(0, 0, 0); fill: rgb(0, 0, 0); fill-opacity: 1;"/></g><g class="composite-shape"><path class="real" d=" M1326.38,524.11 C1326.38,521.57 1328.44,519.51 1330.98,519.51 C1333.52,519.51 1335.58,521.57 1335.58,524.11 C1335.58,526.65 1333.52,528.71 1330.98,528.71 C1328.44,528.71 1326.38,526.65 1326.38,524.11 Z" style="stroke-width: 1; stroke: rgb(0, 0, 0); fill: rgb(0, 0, 0); fill-opacity: 1;"/></g><g class="composite-shape"><path class="real" d=" M1309,538.61 C1309,536.07 1311.06,534.01 1313.6,534.01 C1316.14,534.01 1318.2,536.07 1318.2,538.61 C1318.2,541.15 1316.14,543.21 1313.6,543.21 C1311.06,543.21 1309,541.15 1309,538.61 Z" style="stroke-width: 1; stroke: rgb(0, 0, 0); fill: rgb(0, 0, 0); fill-opacity: 1;"/></g><g class="composite-shape"><path class="real" d=" M1341.53,548.87 C1341.53,546.33 1343.59,544.27 1346.13,544.27 C1348.67,544.27 1350.73,546.33 1350.73,548.87 C1350.73,551.41 1348.67,553.47 1346.13,553.47 C1343.59,553.47 1341.53,551.41 1341.53,548.87 Z" style="stroke-width: 1; stroke: rgb(0, 0, 0); fill: rgb(0, 0, 0); fill-opacity: 1;"/></g><g class="composite-shape"><path class="real" d=" M1294.72,552.1 C1294.72,549.56 1296.78,547.5 1299.32,547.5 C1301.86,547.5 1303.92,549.56 1303.92,552.1 C1303.92,554.64 1301.86,556.7 1299.32,556.7 C1296.78,556.7 1294.72,554.64 1294.72,552.1 Z" style="stroke-width: 1; stroke: rgb(0, 0, 0); fill: rgb(0, 0, 0); fill-opacity: 1;"/></g><g class="composite-shape"><path class="real" d=" M1407.15,531.83 C1407.15,529.29 1409.21,527.23 1411.75,527.23 C1414.29,527.23 1416.35,529.29 1416.35,531.83 C1416.35,534.37 1414.29,536.43 1411.75,536.43 C1409.21,536.43 1407.15,534.37 1407.15,531.83 Z" style="stroke-width: 1; stroke: rgb(0, 0, 0); fill: rgb(0, 0, 0); fill-opacity: 1;"/></g><g class="composite-shape"><path class="real" d=" M1391.63,545.41 C1391.63,542.87 1393.69,540.81 1396.23,540.81 C1398.77,540.81 1400.83,542.87 1400.83,545.41 C1400.83,547.95 1398.77,550.01 1396.23,550.01 C1393.69,550.01 1391.63,547.95 1391.63,545.41 Z" style="stroke-width: 1; stroke: rgb(0, 0, 0); fill: rgb(0, 0, 0); fill-opacity: 1;"/></g><g class="composite-shape"><path class="real" d=" M1438.59,541.5 C1438.59,538.96 1440.65,536.9 1443.19,536.9 C1445.73,536.9 1447.79,538.96 1447.79,541.5 C1447.79,544.04 1445.73,546.1 1443.19,546.1 C1440.65,546.1 1438.59,544.04 1438.59,541.5 Z" style="stroke-width: 1; stroke: rgb(0, 0, 0); fill: rgb(0, 0, 0); fill-opacity: 1;"/></g><g class="composite-shape"><path class="real" d=" M1259.86,566.96 C1259.86,564.42 1261.92,562.36 1264.46,562.36 C1267,562.36 1269.06,564.42 1269.06,566.96 C1269.06,569.5 1267,571.56 1264.46,571.56 C1261.92,571.56 1259.86,569.5 1259.86,566.96 Z" style="stroke-width: 1; stroke: rgb(0, 0, 0); fill: rgb(0, 0, 0); fill-opacity: 1;"/></g><g class="composite-shape"><path class="real" d=" M1246.76,581.26 C1246.76,578.72 1248.81,576.66 1251.35,576.66 C1253.89,576.66 1255.95,578.72 1255.95,581.26 C1255.95,583.8 1253.89,585.86 1251.35,585.86 C1248.81,585.86 1246.76,583.8 1246.76,581.26 Z" style="stroke-width: 1; stroke: rgb(0, 0, 0); fill: rgb(0, 0, 0); fill-opacity: 1;"/></g><g class="composite-shape"><path class="real" d=" M1219.33,571.61 C1219.33,569.07 1221.39,567.01 1223.93,567.01 C1226.47,567.01 1228.53,569.07 1228.53,571.61 C1228.53,574.15 1226.47,576.21 1223.93,576.21 C1221.39,576.21 1219.33,574.15 1219.33,571.61 Z" style="stroke-width: 1; stroke: rgb(0, 0, 0); fill: rgb(0, 0, 0); fill-opacity: 1;"/></g><g class="composite-shape"><path class="real" d=" M1231.84,595.36 C1231.84,592.82 1233.9,590.76 1236.44,590.76 C1238.98,590.76 1241.04,592.82 1241.04,595.36 C1241.04,597.9 1238.98,599.96 1236.44,599.96 C1233.9,599.96 1231.84,597.9 1231.84,595.36 Z" style="stroke-width: 1; stroke: rgb(0, 0, 0); fill: rgb(0, 0, 0); fill-opacity: 1;"/></g><g class="composite-shape"><path class="real" d=" M1166.03,575.54 C1166.03,573 1168.09,570.94 1170.63,570.94 C1173.17,570.94 1175.23,573 1175.23,575.54 C1175.23,578.08 1173.17,580.14 1170.63,580.14 C1168.09,580.14 1166.03,578.08 1166.03,575.54 Z" style="stroke-width: 1; stroke: rgb(0, 0, 0); fill: rgb(0, 0, 0); fill-opacity: 1;"/></g><g class="composite-shape"><path class="real" d=" M1150.46,590.13 C1150.46,587.59 1152.52,585.53 1155.06,585.53 C1157.6,585.53 1159.66,587.59 1159.66,590.13 C1159.66,592.67 1157.6,594.73 1155.06,594.73 C1152.52,594.73 1150.46,592.67 1150.46,590.13 Z" style="stroke-width: 1; stroke: rgb(0, 0, 0); fill: rgb(0, 0, 0); fill-opacity: 1;"/></g><g class="composite-shape"><path class="real" d=" M1120.02,579.58 C1120.02,577.04 1122.08,574.98 1124.62,574.98 C1127.16,574.98 1129.22,577.04 1129.22,579.58 C1129.22,582.12 1127.16,584.17 1124.62,584.17 C1122.08,584.17 1120.02,582.12 1120.02,579.58 Z" style="stroke-width: 1; stroke: rgb(0, 0, 0); fill: rgb(0, 0, 0); fill-opacity: 1;"/></g><g class="composite-shape"><path class="real" d=" M1216.08,609.89 C1216.08,607.35 1218.14,605.29 1220.68,605.29 C1223.22,605.29 1225.27,607.35 1225.27,609.89 C1225.27,612.43 1223.22,614.49 1220.68,614.49 C1218.14,614.49 1216.08,612.43 1216.08,609.89 Z" style="stroke-width: 1; stroke: rgb(0, 0, 0); fill: rgb(0, 0, 0); fill-opacity: 1;"/></g><g class="composite-shape"><path class="real" d=" M1181.51,599.48 C1181.51,596.94 1183.57,594.88 1186.11,594.88 C1188.65,594.88 1190.71,596.94 1190.71,599.48 C1190.71,602.02 1188.65,604.08 1186.11,604.08 C1183.57,604.08 1181.51,602.02 1181.51,599.48 Z" style="stroke-width: 1; stroke: rgb(0, 0, 0); fill: rgb(0, 0, 0); fill-opacity: 1;"/></g><g class="composite-shape"><path class="real" d=" M1482.29,549.65 C1482.29,547.11 1484.34,545.05 1486.88,545.05 C1489.42,545.05 1491.48,547.11 1491.48,549.65 C1491.48,552.19 1489.42,554.25 1486.88,554.25 C1484.34,554.25 1482.29,552.19 1482.29,549.65 Z" style="stroke-width: 1; stroke: rgb(0, 0, 0); fill: rgb(0, 0, 0); fill-opacity: 1;"/></g><g class="composite-shape"><path class="real" d=" M1527.98,545.73 C1527.98,543.19 1530.04,541.13 1532.58,541.13 C1535.12,541.13 1537.18,543.19 1537.18,545.73 C1537.18,548.27 1535.12,550.33 1532.58,550.33 C1530.04,550.33 1527.98,548.27 1527.98,545.73 Z" style="stroke-width: 1; stroke: rgb(0, 0, 0); fill: rgb(0, 0, 0); fill-opacity: 1;"/></g><g class="composite-shape"><path class="real" d=" M1512.73,560.21 C1512.73,557.67 1514.79,555.61 1517.33,555.61 C1519.87,555.61 1521.93,557.67 1521.93,560.21 C1521.93,562.75 1519.87,564.81 1517.33,564.81 C1514.79,564.81 1512.73,562.75 1512.73,560.21 Z" style="stroke-width: 1; stroke: rgb(0, 0, 0); fill: rgb(0, 0, 0); fill-opacity: 1;"/></g><g class="composite-shape"><path class="real" d=" M1543.38,569.44 C1543.38,566.9 1545.43,564.84 1547.98,564.84 C1550.52,564.84 1552.57,566.9 1552.57,569.44 C1552.57,571.98 1550.52,574.04 1547.98,574.04 C1545.43,574.04 1543.38,571.98 1543.38,569.44 Z" style="stroke-width: 1; stroke: rgb(0, 0, 0); fill: rgb(0, 0, 0); fill-opacity: 1;"/></g><g class="composite-shape"><path class="real" d=" M1593.94,565.39 C1593.94,562.85 1596,560.79 1598.54,560.79 C1601.08,560.79 1603.14,562.85 1603.14,565.39 C1603.14,567.93 1601.08,569.99 1598.54,569.99 C1596,569.99 1593.94,567.93 1593.94,565.39 Z" style="stroke-width: 1; stroke: rgb(0, 0, 0); fill: rgb(0, 0, 0); fill-opacity: 1;"/></g><g class="composite-shape"><path class="real" d=" M1578.34,579.97 C1578.34,577.43 1580.4,575.37 1582.94,575.37 C1585.48,575.37 1587.54,577.43 1587.54,579.97 C1587.54,582.51 1585.48,584.57 1582.94,584.57 C1580.4,584.57 1578.34,582.51 1578.34,579.97 Z" style="stroke-width: 1; stroke: rgb(0, 0, 0); fill: rgb(0, 0, 0); fill-opacity: 1;"/></g><g class="composite-shape"><path class="real" d=" M1576.92,541.67 C1576.92,539.13 1578.97,537.07 1581.51,537.07 C1584.05,537.07 1586.11,539.13 1586.11,541.67 C1586.11,544.21 1584.05,546.27 1581.51,546.27 C1578.97,546.27 1576.92,544.21 1576.92,541.67 Z" style="stroke-width: 1; stroke: rgb(0, 0, 0); fill: rgb(0, 0, 0); fill-opacity: 1;"/></g><g class="composite-shape"><path class="real" d=" M1623.52,537.91 C1623.52,535.37 1625.58,533.31 1628.12,533.31 C1630.66,533.31 1632.72,535.37 1632.72,537.91 C1632.72,540.45 1630.66,542.51 1628.12,542.51 C1625.58,542.51 1623.52,540.45 1623.52,537.91 Z" style="stroke-width: 1; stroke: rgb(0, 0, 0); fill: rgb(0, 0, 0); fill-opacity: 1;"/></g><g class="composite-shape"><path class="real" d=" M1609.08,551.35 C1609.08,548.81 1611.14,546.75 1613.68,546.75 C1616.22,546.75 1618.28,548.81 1618.28,551.35 C1618.28,553.89 1616.22,555.95 1613.68,555.95 C1611.14,555.95 1609.08,553.89 1609.08,551.35 Z" style="stroke-width: 1; stroke: rgb(0, 0, 0); fill: rgb(0, 0, 0); fill-opacity: 1;"/></g></g><g class="arrow-line"><path class="connection real" stroke-dasharray="6 6" d="  M1345.46,105.67 L1344.46,322.67" style="stroke: rgb(0, 0, 0); stroke-width: 1; fill: none; fill-opacity: 1;"/></g><g class="arrow-line"><path class="connection real" stroke-dasharray="6 6" d="  M1334.48,66.79 L1333.48,283.79" style="stroke: rgb(0, 0, 0); stroke-width: 1; fill: none; fill-opacity: 1;"/></g><g class="arrow-line"><path class="connection real" stroke-dasharray="6 6" d="  M1356.96,45.73 L1355.96,262.73" style="stroke: rgb(0, 0, 0); stroke-width: 1; fill: none; fill-opacity: 1;"/></g><g class="arrow-line"><path class="connection real" stroke-dasharray="6 6" d="  M1364.74,38.03 L1363.74,255.03" style="stroke: rgb(0, 0, 0); stroke-width: 1; fill: none; fill-opacity: 1;"/></g><g class="arrow-line"><path class="connection real" stroke-dasharray="6 6" d="  M1288.5,51.56 L1287.5,268.56" style="stroke: rgb(0, 0, 0); stroke-width: 1; fill: none; fill-opacity: 1;"/></g><g class="arrow-line"><path class="connection real" stroke-dasharray="6 6" d="  M1284.36,32.42 L1283.36,249.42" style="stroke: rgb(0, 0, 0); stroke-width: 1; fill: none; fill-opacity: 1;"/></g><g class="arrow-line"><path class="connection real" stroke-dasharray="6 6" d="  M1268.75,47 L1267.75,264" style="stroke: rgb(0, 0, 0); stroke-width: 1; fill: none; fill-opacity: 1;"/></g><g class="arrow-line"><path class="connection real" stroke-dasharray="" d="  M1125.62,174.58 L1124.62,391.58" style="stroke: rgb(0, 0, 0); stroke-width: 1; fill: none; fill-opacity: 1;"/></g><g class="arrow-line"><path class="connection real" stroke-dasharray="6 6" d="  M1238.42,36.48 L1237.42,253.48" style="stroke: rgb(0, 0, 0); stroke-width: 1; fill: none; fill-opacity: 1;"/></g><g class="arrow-line"><path class="connection real" stroke-dasharray="" d="  M1156.06,185.13 L1155.06,402.13" style="stroke: rgb(0, 0, 0); stroke-width: 1; fill: none; fill-opacity: 1;"/></g><g class="arrow-line"><path class="connection real" stroke-dasharray="" d="  M1187.11,194.48 L1186.11,411.48" style="stroke: rgb(0, 0, 0); stroke-width: 1; fill: none; fill-opacity: 1;"/></g><g class="arrow-line"><path class="connection real" stroke-dasharray="" d="  M1221.68,204.89 L1220.68,421.89" style="stroke: rgb(0, 0, 0); stroke-width: 1; fill: none; fill-opacity: 1;"/></g><g class="arrow-line"><path class="connection real" stroke-dasharray="" d="  M1237.44,190.36 L1236.44,407.36" style="stroke: rgb(0, 0, 0); stroke-width: 1; fill: none; fill-opacity: 1;"/></g><g class="arrow-line"><path class="connection real" stroke-dasharray="" d="  M1252.35,176.26 L1251.35,393.26" style="stroke: rgb(0, 0, 0); stroke-width: 1; fill: none; fill-opacity: 1;"/></g><g class="arrow-line"><path class="connection real" stroke-dasharray="" d="  M1265.46,161.96 L1264.46,378.96" style="stroke: rgb(0, 0, 0); stroke-width: 1; fill: none; fill-opacity: 1;"/></g><g class="arrow-line"><path class="connection real" stroke-dasharray="6 6" d="  M1171.63,170.54 L1170.63,387.54" style="stroke: rgb(0, 0, 0); stroke-width: 1; fill: none; fill-opacity: 1;"/></g><g class="arrow-line"><path class="connection real" stroke-dasharray="6 6" d="  M1224.93,166.61 L1223.93,383.61" style="stroke: rgb(0, 0, 0); stroke-width: 1; fill: none; fill-opacity: 1;"/></g><g class="arrow-line"><path class="connection real" stroke-dasharray="" d="  M1300.32,147.1 L1299.32,364.1" style="stroke: rgb(0, 0, 0); stroke-width: 1; fill: none; fill-opacity: 1;"/></g><g class="arrow-line"><path class="connection real" stroke-dasharray="" d="  M1347.13,143.87 L1346.13,360.87" style="stroke: rgb(0, 0, 0); stroke-width: 1; fill: none; fill-opacity: 1;"/></g><g class="arrow-line"><path class="connection real" stroke-dasharray="" d="  M1397.23,140.41 L1396.23,357.41" style="stroke: rgb(0, 0, 0); stroke-width: 1; fill: none; fill-opacity: 1;"/></g><g class="arrow-line"><path class="connection real" stroke-dasharray="" d="  M1444.19,136.5 L1443.19,353.5" style="stroke: rgb(0, 0, 0); stroke-width: 1; fill: none; fill-opacity: 1;"/></g><g class="arrow-line"><path class="connection real" stroke-dasharray="6 6" d="  M1379.42,24.66 L1378.42,241.66" style="stroke: rgb(0, 0, 0); stroke-width: 1; fill: none; fill-opacity: 1;"/></g><g class="arrow-line"><path class="connection real" stroke-dasharray="6 6" d="  M1337.73,28.51 L1336.73,245.51" style="stroke: rgb(0, 0, 0); stroke-width: 1; fill: none; fill-opacity: 1;"/></g><g class="arrow-line"><path class="connection real" stroke-dasharray="6 6" d="  M1377.05,115.99 L1376.05,332.99" style="stroke: rgb(0, 0, 0); stroke-width: 1; fill: none; fill-opacity: 1;"/></g><g class="arrow-line"><path class="connection real" stroke-dasharray="6 6" d="  M1412.75,126.83 L1411.75,343.83" style="stroke: rgb(0, 0, 0); stroke-width: 1; fill: none; fill-opacity: 1;"/></g><g class="arrow-line"><path class="connection real" stroke-dasharray="" d="  M1487.88,144.65 L1486.88,361.65" style="stroke: rgb(0, 0, 0); stroke-width: 1; fill: none; fill-opacity: 1;"/></g><g class="arrow-line"><path class="connection real" stroke-dasharray="" d="  M1518.33,155.21 L1517.33,372.21" style="stroke: rgb(0, 0, 0); stroke-width: 1; fill: none; fill-opacity: 1;"/></g><g class="arrow-line"><path class="connection real" stroke-dasharray="" d="  M1548.98,164.44 L1547.98,381.44" style="stroke: rgb(0, 0, 0); stroke-width: 1; fill: none; fill-opacity: 1;"/></g><g class="arrow-line"><path class="connection real" stroke-dasharray="" d="  M1583.94,174.97 L1582.94,391.97" style="stroke: rgb(0, 0, 0); stroke-width: 1; fill: none; fill-opacity: 1;"/></g><g class="arrow-line"><path class="connection real" stroke-dasharray="" d="  M1599.54,160.39 L1598.54,377.39" style="stroke: rgb(0, 0, 0); stroke-width: 1; fill: none; fill-opacity: 1;"/></g><g class="arrow-line"><path class="connection real" stroke-dasharray="" d="  M1614.68,146.35 L1613.68,363.35" style="stroke: rgb(0, 0, 0); stroke-width: 1; fill: none; fill-opacity: 1;"/></g><g class="arrow-line"><path class="connection real" stroke-dasharray="" d="  M1629.12,132.91 L1628.12,349.91" style="stroke: rgb(0, 0, 0); stroke-width: 1; fill: none; fill-opacity: 1;"/></g><g class="arrow-line"><path class="connection real" stroke-dasharray="6 6" d="  M1533.58,140.73 L1532.58,357.73" style="stroke: rgb(0, 0, 0); stroke-width: 1; fill: none; fill-opacity: 1;"/></g><g class="arrow-line"><path class="connection real" stroke-dasharray="6 6" d="  M1582.51,136.67 L1581.51,353.67" style="stroke: rgb(0, 0, 0); stroke-width: 1; fill: none; fill-opacity: 1;"/></g><g class="arrow-line"><path class="connection real" stroke-dasharray="" d="  M1443.19,353.5 L1443.19,536.9" style="stroke: rgb(0, 0, 0); stroke-width: 1; fill: none; fill-opacity: 1;"/></g><g class="arrow-line"><path class="connection real" stroke-dasharray="6 6" d="  M1344.46,322.67 L1344.46,510.67" style="stroke: rgb(0, 0, 0); stroke-width: 1; fill: none; fill-opacity: 1;"/></g><g class="arrow-line"><path class="connection real" stroke-dasharray="6 6" d="  M1376.05,332.99 L1376.05,520.99" style="stroke: rgb(0, 0, 0); stroke-width: 1; fill: none; fill-opacity: 1;"/></g><g class="arrow-line"><path class="connection real" stroke-dasharray="" d="  M1486.88,361.65 L1486.88,545.05" style="stroke: rgb(0, 0, 0); stroke-width: 1; fill: none; fill-opacity: 1;"/></g><g class="arrow-line"><path class="connection real" stroke-dasharray="" d="  M1517.33,372.21 L1517.33,555.61" style="stroke: rgb(0, 0, 0); stroke-width: 1; fill: none; fill-opacity: 1;"/></g><g class="arrow-line"><path class="connection real" stroke-dasharray="" d="  M1547.98,381.44 L1547.98,564.84" style="stroke: rgb(0, 0, 0); stroke-width: 1; fill: none; fill-opacity: 1;"/></g><g class="arrow-line"><path class="connection real" stroke-dasharray="" d="  M1582.94,391.97 L1582.94,575.37" style="stroke: rgb(0, 0, 0); stroke-width: 1; fill: none; fill-opacity: 1;"/></g><g class="arrow-line"><path class="connection real" stroke-dasharray="" d="  M1598.54,377.39 L1598.54,560.79" style="stroke: rgb(0, 0, 0); stroke-width: 1; fill: none; fill-opacity: 1;"/></g><g class="arrow-line"><path class="connection real" stroke-dasharray="" d="  M1613.68,363.35 L1613.68,546.75" style="stroke: rgb(0, 0, 0); stroke-width: 1; fill: none; fill-opacity: 1;"/></g><g class="arrow-line"><path class="connection real" stroke-dasharray="" d="  M1628.12,349.91 L1628.12,533.31" style="stroke: rgb(0, 0, 0); stroke-width: 1; fill: none; fill-opacity: 1;"/></g><g class="arrow-line"><path class="connection real" stroke-dasharray="6 6" d="  M1411.75,343.83 L1411.75,531.83" style="stroke: rgb(0, 0, 0); stroke-width: 1; fill: none; fill-opacity: 1;"/></g><g class="arrow-line"><path class="connection real" stroke-dasharray="6 6" d="  M1333.48,283.79 L1333.48,471.79" style="stroke: rgb(0, 0, 0); stroke-width: 1; fill: none; fill-opacity: 1;"/></g><g class="arrow-line"><path class="connection real" stroke-dasharray="6 6" d="  M1287.5,268.56 L1287.5,456.56" style="stroke: rgb(0, 0, 0); stroke-width: 1; fill: none; fill-opacity: 1;"/></g><g class="arrow-line"><path class="connection real" stroke-dasharray="6 6" d="  M1237.42,248.88 L1237.42,436.88" style="stroke: rgb(0, 0, 0); stroke-width: 1; fill: none; fill-opacity: 1;"/></g><g class="arrow-line"><path class="connection real" stroke-dasharray="6 6" d="  M1267.75,264 L1267.75,452" style="stroke: rgb(0, 0, 0); stroke-width: 1; fill: none; fill-opacity: 1;"/></g><g class="arrow-line"><path class="connection real" stroke-dasharray="6 6" d="  M1336.73,245.51 L1336.73,433.51" style="stroke: rgb(0, 0, 0); stroke-width: 1; fill: none; fill-opacity: 1;"/></g><g class="arrow-line"><path class="connection real" stroke-dasharray="6 6" d="  M1378.66,241.74 L1378.66,429.74" style="stroke: rgb(0, 0, 0); stroke-width: 1; fill: none; fill-opacity: 1;"/></g><g class="arrow-line"><path class="connection real" stroke-dasharray="6 6" d="  M1363.74,255.03 L1363.74,443.03" style="stroke: rgb(0, 0, 0); stroke-width: 1; fill: none; fill-opacity: 1;"/></g><g class="arrow-line"><path class="connection real" stroke-dasharray="6 6" d="  M1355.96,262.73 L1355.96,450.73" style="stroke: rgb(0, 0, 0); stroke-width: 1; fill: none; fill-opacity: 1;"/></g><g class="arrow-line"><path class="connection real" stroke-dasharray="6 6" d="  M1283.36,249.42 L1283.36,437.42" style="stroke: rgb(0, 0, 0); stroke-width: 1; fill: none; fill-opacity: 1;"/></g><g class="arrow-line"><path class="connection real" stroke-dasharray="6 6" d="  M1330.98,336.11 L1330.98,524.11" style="stroke: rgb(0, 0, 0); stroke-width: 1; fill: none; fill-opacity: 1;"/></g><g class="arrow-line"><path class="connection real" stroke-dasharray="6 6" d="  M1313.6,350.61 L1313.6,538.61" style="stroke: rgb(0, 0, 0); stroke-width: 1; fill: none; fill-opacity: 1;"/></g><g class="arrow-line"><path class="connection real" stroke-dasharray="6 6" d="  M1223.93,383.61 L1223.93,571.61" style="stroke: rgb(0, 0, 0); stroke-width: 1; fill: none; fill-opacity: 1;"/></g><g class="arrow-line"><path class="connection real" stroke-dasharray="6 6" d="  M1170.63,387.54 L1170.63,575.54" style="stroke: rgb(0, 0, 0); stroke-width: 1; fill: none; fill-opacity: 1;"/></g><g class="arrow-line"><path class="connection real" stroke-dasharray="6 6" d="  M1532.58,357.73 L1532.58,545.73" style="stroke: rgb(0, 0, 0); stroke-width: 1; fill: none; fill-opacity: 1;"/></g><g class="arrow-line"><path class="connection real" stroke-dasharray="6 6" d="  M1581.51,353.67 L1581.51,541.67" style="stroke: rgb(0, 0, 0); stroke-width: 1; fill: none; fill-opacity: 1;"/></g><g class="arrow-line"><path class="connection real" stroke-dasharray="" d="  M1396.23,362.01 L1396.23,545.41" style="stroke: rgb(0, 0, 0); stroke-width: 1; fill: none; fill-opacity: 1;"/></g><g class="arrow-line"><path class="connection real" stroke-dasharray="" d="  M1346.13,360.87 L1346.13,548.87" style="stroke: rgb(0, 0, 0); stroke-width: 1; fill: none; fill-opacity: 1;"/></g><g class="arrow-line"><path class="connection real" stroke-dasharray="" d="  M1299.32,364.1 L1299.32,552.1" style="stroke: rgb(0, 0, 0); stroke-width: 1; fill: none; fill-opacity: 1;"/></g><g class="arrow-line"><path class="connection real" stroke-dasharray="" d="  M1264.46,378.96 L1264.46,566.96" style="stroke: rgb(0, 0, 0); stroke-width: 1; fill: none; fill-opacity: 1;"/></g><g class="arrow-line"><path class="connection real" stroke-dasharray="" d="  M1251.35,393.26 L1251.35,581.26" style="stroke: rgb(0, 0, 0); stroke-width: 1; fill: none; fill-opacity: 1;"/></g><g class="arrow-line"><path class="connection real" stroke-dasharray="" d="  M1236.44,407.36 L1236.44,595.36" style="stroke: rgb(0, 0, 0); stroke-width: 1; fill: none; fill-opacity: 1;"/></g><g class="arrow-line"><path class="connection real" stroke-dasharray="" d="  M1220.68,421.89 L1220.68,609.89" style="stroke: rgb(0, 0, 0); stroke-width: 1; fill: none; fill-opacity: 1;"/></g><g class="arrow-line"><path class="connection real" stroke-dasharray="" d="  M1186.11,411.48 L1186.11,599.48" style="stroke: rgb(0, 0, 0); stroke-width: 1; fill: none; fill-opacity: 1;"/></g><g class="arrow-line"><path class="connection real" stroke-dasharray="" d="  M1155.06,402.13 L1155.06,590.13" style="stroke: rgb(0, 0, 0); stroke-width: 1; fill: none; fill-opacity: 1;"/></g><g class="arrow-line"><path class="connection real" stroke-dasharray="" d="  M1124.62,391.58 L1124.62,579.58" style="stroke: rgb(0, 0, 0); stroke-width: 1; fill: none; fill-opacity: 1;"/></g><g class="arrow-line"><path class="connection real" stroke-dasharray="6 6" d="  M1314.6,133.61 L1313.6,350.61" style="stroke: rgb(0, 0, 0); stroke-width: 1; fill: none; fill-opacity: 1;"/></g><g class="arrow-line"><path class="connection real" stroke-dasharray="6 6" d="  M1331.98,119.11 L1330.98,336.11" style="stroke: rgb(0, 0, 0); stroke-width: 1; fill: none; fill-opacity: 1;"/></g></g><g class="composite-shape"><path class="real" d=" M892,267 L957.2,267 L957.2,257 L1000.67,277 L957.2,297 L957.2,287 L892,287 Z" style="stroke-width: 1; stroke: rgb(0, 0, 0); fill: none; fill-opacity: 1;"/></g><g/></g><g/><g/><g/></svg>
        <svg xmlns="http://www.w3.org/2000/svg" xmlns:xlink="http://www.w3.org/1999/xlink" width="1660" height="732.75" style="width:1660px;height:732.75px;font-family:Asana-Math, Asana;background:transparent;"><g><g><g><text x="46.85418701171875" y="21.048614501953125" style="white-space:pre;stroke:none;fill:rgb(0,0,0);fill-opacity:1;font-size:21.6px;font-family:Arial, Helvetica, sans-serif;font-weight:400;font-style:normal;dominant-baseline:text-before-edge;text-decoration:none solid rgb(0, 0, 0);">Transformação</text></g></g></g><g><g><g><text x="487.5069274902344" y="630.2083282470703" style="white-space:pre;stroke:none;fill:rgb(0,0,0);fill-opacity:1;font-size:31.05px;font-family:Arial, Helvetica, sans-serif;font-weight:700;font-style:normal;dominant-baseline:text-before-edge;text-decoration:none solid rgb(0, 0, 0);">Rede Multi-hierárquica</text></g></g></g><g><g><g><text x="1257.5486145019531" y="636.2083282470703" style="white-space:pre;stroke:none;fill:rgb(0,0,0);fill-opacity:1;font-size:31.05px;font-family:Arial, Helvetica, sans-serif;font-weight:700;font-style:normal;dominant-baseline:text-before-edge;text-decoration:none solid rgb(0, 0, 0);">Rede Multicamada</text></g></g></g><g><g><g><g><g><g><g transform="matrix(1,0,0,1,1042.9305725097656,589.5280572509765)"><path transform="matrix(0.02941,0,0,-0.02941,0,0)" d="M349 664L352 692L238 689C222 689 204 689 161 690L97 692L94 664L141 662C165 661 176 653 176 635L81 55C77 37 65 30 21 23L16 -3L57 -2C88 -1 150 0 170 0C170 0 467 -1 467 -1C467 -1 500 0 500 0C499 25 510 103 523 165L492 165L475 103C466 71 457 54 448 49C435 44 371 39 304 39C255 39 228 40 162 46C165 64 256 605 256 613C263 651 270 658 307 661Z" stroke="rgb(0,0,0)" stroke-opacity="1" stroke-width="0" fill="rgb(0,0,0)" fill-opacity="1"></path></g></g><g><g transform="matrix(1,0,0,1,1068.0834045410156,589.5280572509765)"><path transform="matrix(0.02941,0,0,-0.02941,0,0)" d="M604 347L604 406L65 406L65 347ZM604 134L604 193L65 193L65 134Z" stroke="rgb(0,0,0)" stroke-opacity="1" stroke-width="0" fill="rgb(0,0,0)" fill-opacity="1"></path></g></g><g><g transform="matrix(1,0,0,1,1096.5555725097656,589.5280572509765)"><path transform="matrix(0.02941,0,0,-0.02941,0,0)" d="M418 -3L418 27L366 30C311 33 301 44 301 96L301 700L60 598L67 548L217 614L217 96C217 44 206 33 152 30L96 27L96 -3C250 0 250 0 261 0C292 0 402 -3 418 -3Z" stroke="rgb(0,0,0)" stroke-opacity="1" stroke-width="0" fill="rgb(0,0,0)" fill-opacity="1"></path></g></g></g></g></g></g></g><g><g><g><g><g><g><g transform="matrix(1,0,0,1,1041.9305725097656,398.5280572509766)"><path transform="matrix(0.02941,0,0,-0.02941,0,0)" d="M349 664L352 692L238 689C222 689 204 689 161 690L97 692L94 664L141 662C165 661 176 653 176 635L81 55C77 37 65 30 21 23L16 -3L57 -2C88 -1 150 0 170 0C170 0 467 -1 467 -1C467 -1 500 0 500 0C499 25 510 103 523 165L492 165L475 103C466 71 457 54 448 49C435 44 371 39 304 39C255 39 228 40 162 46C165 64 256 605 256 613C263 651 270 658 307 661Z" stroke="rgb(0,0,0)" stroke-opacity="1" stroke-width="0" fill="rgb(0,0,0)" fill-opacity="1"></path></g></g><g><g transform="matrix(1,0,0,1,1067.0834045410156,398.5280572509766)"><path transform="matrix(0.02941,0,0,-0.02941,0,0)" d="M604 347L604 406L65 406L65 347ZM604 134L604 193L65 193L65 134Z" stroke="rgb(0,0,0)" stroke-opacity="1" stroke-width="0" fill="rgb(0,0,0)" fill-opacity="1"></path></g></g><g><g transform="matrix(1,0,0,1,1095.5555725097656,398.5280572509766)"><path transform="matrix(0.02941,0,0,-0.02941,0,0)" d="M16 23L16 -3C203 -3 203 0 239 0C275 0 275 -3 468 -3L468 82C353 77 307 81 122 77L304 270C401 373 431 428 431 503C431 618 353 689 226 689C154 689 105 669 56 619L39 483L68 483L81 529C97 587 133 612 200 612C286 612 341 558 341 473C341 398 299 324 186 204Z" stroke="rgb(0,0,0)" stroke-opacity="1" stroke-width="0" fill="rgb(0,0,0)" fill-opacity="1"></path></g></g></g></g></g></g></g><g><g><g><g><g><g><g transform="matrix(1,0,0,1,1039.9305725097656,187.52805725097656)"><path transform="matrix(0.02941,0,0,-0.02941,0,0)" d="M349 664L352 692L238 689C222 689 204 689 161 690L97 692L94 664L141 662C165 661 176 653 176 635L81 55C77 37 65 30 21 23L16 -3L57 -2C88 -1 150 0 170 0C170 0 467 -1 467 -1C467 -1 500 0 500 0C499 25 510 103 523 165L492 165L475 103C466 71 457 54 448 49C435 44 371 39 304 39C255 39 228 40 162 46C165 64 256 605 256 613C263 651 270 658 307 661Z" stroke="rgb(0,0,0)" stroke-opacity="1" stroke-width="0" fill="rgb(0,0,0)" fill-opacity="1"></path></g></g><g><g transform="matrix(1,0,0,1,1065.0834045410156,187.52805725097656)"><path transform="matrix(0.02941,0,0,-0.02941,0,0)" d="M604 347L604 406L65 406L65 347ZM604 134L604 193L65 193L65 134Z" stroke="rgb(0,0,0)" stroke-opacity="1" stroke-width="0" fill="rgb(0,0,0)" fill-opacity="1"></path></g></g><g><g transform="matrix(1,0,0,1,1093.5555725097656,187.52805725097656)"><path transform="matrix(0.02941,0,0,-0.02941,0,0)" d="M462 224C462 345 355 366 308 374C388 436 418 482 418 541C418 630 344 689 233 689C165 689 120 670 72 622L43 498L74 498L92 554C103 588 166 622 218 622C283 622 336 569 336 506C336 431 277 368 206 368C198 368 187 369 174 370L159 371L147 318L154 312C192 329 211 334 238 334C321 334 369 281 369 190C369 88 308 21 215 21C169 21 128 36 98 64C74 86 61 109 42 163L15 153C36 92 44 56 50 6C103 -12 147 -20 184 -20C307 -20 462 87 462 224Z" stroke="rgb(0,0,0)" stroke-opacity="1" stroke-width="0" fill="rgb(0,0,0)" fill-opacity="1"></path></g></g></g></g></g></g></g></svg>
</svg>
